<?xml version="1.0" encoding="UTF-8" standalone="no"?>
<!DOCTYPE svg PUBLIC "-//W3C//DTD SVG 1.1//EN" "http://www.w3.org/Graphics/SVG/1.1/DTD/svg11.dtd">
<svg width="100%" height="100%" viewBox="0 0 1080 1080" version="1.1" xmlns="http://www.w3.org/2000/svg" xmlns:xlink="http://www.w3.org/1999/xlink" xml:space="preserve" xmlns:serif="http://www.serif.com/" style="fill-rule:evenodd;clip-rule:evenodd;stroke-linecap:round;stroke-linejoin:round;stroke-miterlimit:1.5;">
    <g transform="matrix(0.756646,0,0,0.823289,114.948,71.7084)">
        <rect x="-155.882" y="-90.744" width="1431.32" height="1319.1" style="fill:rgb(209,160,97);"/>
    </g>
    <g transform="matrix(0.615533,0,0,0.615533,161.645,340.535)">
        <ellipse cx="602.747" cy="752.722" rx="392.96" ry="42.087" style="fill:rgb(106,90,70);fill-opacity:0.47;"/>
    </g>
    <g transform="matrix(0.769209,0,0,0.769209,128.99,201.347)">
        <g transform="matrix(0.969468,0,0,0.969468,20.0642,19.8965)">
            <path d="M493.103,373.387C632.933,373.387 747.951,406.205 747.951,446.627C747.951,448.984 760.093,653.404 718.057,716.801C679.796,774.507 603.235,799.317 493.103,799.317C382.972,799.317 306.411,774.507 268.15,716.801C226.114,653.404 238.255,448.984 238.255,446.627C238.255,431.824 253.682,418.04 280.103,406.514C325.828,386.569 404.483,373.387 493.103,373.387Z" style="fill:rgb(135,168,120);"/>
            <clipPath id="_clip1">
                <path d="M493.103,373.387C632.933,373.387 747.951,406.205 747.951,446.627C747.951,448.984 760.093,653.404 718.057,716.801C679.796,774.507 603.235,799.317 493.103,799.317C382.972,799.317 306.411,774.507 268.15,716.801C226.114,653.404 238.255,448.984 238.255,446.627C238.255,431.824 253.682,418.04 280.103,406.514C325.828,386.569 404.483,373.387 493.103,373.387Z"/>
            </clipPath>
            <g clip-path="url(#_clip1)">
                <g transform="matrix(-2.33686,0,0,2.33686,1687.21,-669.511)">
                    <path d="M425.939,501.189L402.707,487.862C402.707,487.862 400.187,546.744 405.928,567.378C415.787,602.813 440.399,616.816 440.399,616.816C440.399,616.816 426.28,586.819 424.255,557.598C422.438,531.376 425.939,501.189 425.939,501.189Z" style="fill:rgb(125,152,103);"/>
                </g>
                <g transform="matrix(2.33675,-0.0232143,0.0232143,2.33675,-602.981,-703.527)">
                    <path d="M374.715,503.459L356.325,503.459C352.289,529.954 347.523,557.877 348.936,584.937C350.117,607.539 352.816,624.392 356.325,646.675L374.715,646.675C367.752,598.08 366.53,551.741 374.715,503.459Z" style="fill:rgb(179,190,169);"/>
                </g>
                <g transform="matrix(2.33675,-0.0232143,0.0232143,2.33675,-539.8,-681.254)">
                    <path d="M368.042,502.015L356.325,503.459C352.968,521.237 351.103,542.01 350.348,560.872C349.205,589.436 352.478,618.511 356.325,646.675L368.042,645.231C364.524,623.014 361.825,606.131 360.652,583.594C359.241,556.498 364.03,528.549 368.042,502.015Z" style="fill:rgb(179,190,169);"/>
                </g>
            </g>
        </g>
        <g transform="matrix(2.26552,0,0,3.13055,-655.882,-1037.71)">
            <path d="M509.374,453.465C526.882,453.661 544.122,454.032 559.621,455.774C593.261,459.555 618.429,467.059 618.429,473.553C618.429,477.903 609.039,487.047 591.498,491.078C570.782,495.839 539.433,495.144 509.374,495.144C480.136,495.144 448.245,495.232 427.635,491.008C409.114,487.212 400.595,479.331 400.318,474.85C399.657,464.168 453.516,452.838 509.374,453.465Z" style="fill:rgb(239,239,239);"/>
        </g>
        <g transform="matrix(2.26552,0,0,3.13055,-655.882,-1037.71)">
            <path d="M509.374,463.495C564.885,463.495 618.429,474.097 618.429,483.584C618.429,487.934 609.039,487.047 591.498,491.078C570.782,495.839 539.433,495.144 509.374,495.144C480.136,495.144 448.245,495.232 427.635,491.008C414.866,488.391 407.541,486.178 403.712,485.091C401.988,484.602 400.318,486.275 400.318,484.88C400.318,475.394 453.863,463.495 509.374,463.495Z" style="fill:rgb(202,220,85);"/>
        </g>
        <g transform="matrix(2.26552,0,0,2.26552,-655.882,-635.033)">
            <path d="M429.642,460.263L450.218,471.94L459.002,478.593C459.002,478.593 451.498,481.13 444.996,483.123C438.954,484.975 433.909,476.977 432.849,486.864C432.408,490.975 435.225,500.194 435.225,500.194C421.042,498.476 408.875,493.733 399.622,484.619C399.622,484.619 399.221,477.635 402.828,472.012C406.501,466.285 428.702,459.141 429.642,460.263Z" style="fill-opacity:0.25;"/>
        </g>
        <g transform="matrix(-2.26552,0,0,2.26552,1650.53,-631.233)">
            <path d="M425.891,487.871C425.891,487.871 426.765,479.982 425.705,489.87C425.415,492.579 403.473,481.445 403.473,481.445L401.655,473.059C403.862,467.572 404.006,471.581 409.31,465.13C413.553,459.969 425.891,487.871 425.891,487.871Z" style="fill-opacity:0.25;"/>
        </g>
        <g transform="matrix(2.26552,0,0,2.26552,-655.882,-635.033)">
            <path d="M601.384,500.194C601.675,502.904 540,503.459 540,503.459C540,503.459 555.563,501.078 560.583,489.189C566.058,476.225 576.736,472.354 577.904,470.186C582.512,461.628 579.276,452.766 583.541,453.448C599.854,456.054 585.831,485.179 591.821,491.106C586.896,497.827 618.429,480.209 618.429,480.209C618.429,480.209 616.139,489.488 611.965,493.032C608.484,495.989 600.902,495.697 601.384,500.194Z" style="fill:rgb(239,239,239);fill-opacity:0.55;"/>
        </g>
        <g transform="matrix(2.28057,0,0,2.28057,-674.84,-644.818)">
            <path d="M455.249,520.24L455.249,569.458" style="fill:none;stroke:white;stroke-opacity:0.72;stroke-width:5.51px;"/>
        </g>
        <g transform="matrix(2.28057,0,0,2.28057,-708.1,-625.784)">
            <path d="M455.249,520.24L455.249,569.458" style="fill:none;stroke:rgb(37,49,32);stroke-width:5.51px;"/>
        </g>
        <g transform="matrix(0.97057,0.147151,-0.147151,0.97057,303.799,100.858)">
            <path d="M468.907,521.504C469.384,526.612 470.419,537.129 467.899,546.235C464.834,557.31 457.854,566.879 455.249,569.458" style="fill:none;stroke:rgb(37,49,32);stroke-width:12.81px;"/>
        </g>
        <g transform="matrix(2.28057,0,0,2.28057,-674.84,-644.818)">
            <path d="M455.249,581.227L455.249,596.635" style="fill:none;stroke:white;stroke-opacity:0.72;stroke-width:5.51px;"/>
        </g>
        <g transform="matrix(1.76201,0,0,1.34202,-444.684,-180.923)">
            <ellipse cx="510.308" cy="480.911" rx="18.082" ry="3.708" style="fill:rgb(239,239,239);fill-opacity:0.38;"/>
        </g>
        <g transform="matrix(2.48493,0,0,1.89262,-707.774,-464.104)">
            <ellipse cx="510.308" cy="480.911" rx="18.082" ry="3.708" style="fill:rgb(239,239,239);fill-opacity:0.21;"/>
        </g>
        <g transform="matrix(0.906309,0,0,0.791413,61.6586,114.632)">
            <ellipse cx="510.308" cy="480.911" rx="18.082" ry="3.708" style="fill:rgb(239,239,239);fill-opacity:0.31;"/>
        </g>
        <g transform="matrix(0.906309,0,0,0.791413,-79.0055,94.0425)">
            <ellipse cx="510.308" cy="480.911" rx="18.082" ry="3.708" style="fill:rgb(239,239,239);fill-opacity:0.21;"/>
        </g>
        <g transform="matrix(2.26552,0,0,2.26552,-655.882,-635.033)">
            <g transform="matrix(0.427924,0,0,0.427924,298.363,289.086)">
                <path d="M747.951,446.627C747.951,447.758 750.747,495.413 749.011,551.687" style="fill:none;stroke:rgb(37,49,32);stroke-width:18.64px;"/>
            </g>
            <g transform="matrix(0.427924,0,0,0.427924,298.363,289.086)">
                <path d="M747.951,576.528C747.863,578.125 748.048,574.927 747.951,576.528" style="fill:none;stroke:rgb(37,49,32);stroke-width:18.64px;"/>
            </g>
            <g transform="matrix(0.427924,0,0,0.427924,298.363,289.086)">
                <path d="M745.979,604.187C741.952,649.492 733.808,693.046 718.057,716.801C707.605,732.565 694.295,745.874 678.223,756.893" style="fill:none;stroke:rgb(37,49,32);stroke-width:18.64px;"/>
            </g>
            <g transform="matrix(0.427924,0,0,0.427924,298.363,289.086)">
                <path d="M653.519,771.035C612.698,790.464 558.89,799.317 493.103,799.317C475.724,799.317 459.18,798.699 443.491,797.432" style="fill:none;stroke:rgb(37,49,32);stroke-width:18.64px;"/>
            </g>
            <g transform="matrix(0.427924,0,0,0.427924,298.363,289.086)">
                <path d="M413.59,794.07C345.508,784.071 296.394,759.399 268.15,716.801C254.486,696.194 246.546,660.685 242.053,622.06" style="fill:none;stroke:rgb(37,49,32);stroke-width:18.64px;"/>
            </g>
            <g transform="matrix(0.427924,0,0,0.427924,298.363,289.086)">
                <path d="M238.851,586.352C234.224,516.446 238.255,447.985 238.255,446.627" style="fill:none;stroke:rgb(37,49,32);stroke-width:18.64px;"/>
            </g>
            <g transform="matrix(0.427924,0,0,0.427924,298.363,289.086)">
                <path d="M253.901,476.312C243.755,468.462 238.255,458.715 238.255,446.627C238.255,433.289 245.221,422.081 257.808,412.761" style="fill:none;stroke:rgb(37,49,32);stroke-width:18.64px;"/>
            </g>
            <g transform="matrix(0.427924,0,0,0.427924,298.363,289.086)">
                <path d="M283.515,399.033C329.679,380.666 406.649,373.387 493.103,373.387C524.571,373.387 554.782,374.288 582.709,376.317" style="fill:none;stroke:rgb(37,49,32);stroke-width:18.64px;"/>
            </g>
            <g transform="matrix(0.427924,0,0,0.427924,298.363,289.086)">
                <path d="M622.602,380.214C697.409,389.663 747.951,409.873 747.951,446.627C747.951,502.072 637.39,507.976 493.103,507.976C487.543,507.976 482.033,507.965 476.578,507.942" style="fill:none;stroke:rgb(37,49,32);stroke-width:18.64px;"/>
            </g>
            <g transform="matrix(0.427924,0,0,0.427924,298.363,289.086)">
                <path d="M451.386,507.728C448.016,507.684 444.671,507.632 441.352,507.574C435.297,507.467 429.33,507.336 423.457,507.177" style="fill:none;stroke:rgb(37,49,32);stroke-width:18.64px;"/>
            </g>
            <g transform="matrix(0.427924,0,0,0.427924,298.363,289.086)">
                <path d="M391.028,505.943C347.143,503.717 310.119,499.264 283.515,490.737" style="fill:none;stroke:rgb(37,49,32);stroke-width:18.64px;"/>
            </g>
        </g>
        <g transform="matrix(2.26552,0,0,2.26552,-573.603,-523.472)">
            <path d="M536.984,434.105C550.645,410.708 596.535,373.685 634.971,358.618C649.727,352.833 669.172,363.258 662.126,371.382C650.414,384.886 556.974,409.801 554.371,442.304L536.984,434.105Z" style="fill:rgb(176,188,152);"/>
            <clipPath id="_clip2">
                <path d="M536.984,434.105C550.645,410.708 596.535,373.685 634.971,358.618C649.727,352.833 669.172,363.258 662.126,371.382C650.414,384.886 556.974,409.801 554.371,442.304L536.984,434.105Z"/>
            </clipPath>
            <g clip-path="url(#_clip2)">
                <g transform="matrix(1,0,0,1,-36.318,-49.2431)">
                    <path d="M590.21,492.57L713.087,423.565C709.624,418.25 703.504,410.605 699.933,414.175C699.933,414.175 681.329,422.064 674.122,425.516C648.427,437.826 620.111,448.483 599.208,468.831C593.508,474.379 588.453,480.58 583.602,486.884C581.83,489.187 590.21,492.57 590.21,492.57Z" style="fill:rgb(147,163,114);"/>
                </g>
                <g transform="matrix(-1,0,0,-1,1246.97,819.75)">
                    <path d="M596.642,477.456C594.87,479.758 703.504,410.605 699.933,414.175L709.987,384.284C709.987,384.284 694.738,400.43 689.088,406.08C668.609,426.559 621.315,455.9 596.4,462.806C588.734,464.931 601.493,471.151 596.642,477.456Z" style="fill:rgb(194,203,176);"/>
                </g>
            </g>
        </g>
        <g transform="matrix(2.26552,0,0,2.26552,-573.603,-523.472)">
            <path d="M614.524,368.244C621.426,364.499 628.311,361.229 634.971,358.618C649.727,352.833 669.172,363.258 662.126,371.382C660.687,373.042 658.012,374.874 654.424,376.871" style="fill:none;stroke:rgb(61,68,45);stroke-width:4.41px;"/>
        </g>
        <g transform="matrix(2.26552,0,0,2.26552,-573.603,-523.472)">
            <path d="M650.011,379.191C649.727,379.334 649.439,379.477 649.148,379.621" style="fill:none;stroke:rgb(61,68,45);stroke-width:4.41px;"/>
        </g>
        <g transform="matrix(2.26552,0,0,2.26552,-573.603,-523.472)">
            <path d="M644.47,381.862C632.779,387.32 617.191,393.717 602.268,400.95" style="fill:none;stroke:rgb(61,68,45);stroke-width:4.41px;"/>
        </g>
        <g transform="matrix(2.26552,0,0,2.26552,-573.603,-523.472)">
            <path d="M595.724,404.205C574.166,415.226 555.514,428.034 554.371,442.304L536.984,434.105C539.668,429.508 543.596,424.385 548.467,419.006" style="fill:none;stroke:rgb(61,68,45);stroke-width:4.41px;"/>
        </g>
        <g transform="matrix(2.26552,0,0,2.26552,-573.603,-523.472)">
            <path d="M551.987,415.244C566.572,400.13 587.795,383.542 609.354,371.135" style="fill:none;stroke:rgb(61,68,45);stroke-width:4.41px;"/>
        </g>
        <g transform="matrix(2.26552,0,0,2.26552,-655.882,-635.033)">
            <path d="M593.695,492.57C591.412,492.126 589.456,491.673 587.052,490.548C581.455,487.928 575.787,484.059 569.604,482.405" style="fill:rgb(122,134,61);stroke:rgb(61,68,45);stroke-width:4.41px;"/>
        </g>
        <g transform="matrix(2.26552,0,0,2.26552,-661.199,-635.033)">
            <path d="M439.374,477.664L438.496,469.977L429.396,456.868L428.286,443.615L451.827,437.644L460.527,469.05" style="fill:rgb(88,200,0);"/>
            <clipPath id="_clip3">
                <path d="M439.374,477.664L438.496,469.977L429.396,456.868L428.286,443.615L451.827,437.644L460.527,469.05"/>
            </clipPath>
            <g clip-path="url(#_clip3)">
                <g transform="matrix(1.19247,0,0,1,-103.64,-1.40717)">
                    <path d="M456.032,442.817L446.071,445.618L448.153,461.633L453.28,476.092L456.733,479.071L463.066,476.229C463.665,475.892 464.55,471.857 462.749,468.079C460.335,463.015 458.88,462.605 456.617,457.063C454.57,452.047 456.032,442.817 456.032,442.817Z" style="fill:rgb(134,200,0);"/>
                </g>
                <g transform="matrix(-0.998384,0.0568326,-0.0568326,-0.998384,935.971,888.484)">
                    <path d="M456.733,445.008L447.122,447.02L449.906,461.633L453.28,476.092L456.733,479.071L464.122,475.839C464.122,475.839 460.574,467.26 461.062,463.123C461.398,460.271 461.527,458.1 461.427,455.924C461.173,450.354 456.733,445.008 456.733,445.008Z" style="fill:rgb(69,185,0);"/>
                </g>
            </g>
        </g>
        <g transform="matrix(2.26552,0,0,2.26552,-661.199,-635.033)">
            <path d="M438.496,476.092C438.496,476.092 439.832,473.299 438.496,469.05" style="fill:none;stroke:rgb(33,89,0);stroke-width:3.47px;"/>
        </g>
        <g transform="matrix(2.26552,0,0,2.26552,-661.199,-635.033)">
            <path d="M435.155,464.769C433.247,462.668 431.051,460.177 430.025,457.654C427.219,450.751 428.286,443.615 428.286,443.615L441.437,440.279" style="fill:none;stroke:rgb(33,89,0);stroke-width:3.47px;"/>
        </g>
        <g transform="matrix(2.26552,0,0,2.26552,-661.199,-635.033)">
            <path d="M447.65,438.703L451.827,437.644L460.527,469.05" style="fill:none;stroke:rgb(33,89,0);stroke-width:3.47px;"/>
        </g>
        <g transform="matrix(2.26552,0,0,2.26552,-618.024,-626.096)">
            <path d="M440.023,474.991C440.023,474.991 430.499,466.492 433.196,457.511C434.345,453.682 428.286,443.615 428.286,443.615L451.827,437.644C451.827,437.644 458.931,449.999 457.12,455.687C455.896,459.532 461.148,468.114 461.148,468.114" style="fill:rgb(88,200,0);"/>
            <clipPath id="_clip4">
                <path d="M440.023,474.991C440.023,474.991 430.499,466.492 433.196,457.511C434.345,453.682 428.286,443.615 428.286,443.615L451.827,437.644C451.827,437.644 458.931,449.999 457.12,455.687C455.896,459.532 461.148,468.114 461.148,468.114"/>
            </clipPath>
            <g clip-path="url(#_clip4)">
                <g transform="matrix(-0.998384,0.0568326,-0.0568326,-0.998384,939.155,888.045)">
                    <path d="M456.733,445.008L447.122,447.02L449.906,461.633L453.28,476.092L456.733,479.071L464.122,475.839C464.122,475.839 460.574,467.26 461.062,463.123C461.398,460.271 461.527,458.1 461.427,455.924C461.173,450.354 456.733,445.008 456.733,445.008Z" style="fill:rgb(69,185,0);"/>
                </g>
            </g>
        </g>
        <g transform="matrix(2.26552,0,0,2.26552,-655.882,-635.033)">
            <path d="M456.733,445.008L447.122,447.02L449.906,461.633L453.28,476.092L456.733,479.071L463.066,476.229C464.468,475.44 460.629,472.612 461.117,468.476C461.453,465.624 461.527,458.1 461.427,455.924C461.173,450.354 456.733,445.008 456.733,445.008Z" style="fill:rgb(134,200,0);"/>
        </g>
        <g transform="matrix(2.26552,0,0,2.26552,-618.024,-626.096)">
            <path d="M440.023,474.991C440.023,474.991 436.993,472.288 434.836,468.319" style="fill:none;stroke:rgb(33,89,0);stroke-width:3.47px;"/>
        </g>
        <g transform="matrix(2.26552,0,0,2.26552,-618.024,-626.096)">
            <path d="M433.196,464.305C432.621,462.168 432.492,459.856 433.196,457.511C434.345,453.682 428.286,443.615 428.286,443.615L451.827,437.644C451.827,437.644 453.169,439.977 454.537,443.083" style="fill:none;stroke:rgb(33,89,0);stroke-width:3.47px;"/>
        </g>
        <g transform="matrix(2.26552,0,0,2.26552,-618.024,-626.096)">
            <path d="M456.58,448.575C457.346,451.216 457.717,453.813 457.12,455.687C455.896,459.532 460.527,467.303 460.527,467.303" style="fill:none;stroke:rgb(33,89,0);stroke-width:3.47px;"/>
        </g>
        <g transform="matrix(1.25229,1.18674,-0.691438,0.729632,69.2084,-437.633)">
            <path d="M489.45,467.347L484.128,472.036" style="fill:none;stroke:rgb(122,134,61);stroke-width:5.57px;"/>
        </g>
        <g transform="matrix(1.25229,1.18674,-0.691438,0.729632,69.2084,-437.633)">
            <path d="M478.428,477.142L477.261,478.085" style="fill:none;stroke:rgb(122,134,61);stroke-width:5.57px;"/>
        </g>
        <g transform="matrix(2.26552,0,0,2.26552,-655.882,-635.033)">
            <path d="M435.225,451.592L440.684,449.954" style="fill:none;stroke:rgb(33,89,0);stroke-width:3.47px;"/>
        </g>
        <g transform="matrix(2.26552,0,0,2.26552,-655.882,-635.033)">
            <path d="M456.733,467.422L463.066,465.13" style="fill:none;stroke:rgb(33,89,0);stroke-width:3.47px;"/>
        </g>
        <g transform="matrix(2.26552,0,0,2.26552,-655.882,-635.033)">
            <path d="M459.9,453.448L466.014,451.592" style="fill:none;stroke:rgb(33,89,0);stroke-width:3.47px;"/>
        </g>
        <g transform="matrix(2.25729,0.192858,-0.192858,2.25729,-534.035,-733.516)">
            <path d="M492.851,477.689L501.112,476.362" style="fill:none;stroke:rgb(122,134,61);stroke-width:3.47px;"/>
        </g>
        <g transform="matrix(2.25729,0.192858,-0.192858,2.25729,-534.035,-733.516)">
            <path d="M506.45,475.505L509.374,475.036" style="fill:none;stroke:rgb(122,134,61);stroke-width:3.47px;"/>
        </g>
        <g transform="matrix(2.26552,0,0,2.26552,-655.882,-635.033)">
            <path d="M477.238,491.547C477.238,491.547 483.664,490.314 490.181,491.972" style="fill:none;stroke:rgb(122,134,61);stroke-width:3.47px;"/>
        </g>
        <g transform="matrix(2.26552,0,0,2.26552,-655.882,-635.033)">
            <path d="M493.631,493.155C494.218,493.415 494.797,493.707 495.362,494.033" style="fill:none;stroke:rgb(122,134,61);stroke-width:3.47px;"/>
        </g>
        <g transform="matrix(2.25281,0.239624,-0.239624,2.25281,-541.619,-733.793)">
            <path d="M449.189,472.554C449.189,472.554 443.501,478.672 434.068,478.936" style="fill:none;stroke:rgb(122,134,61);stroke-width:3.47px;"/>
        </g>
        <g transform="matrix(2.26552,0,0,2.26552,-655.882,-635.033)">
            <path d="M548.423,484.619L542.43,486.831" style="fill:none;stroke:rgb(122,134,61);stroke-width:3.47px;"/>
        </g>
        <g transform="matrix(2.26552,0,0,2.26552,-655.882,-635.033)">
            <path d="M537.517,488.515L530.845,491.106" style="fill:none;stroke:rgb(122,134,61);stroke-width:3.47px;"/>
        </g>
        <g transform="matrix(2.26552,0,0,2.26552,-655.882,-635.033)">
            <path d="M449.906,483.123C449.906,483.123 460.653,478.446 466.738,476.725" style="fill:none;stroke:rgb(122,134,61);stroke-width:3.47px;"/>
        </g>
        <g transform="matrix(2.26552,0,0,2.26552,-655.882,-635.033)">
            <path d="M470.828,475.459C472.897,474.874 473.751,474.65 476.82,473.821" style="fill:none;stroke:rgb(122,134,61);stroke-width:3.47px;"/>
        </g>
        <g transform="matrix(2.26552,0,0,2.26552,-655.882,-635.033)">
            <path d="M476.82,473.821C481.651,472.517 486.3,471.282 486.3,471.282" style="fill:none;stroke:rgb(122,134,61);stroke-width:3.47px;"/>
        </g>
        <g transform="matrix(1.46191,0,0,1.46191,-103.093,-305.08)">
            <path d="M689.32,411.977C679.449,407.946 663.29,417.064 653.933,421.277" style="fill:none;stroke:rgb(221,230,217);stroke-width:2.79px;"/>
        </g>
    </g>
    <g transform="matrix(0.718637,0,0,0.718637,227.173,73.463)">
        <g transform="matrix(0.449554,0,0,0.449554,735.205,-136.008)">
            <path d="M593.072,575.085C593.105,591.068 593.162,594.999 593.162,594.999L564.809,594.999C564.809,594.999 571.897,624.534 564.809,630.441C557.721,636.347 529.368,636.347 522.279,630.441C515.191,624.534 522.279,594.999 522.279,594.999L486.838,594.999L486.838,481.588C486.838,481.588 562.727,414.24 593.162,462.614C593.129,477.145 593.105,490.12 593.087,501.698L519.692,538.396L593.072,575.085Z" style="fill:white;fill-opacity:0.76;"/>
        </g>
        <g transform="matrix(0.734937,0,0,0.734937,841.956,-204.129)">
            <path d="M217.67,409.46C217.665,419.717 217.669,427.843 217.677,434.257L192.878,421.857L217.67,409.46Z" style="fill:white;fill-opacity:0.76;"/>
        </g>
    </g>
    <g transform="matrix(-1.01143,0,0,0.914599,926.473,184.383)">
        <path d="M439,350C419.043,330.77 399.42,309.841 389.07,283.624C382.705,267.501 388.107,250.069 384.291,233.546C381.216,220.236 376.871,207.243 373.715,193.952C373.1,191.363 372.466,188.607 373,186C376.41,169.337 392.483,160.899 401.487,147.817C407.701,138.788 407.049,127.002 407.658,116.71C408.918,95.424 410.046,93.223 407,72C411.961,74.351 418.369,77.714 422.145,81.881C425.414,85.489 428.31,89.465 430.784,93.659C437.607,105.225 436.793,120.031 431.143,131.853C420.76,153.58 406.166,174.692 403.032,199.269C398.478,234.985 405.013,271.146 416.149,305.047C421.568,321.542 425.164,328.179 433.237,343.494C434.337,345.581 436.435,349.211 439,350Z" style="fill:rgb(226,231,235);fill-opacity:0.64;"/>
    </g>
    <g transform="matrix(1.01143,0,0,0.914599,-24.7847,207.439)">
        <path d="M439,350C422.895,339.173 408.487,325.183 399.622,307.716C395.241,299.085 389.926,287.891 393.562,277.842C400.348,259.086 413.32,239.984 409.279,218.812C405.378,198.378 383.963,181.493 390.026,159.287C393.234,147.538 396.311,139.158 404.841,130.111C412.891,121.574 437.769,109.162 426.609,92.865C423.714,88.637 420.486,84.617 416.976,80.883C413.927,77.638 410.544,74.695 407,72C430.251,83.017 440.685,112.946 429.755,136.175C424.429,147.492 414.242,159.736 415.883,173.429C418.6,196.101 433.769,214.408 437.598,236.764C438.058,239.451 436.419,247.835 434.643,250.024C430.217,255.475 420.994,258.077 419.63,266.025C416.459,284.502 421.641,303.133 426.707,320.691C428.698,327.59 431.384,334.269 433.735,341.053C434.548,343.399 435.849,349.031 439,350Z" style="fill:rgb(226,231,235);fill-opacity:0.64;"/>
    </g>
    <g transform="matrix(-1.01143,0,0,0.914599,1048.54,236.266)">
        <path d="M426.986,310C425.007,298.644 420.297,281.309 416.002,270.599C410.635,257.22 404.339,249.582 400.141,235.672C396.47,223.509 394.708,206.886 395.159,194.228C395.75,177.599 406.545,163.737 412.192,148.823C421.514,124.204 421.829,94.667 407,72C416.573,81.222 426.147,90.447 435.957,99.416C440.382,103.46 445.138,105.313 448.364,110.678C450.121,113.6 449.66,118.517 448.568,121.493C444.591,132.334 435.402,139.965 429.664,149.716C415.001,174.631 409.323,203.816 412.765,232.453C415.242,253.065 426.927,271.958 438.396,288.544C442.442,294.395 447.272,299.672 451.986,305C452.91,306.045 463.551,313.408 458.641,317.197C456.207,319.075 451.443,318.568 448.812,317.726C441.461,315.375 434.044,313.123 426.986,310Z" style="fill:rgb(226,231,235);fill-opacity:0.64;"/>
    </g>
</svg>
