<?xml version="1.0" encoding="UTF-8" standalone="no"?><!DOCTYPE svg PUBLIC "-//W3C//DTD SVG 1.1//EN" "http://www.w3.org/Graphics/SVG/1.1/DTD/svg11.dtd"><svg width="100%" height="100%" viewBox="0 0 800 800" version="1.1" xmlns="http://www.w3.org/2000/svg" xmlns:xlink="http://www.w3.org/1999/xlink" xml:space="preserve" xmlns:serif="http://www.serif.com/" style="fill-rule:evenodd;clip-rule:evenodd;stroke-linecap:round;stroke-linejoin:round;stroke-miterlimit:1.5;"><rect x="0" y="0" width="800" height="803" style="fill:#797979;"/><g id="Layer1"><path d="M347.033,516.538c-34.381,4.839 -67.998,-6.137 -92.447,4.584c-20.198,8.858 -56.931,32.284 -43.549,49.815c13.802,18.082 80.014,55.752 126.363,58.676c50.043,3.158 131.671,-23.048 173.897,-39.729c30.935,-12.22 89.136,-46.35 79.459,-60.357c-9.678,-14.007 -91.683,-13.498 -137.524,-21.393" style="fill:#ff9633;"/><clipPath id="_clip1"><path d="M347.033,516.538c-34.381,4.839 -67.998,-6.137 -92.447,4.584c-20.198,8.858 -56.931,32.284 -43.549,49.815c13.802,18.082 80.014,55.752 126.363,58.676c50.043,3.158 131.671,-23.048 173.897,-39.729c30.935,-12.22 89.136,-46.35 79.459,-60.357c-9.678,-14.007 -91.683,-13.498 -137.524,-21.393"/></clipPath><g clip-path="url(#_clip1)"><g id="Layer5"><path d="M479.972,489.798c99.683,23.345 48.533,85.564 -69.525,165.028l200.937,-0.764l59.594,-167.321l-191.006,3.057Z" style="fill:#bc6f26;"/></g></g></g><path d="M516.645,315.222c0,-27.052 -10.746,-52.996 -29.875,-72.125c-19.128,-19.129 -45.072,-29.875 -72.125,-29.875l-34.374,-0c-27.052,-0 -52.996,10.746 -72.125,29.875c-19.129,19.129 -29.875,45.073 -29.875,72.125l-0,65.699c-0,27.052 10.746,52.997 29.875,72.125c19.129,19.129 45.073,29.875 72.125,29.875l34.374,0c27.053,0 52.997,-10.746 72.125,-29.875c19.129,-19.128 29.875,-45.073 29.875,-72.125l0,-65.699Z" style="fill:#daab7f;"/><clipPath id="_clip2"><path d="M516.645,315.222c0,-27.052 -10.746,-52.996 -29.875,-72.125c-19.128,-19.129 -45.072,-29.875 -72.125,-29.875l-34.374,-0c-27.052,-0 -52.996,10.746 -72.125,29.875c-19.129,19.129 -29.875,45.073 -29.875,72.125l-0,65.699c-0,27.052 10.746,52.997 29.875,72.125c19.129,19.129 45.073,29.875 72.125,29.875l34.374,0c27.053,0 52.997,-10.746 72.125,-29.875c19.129,-19.128 29.875,-45.073 29.875,-72.125l0,-65.699Z"/></clipPath><g clip-path="url(#_clip2)"><path d="M505.949,345.824c8.171,63.584 -3.076,108.145 -45.077,122.581l-23.685,12.224l-68.534,2.292l-5.576,9.169l67.234,6.876l-51.189,68.762l49.661,25.212l136.76,-224.959l-59.594,-22.157Z" style="fill:#c48e5b;fill-opacity:0.57;"/></g><path d="M516.645,353.038c-14.861,-12.689 -14.387,-6.078 -33.54,-2.243c-72.519,14.519 -64.832,-77.318 -92.523,-78.743c-33.804,-1.741 -66.833,-7.762 -100.198,-5.449c-21.316,1.478 -42.678,2.495 -63.925,4.76l39.74,-14.517l-55.162,-19.175l71.229,-8.039l-50.6,-42.387c27.635,-6.723 57.056,-14.471 85.757,-16.298c42.981,-2.736 85.488,1.098 126.176,15.524c21.619,7.666 46.613,16.395 62.551,33.841c9.437,10.33 11.538,24.994 15.923,37.615c3.527,10.154 8.062,19.955 11.259,30.217c1.703,5.467 3.612,15.531 3.184,22.327c-1.004,15.926 -11.369,29.801 -19.871,42.567Z" style="fill:#00574b;"/><clipPath id="_clip3"><path d="M516.645,353.038c-14.861,-12.689 -14.387,-6.078 -33.54,-2.243c-72.519,14.519 -64.832,-77.318 -92.523,-78.743c-33.804,-1.741 -66.833,-7.762 -100.198,-5.449c-21.316,1.478 -42.678,2.495 -63.925,4.76l39.74,-14.517l-55.162,-19.175l71.229,-8.039l-50.6,-42.387c27.635,-6.723 57.056,-14.471 85.757,-16.298c42.981,-2.736 85.488,1.098 126.176,15.524c21.619,7.666 46.613,16.395 62.551,33.841c9.437,10.33 11.538,24.994 15.923,37.615c3.527,10.154 8.062,19.955 11.259,30.217c1.703,5.467 3.612,15.531 3.184,22.327c-1.004,15.926 -11.369,29.801 -19.871,42.567Z"/></clipPath><g clip-path="url(#_clip3)"><g id="Layer3"><path d="M510.533,226.21c-13.015,-1.983 27.294,70.94 0.567,76.638c-30.409,6.484 -43.931,10.681 -61.688,24.977c-76.415,61.52 78.215,87.477 100.086,67.234c14.22,-13.161 -19.099,-165.821 -38.965,-168.849Z" style="fill:#14433d;"/></g></g><path d="M415.031,341.763l74.11,-28.036" style="fill:none;stroke:#000;stroke-width:5.04px;"/><path d="M467.594,319.333c4.33,16.213 3.693,49.287 12.989,48.639c6.336,-0.442 21.889,-13.849 30.352,-24.875c3.953,-5.149 -1.282,-16.656 -2.083,-19.203c-9.041,-28.736 -22.666,-5.858 -41.258,-4.561" style="fill:#daab7f;"/><clipPath id="_clip4"><path d="M467.594,319.333c4.33,16.213 3.693,49.287 12.989,48.639c6.336,-0.442 21.889,-13.849 30.352,-24.875c3.953,-5.149 -1.282,-16.656 -2.083,-19.203c-9.041,-28.736 -22.666,-5.858 -41.258,-4.561"/></clipPath><g clip-path="url(#_clip4)"><path d="M509.005,345.824c-1.261,31.313 -30.238,80.526 -48.133,122.581l-23.685,12.224l-68.534,2.292l-5.576,9.169l67.234,6.876l-51.189,68.762l49.661,25.212l136.76,-224.959l-56.538,-22.157Z" style="fill:#c48e5b;stroke:#c48e5b;stroke-opacity:0.61;stroke-width:6.59px;"/></g><path d="M342.96,325.245c-6.683,-6.57 -33.416,-6.57 -40.099,0c-6.683,6.57 -6.683,32.85 0,39.42c6.683,6.57 33.416,6.57 40.099,-0c6.684,-6.57 6.684,-32.85 0,-39.42Z" style="fill:none;stroke:#000;stroke-width:5.04px;"/><path d="M409.769,326.984c-6.683,-6.57 -33.416,-6.57 -40.099,0c-6.684,6.57 -6.684,32.85 -0,39.42c6.683,6.57 33.416,6.57 40.099,-0c6.683,-6.57 6.683,-32.85 -0,-39.42Z" style="fill:none;stroke:#000;stroke-width:5.04px;"/><path d="M347.973,346.694l16.684,-0" style="fill:none;stroke:#000;stroke-width:5.04px;"/><path d="M297.849,344.955l-19.578,-4.961" style="fill:none;stroke:#000;stroke-width:5.04px;"/><circle cx="322.911" cy="346.694" r="15.209"/><circle cx="391.192" cy="347.079" r="15.209"/><circle cx="385.361" cy="339.994" r="5.831" style="fill:#fff;"/><circle cx="317.08" cy="339.608" r="5.831" style="fill:#fff;"/><path d="M349.325,388.947c-0,-0 -13.371,28.396 -9.932,33.617c3.438,5.221 30.56,-2.292 30.56,-2.292" style="fill:none;stroke:#000;stroke-width:5.04px;"/><path d="M339.393,443.956c-0,0 11.983,20.548 29.26,-2.292" style="fill:none;stroke:#000;stroke-width:5.04px;"/><path d="M378.586,462.293c-0,-0 -19.806,48.388 -38.429,58.065c-16.492,8.57 45.62,46.096 64.211,50.426c17.296,4.028 48.864,-62.65 48.864,-62.65l-19.101,-41.257" style="fill:#daab7f;"/><clipPath id="_clip5"><path d="M378.586,462.293c-0,-0 -19.806,48.388 -38.429,58.065c-16.492,8.57 45.62,46.096 64.211,50.426c17.296,4.028 48.864,-62.65 48.864,-62.65l-19.101,-41.257"/></clipPath><g clip-path="url(#_clip5)"><path d="M509.005,345.824l-48.133,122.581l-23.685,12.224l-68.534,2.292l-5.576,9.169c0,-0 62.444,-7.956 72.582,-0c30.917,24.262 -42.882,81.273 -56.537,75.638l49.661,25.212l136.76,-224.959l-56.538,-22.157Z" style="fill:#c48e5b;fill-opacity:0.67;"/></g><path d="M497.079,319.958c-0,0 9.595,21.426 -6.371,23.912" style="fill:none;stroke:#c48e5b;stroke-width:5.04px;"/><g id="Layer2"><path d="M269.103,190.301c-0,0 35.275,-11.933 49.661,-10.696" style="fill:none;stroke:#fff;stroke-width:2.39px;"/></g><g id="Layer4"><path d="M300.427,522.65c0,0 -28.228,0.497 -32.088,15.281" style="fill:none;stroke:#fff;stroke-width:2.39px;"/><path d="M265.282,546.335c0,0 -7.232,9.092 -0.764,15.281" style="fill:none;stroke:#fff;stroke-width:2.39px;"/></g></svg>