<?xml version="1.0" encoding="UTF-8" standalone="no"?>
<!DOCTYPE svg PUBLIC "-//W3C//DTD SVG 1.1//EN" "http://www.w3.org/Graphics/SVG/1.1/DTD/svg11.dtd">
<svg width="100%" height="100%" viewBox="0 0 1080 1080" version="1.1" xmlns="http://www.w3.org/2000/svg" xmlns:xlink="http://www.w3.org/1999/xlink" xml:space="preserve" xmlns:serif="http://www.serif.com/" style="fill-rule:evenodd;clip-rule:evenodd;stroke-linecap:round;stroke-linejoin:round;stroke-miterlimit:1.5;">
    <rect x="-3" y="0" width="1086" height="1104" style="fill:rgb(217,131,9);fill-opacity:0.95;"/>
    <g transform="matrix(0.957789,0,0,0.957789,22.3195,22.2128)">
        <g>
            <g transform="matrix(0.932133,0,0,0.949734,38.6836,28.1438)">
                <g id="Layer1">
                    <path d="M688.812,223.277C690.545,214.238 692.146,205.175 693.627,196.092C694.217,192.475 694.789,188.855 695.344,185.232C695.514,184.118 695.683,183.003 695.851,181.889C695.907,181.514 695.963,181.14 696.019,180.765C696.075,180.389 696.124,180.012 696.187,179.637C696.187,179.632 696.292,179.241 696.293,179.235C696.347,179.036 696.401,178.837 696.455,178.637C696.616,178.049 696.781,177.462 696.952,176.876C697.509,174.964 698.12,173.067 698.795,171.193C700.33,166.93 702.193,162.766 704.545,158.888C706.344,155.924 708.436,153.123 710.892,150.67C713.023,148.541 715.431,146.682 718.09,145.259C719.827,144.328 721.666,143.587 723.566,143.064C724.852,142.711 726.164,142.456 727.489,142.302C728.439,142.191 729.394,142.132 730.351,142.121C735.822,142.061 741.215,143.615 746.065,146.085C746.801,146.459 747.525,146.855 748.238,147.271C749.075,147.759 749.895,148.274 750.699,148.815C751.794,149.551 752.859,150.334 753.89,151.158C755.193,152.199 756.443,153.307 757.634,154.474C759.206,156.012 760.678,157.654 762.032,159.388C763.827,161.686 765.419,164.149 766.727,166.757C768.463,170.218 769.726,173.977 770.06,177.85C770.114,178.469 770.142,179.09 770.145,179.712C770.145,179.935 770.143,180.158 770.136,180.381C770.133,180.492 770.126,180.603 770.124,180.714C770.118,181.077 770.113,181.441 770.107,181.805C770.082,183.249 770.056,184.692 770.028,186.135C769.986,188.264 769.939,190.393 769.888,192.522L769.873,193.135C770.712,192.976 771.649,192.793 772.692,192.564C781.938,190.533 788.701,189.764 790.753,198.914C792.805,208.064 782.507,210.167 773.262,212.198C771.548,212.575 770.24,212.782 769.233,212.813C768.682,226.323 767.928,238.851 766.981,250.487C768.203,250.739 769.699,251.074 771.552,251.403C780.874,253.058 787.414,254.93 785.741,264.155C784.112,273.145 774.267,271.484 765.14,269.863C762.712,291.973 759.481,310.351 755.56,325.703C764.429,327.327 770.527,329.36 768.906,338.303C767.375,346.745 758.603,345.796 749.981,344.306C738.823,376.05 723.72,391.239 706.324,400.652C712.827,405.411 716.569,409.702 711.627,416.642C706.171,424.303 697.667,418.182 689.926,412.783C687.84,411.328 686.598,410.261 686.003,409.328C672.275,414.131 656.353,413.597 642.507,421.709C642.621,421.932 642.739,422.161 642.862,422.395C647.223,430.715 649.713,436.985 641.307,441.301C635.421,444.323 631.351,440.667 627.943,435.348C626.695,437.128 625.487,439.071 624.326,441.191C624.854,453.138 625.304,464.925 625.689,476.412C631.732,476.351 635.841,478.026 636.646,485.088C637.389,491.598 632.498,494.053 626.272,495.3C626.8,513.992 627.16,531.674 627.402,547.73C632.313,548.082 635.594,550.12 636.305,556.349C636.978,562.251 633.022,564.82 627.639,566.177C627.931,593.653 627.881,614.62 627.82,625.105L706.099,633.809C706.099,633.809 776.587,875.368 619.699,932.378C600.819,939.239 541.206,937.743 541.206,937.743C541.206,937.743 488.995,939.053 466.912,927.636C334.236,859.048 419.388,602.33 419.711,601.963L498.04,610.673C497.423,596.178 496.66,575.244 496.118,550.232C460.338,550.718 431.073,547.228 407.123,539.951C404.929,548.323 402.168,556.591 393.782,554.48C384.603,552.17 385.587,545.503 387.921,536.42C388.238,535.187 388.484,534.102 388.695,533.155C372.373,525.95 359.042,516.515 348.157,504.943C342.259,510.795 335.992,515.861 330.058,510.144C323.272,503.606 327.488,498.317 334.094,491.601C334.794,490.89 335.41,490.236 335.961,489.643C328.147,478.06 322.013,464.887 317.199,450.189C309.195,452.174 301.343,453.224 299.24,445.392C296.837,436.447 303.012,433.997 311.982,431.618C308.914,418.793 306.606,404.99 304.868,390.234C297.109,390.035 290.049,388.764 290.034,381.086C290.019,372.843 295.253,371.298 302.959,371.034C301.665,355.415 300.867,338.85 300.374,321.372C293.539,318.258 287.905,314.399 290.821,307.495C292.939,302.481 296.021,301.026 299.94,301.393C299.923,300.338 299.907,299.265 299.891,298.189C299.43,266.266 350.083,193.943 387.845,295.688C390.742,303.493 392.181,314.595 393.531,327.39C401.342,324.301 407.204,323.206 410.595,331.233C414.248,339.88 404.487,343.75 395.75,347.365L395.634,347.413C396.917,358.72 398.581,370.597 401.339,382.215C407.471,380.233 412.138,380.466 415.02,387.289C417.741,393.729 413.021,397.52 406.824,400.529L406.897,400.723C408.29,404.431 409.848,408.077 411.614,411.623C414.163,416.741 417.141,421.653 420.603,426.207C423.93,430.582 427.703,434.617 431.885,438.186C436.107,441.788 440.734,444.904 445.643,447.492C452.002,450.845 458.806,453.303 465.783,455.009C473.273,456.841 480.957,457.818 488.653,458.188C490.404,458.272 492.156,458.325 493.908,458.348C494.356,458.355 494.804,458.359 495.253,458.361C495.365,458.361 495.566,458.472 495.591,458.362C495.707,457.848 495.603,457.309 495.61,456.782C495.622,455.726 495.636,454.67 495.65,453.614C495.7,449.896 495.759,446.178 495.827,442.46C496.025,431.706 496.301,420.954 496.663,410.204L496.687,409.513C495.869,409.632 494.882,409.713 493.694,409.768C484.234,410.205 473.74,410.844 473.298,401.482C472.856,392.12 479.587,391.108 489.047,390.671C493.549,390.463 496.027,389.96 497.437,390.499C498.122,375.185 499.011,359.922 500.143,344.962C490.793,345.397 480.596,345.883 480.161,336.658C479.719,327.296 486.45,326.284 495.91,325.847C498.455,325.729 500.353,325.517 501.777,325.453C503.191,310.148 504.889,295.291 506.917,281.165C506.303,281.08 505.616,280.962 504.848,280.813C495.555,279.008 485.208,277.156 487.031,267.96C488.855,258.763 495.635,259.366 504.928,261.171C506.998,261.573 508.653,261.807 509.954,262.031C511.899,250.93 514.085,240.421 516.539,230.666C515.504,230.518 514.148,230.097 512.327,229.392C503.507,225.978 493.659,222.331 497.109,213.603C500.558,204.875 507.122,206.664 515.941,210.077C518.528,211.079 520.459,211.668 521.81,212.221C532.031,180.807 545.999,160.699 564.954,159.592C604.369,157.29 613.019,186.981 615.092,231.78C616.184,231.902 617.469,232.049 618.986,232.169C628.427,232.916 629.755,230.99 629,240.332C628.296,249.038 624.522,251.936 615.639,251.255C615.853,265.793 615.778,281.475 616.062,297.849C617.153,298.079 618.44,298.355 619.972,298.627C629.293,300.282 630.469,300.048 628.797,309.273C627.348,317.268 624.767,318.946 616.607,317.613C616.952,326.303 617.461,335.136 618.222,344.043C619.986,364.691 646.781,370.362 672.143,290.959C662.769,290.174 657.828,289.381 658.623,280.122C659.424,270.783 660.866,270.652 670.303,271.445C673.902,271.747 676.237,271.694 677.705,272.029C680.139,263.048 682.54,253.21 684.885,242.453C683.79,242.403 682.278,241.965 680.102,241.123C671.282,237.709 661.434,234.063 664.884,225.335C668.334,216.607 674.897,218.395 683.717,221.809C685.808,222.619 687.47,223.159 688.744,223.628L688.812,223.277Z" style="fill:white;"/>
                    <clipPath id="_clip1">
                        <path d="M688.812,223.277C690.545,214.238 692.146,205.175 693.627,196.092C694.217,192.475 694.789,188.855 695.344,185.232C695.514,184.118 695.683,183.003 695.851,181.889C695.907,181.514 695.963,181.14 696.019,180.765C696.075,180.389 696.124,180.012 696.187,179.637C696.187,179.632 696.292,179.241 696.293,179.235C696.347,179.036 696.401,178.837 696.455,178.637C696.616,178.049 696.781,177.462 696.952,176.876C697.509,174.964 698.12,173.067 698.795,171.193C700.33,166.93 702.193,162.766 704.545,158.888C706.344,155.924 708.436,153.123 710.892,150.67C713.023,148.541 715.431,146.682 718.09,145.259C719.827,144.328 721.666,143.587 723.566,143.064C724.852,142.711 726.164,142.456 727.489,142.302C728.439,142.191 729.394,142.132 730.351,142.121C735.822,142.061 741.215,143.615 746.065,146.085C746.801,146.459 747.525,146.855 748.238,147.271C749.075,147.759 749.895,148.274 750.699,148.815C751.794,149.551 752.859,150.334 753.89,151.158C755.193,152.199 756.443,153.307 757.634,154.474C759.206,156.012 760.678,157.654 762.032,159.388C763.827,161.686 765.419,164.149 766.727,166.757C768.463,170.218 769.726,173.977 770.06,177.85C770.114,178.469 770.142,179.09 770.145,179.712C770.145,179.935 770.143,180.158 770.136,180.381C770.133,180.492 770.126,180.603 770.124,180.714C770.118,181.077 770.113,181.441 770.107,181.805C770.082,183.249 770.056,184.692 770.028,186.135C769.986,188.264 769.939,190.393 769.888,192.522L769.873,193.135C770.712,192.976 771.649,192.793 772.692,192.564C781.938,190.533 788.701,189.764 790.753,198.914C792.805,208.064 782.507,210.167 773.262,212.198C771.548,212.575 770.24,212.782 769.233,212.813C768.682,226.323 767.928,238.851 766.981,250.487C768.203,250.739 769.699,251.074 771.552,251.403C780.874,253.058 787.414,254.93 785.741,264.155C784.112,273.145 774.267,271.484 765.14,269.863C762.712,291.973 759.481,310.351 755.56,325.703C764.429,327.327 770.527,329.36 768.906,338.303C767.375,346.745 758.603,345.796 749.981,344.306C738.823,376.05 723.72,391.239 706.324,400.652C712.827,405.411 716.569,409.702 711.627,416.642C706.171,424.303 697.667,418.182 689.926,412.783C687.84,411.328 686.598,410.261 686.003,409.328C672.275,414.131 656.353,413.597 642.507,421.709C642.621,421.932 642.739,422.161 642.862,422.395C647.223,430.715 649.713,436.985 641.307,441.301C635.421,444.323 631.351,440.667 627.943,435.348C626.695,437.128 625.487,439.071 624.326,441.191C624.854,453.138 625.304,464.925 625.689,476.412C631.732,476.351 635.841,478.026 636.646,485.088C637.389,491.598 632.498,494.053 626.272,495.3C626.8,513.992 627.16,531.674 627.402,547.73C632.313,548.082 635.594,550.12 636.305,556.349C636.978,562.251 633.022,564.82 627.639,566.177C627.931,593.653 627.881,614.62 627.82,625.105L706.099,633.809C706.099,633.809 776.587,875.368 619.699,932.378C600.819,939.239 541.206,937.743 541.206,937.743C541.206,937.743 488.995,939.053 466.912,927.636C334.236,859.048 419.388,602.33 419.711,601.963L498.04,610.673C497.423,596.178 496.66,575.244 496.118,550.232C460.338,550.718 431.073,547.228 407.123,539.951C404.929,548.323 402.168,556.591 393.782,554.48C384.603,552.17 385.587,545.503 387.921,536.42C388.238,535.187 388.484,534.102 388.695,533.155C372.373,525.95 359.042,516.515 348.157,504.943C342.259,510.795 335.992,515.861 330.058,510.144C323.272,503.606 327.488,498.317 334.094,491.601C334.794,490.89 335.41,490.236 335.961,489.643C328.147,478.06 322.013,464.887 317.199,450.189C309.195,452.174 301.343,453.224 299.24,445.392C296.837,436.447 303.012,433.997 311.982,431.618C308.914,418.793 306.606,404.99 304.868,390.234C297.109,390.035 290.049,388.764 290.034,381.086C290.019,372.843 295.253,371.298 302.959,371.034C301.665,355.415 300.867,338.85 300.374,321.372C293.539,318.258 287.905,314.399 290.821,307.495C292.939,302.481 296.021,301.026 299.94,301.393C299.923,300.338 299.907,299.265 299.891,298.189C299.43,266.266 350.083,193.943 387.845,295.688C390.742,303.493 392.181,314.595 393.531,327.39C401.342,324.301 407.204,323.206 410.595,331.233C414.248,339.88 404.487,343.75 395.75,347.365L395.634,347.413C396.917,358.72 398.581,370.597 401.339,382.215C407.471,380.233 412.138,380.466 415.02,387.289C417.741,393.729 413.021,397.52 406.824,400.529L406.897,400.723C408.29,404.431 409.848,408.077 411.614,411.623C414.163,416.741 417.141,421.653 420.603,426.207C423.93,430.582 427.703,434.617 431.885,438.186C436.107,441.788 440.734,444.904 445.643,447.492C452.002,450.845 458.806,453.303 465.783,455.009C473.273,456.841 480.957,457.818 488.653,458.188C490.404,458.272 492.156,458.325 493.908,458.348C494.356,458.355 494.804,458.359 495.253,458.361C495.365,458.361 495.566,458.472 495.591,458.362C495.707,457.848 495.603,457.309 495.61,456.782C495.622,455.726 495.636,454.67 495.65,453.614C495.7,449.896 495.759,446.178 495.827,442.46C496.025,431.706 496.301,420.954 496.663,410.204L496.687,409.513C495.869,409.632 494.882,409.713 493.694,409.768C484.234,410.205 473.74,410.844 473.298,401.482C472.856,392.12 479.587,391.108 489.047,390.671C493.549,390.463 496.027,389.96 497.437,390.499C498.122,375.185 499.011,359.922 500.143,344.962C490.793,345.397 480.596,345.883 480.161,336.658C479.719,327.296 486.45,326.284 495.91,325.847C498.455,325.729 500.353,325.517 501.777,325.453C503.191,310.148 504.889,295.291 506.917,281.165C506.303,281.08 505.616,280.962 504.848,280.813C495.555,279.008 485.208,277.156 487.031,267.96C488.855,258.763 495.635,259.366 504.928,261.171C506.998,261.573 508.653,261.807 509.954,262.031C511.899,250.93 514.085,240.421 516.539,230.666C515.504,230.518 514.148,230.097 512.327,229.392C503.507,225.978 493.659,222.331 497.109,213.603C500.558,204.875 507.122,206.664 515.941,210.077C518.528,211.079 520.459,211.668 521.81,212.221C532.031,180.807 545.999,160.699 564.954,159.592C604.369,157.29 613.019,186.981 615.092,231.78C616.184,231.902 617.469,232.049 618.986,232.169C628.427,232.916 629.755,230.99 629,240.332C628.296,249.038 624.522,251.936 615.639,251.255C615.853,265.793 615.778,281.475 616.062,297.849C617.153,298.079 618.44,298.355 619.972,298.627C629.293,300.282 630.469,300.048 628.797,309.273C627.348,317.268 624.767,318.946 616.607,317.613C616.952,326.303 617.461,335.136 618.222,344.043C619.986,364.691 646.781,370.362 672.143,290.959C662.769,290.174 657.828,289.381 658.623,280.122C659.424,270.783 660.866,270.652 670.303,271.445C673.902,271.747 676.237,271.694 677.705,272.029C680.139,263.048 682.54,253.21 684.885,242.453C683.79,242.403 682.278,241.965 680.102,241.123C671.282,237.709 661.434,234.063 664.884,225.335C668.334,216.607 674.897,218.395 683.717,221.809C685.808,222.619 687.47,223.159 688.744,223.628L688.812,223.277Z"/>
                    </clipPath>
                    <g clip-path="url(#_clip1)">
                        <g transform="matrix(1.89529,0,0,1.86685,-348.218,-455.596)">
                            <path d="M513.208,421.284C514.514,436.731 556.973,449.418 556.424,329.2C580.74,289.726 604.097,330.155 604.097,330.155C606.938,438.595 572.149,453.565 546.967,462.469C535.667,466.464 528.035,465.476 518.686,482.536C508.786,500.604 518.496,582.869 518.496,582.869L447.172,582.869C447.172,582.869 446.114,564.197 445.526,536.771C349.203,538.093 342.138,514.955 336.757,395.602C336.757,395.602 356.369,342.036 390.369,393.65C396.368,459.752 392.234,454.818 445.234,485.315C446.091,409.828 453.42,319.759 483.682,317.973C521.047,315.768 508.532,365.977 513.208,421.284Z" style="fill:white;"/>
                        </g>
                        <g transform="matrix(1.80408,0,0,1.78539,-333.003,-408.113)">
                            <path d="M513.208,421.284C514.514,436.731 560.517,458.004 556.424,329.2C580.74,289.726 604.028,314.261 604.097,330.155C604.578,440.178 578.155,443.569 552.973,452.473C541.674,456.468 520.023,463.514 520.348,477.897C522.303,564.544 520.348,582.869 520.348,582.869L447.172,582.869C447.172,582.869 446.114,564.197 445.526,536.771C349.203,538.093 342.138,514.955 336.757,395.602C336.757,395.602 369.31,322.831 390.369,393.65C399.177,427.438 379.415,491.019 459.317,486.371C460.174,410.884 453.42,319.759 483.682,317.973C521.047,315.768 508.532,365.977 513.208,421.284Z" style="fill:white;"/>
                        </g>
                    </g>
                    <path d="M688.812,223.277C690.545,214.238 692.146,205.175 693.627,196.092C694.217,192.475 694.789,188.855 695.344,185.232C695.514,184.118 695.683,183.003 695.851,181.889C695.907,181.514 695.963,181.14 696.019,180.765C696.075,180.389 696.124,180.012 696.187,179.637C696.187,179.632 696.292,179.241 696.293,179.235C696.347,179.036 696.401,178.837 696.455,178.637C696.616,178.049 696.781,177.462 696.952,176.876C697.509,174.964 698.12,173.067 698.795,171.193C700.33,166.93 702.193,162.766 704.545,158.888C706.344,155.924 708.436,153.123 710.892,150.67C713.023,148.541 715.431,146.682 718.09,145.259C719.827,144.328 721.666,143.587 723.566,143.064C724.852,142.711 726.164,142.456 727.489,142.302C728.439,142.191 729.394,142.132 730.351,142.121C735.822,142.061 741.215,143.615 746.065,146.085C746.801,146.459 747.525,146.855 748.238,147.271C749.075,147.759 749.895,148.274 750.699,148.815C751.794,149.551 752.859,150.334 753.89,151.158C755.193,152.199 756.443,153.307 757.634,154.474C759.206,156.012 760.678,157.654 762.032,159.388C763.827,161.686 765.419,164.149 766.727,166.757C768.463,170.218 769.726,173.977 770.06,177.85C770.114,178.469 770.142,179.09 770.145,179.712C770.145,179.935 770.143,180.158 770.136,180.381C770.133,180.492 770.126,180.603 770.124,180.714C770.118,181.077 770.113,181.441 770.107,181.805C770.082,183.249 770.056,184.692 770.028,186.135C769.986,188.264 769.939,190.393 769.888,192.522L769.873,193.135C770.712,192.976 771.649,192.793 772.692,192.564C781.938,190.533 788.701,189.764 790.753,198.914C792.805,208.064 782.507,210.167 773.262,212.198C771.548,212.575 770.24,212.782 769.233,212.813C768.682,226.323 767.928,238.851 766.981,250.487C768.203,250.739 769.699,251.074 771.552,251.403C780.874,253.058 787.414,254.93 785.741,264.155C784.112,273.145 774.267,271.484 765.14,269.863C762.712,291.973 759.481,310.351 755.56,325.703C764.429,327.327 770.527,329.36 768.906,338.303C767.375,346.745 758.603,345.796 749.981,344.306C738.823,376.05 723.72,391.239 706.324,400.652C712.827,405.411 716.569,409.702 711.627,416.642C706.171,424.303 697.667,418.182 689.926,412.783C687.84,411.328 686.598,410.261 686.003,409.328C672.275,414.131 656.353,413.597 642.507,421.709C642.621,421.932 642.739,422.161 642.862,422.395C647.223,430.715 649.713,436.985 641.307,441.301C635.421,444.323 631.351,440.667 627.943,435.348C626.695,437.128 625.487,439.071 624.326,441.191C624.854,453.138 625.304,464.925 625.689,476.412C631.732,476.351 635.841,478.026 636.646,485.088C637.389,491.598 632.498,494.053 626.272,495.3C626.8,513.992 627.16,531.674 627.402,547.73C632.313,548.082 635.594,550.12 636.305,556.349C636.978,562.251 633.022,564.82 627.639,566.177C627.931,593.653 627.881,614.62 627.82,625.105L706.099,633.809C706.099,633.809 776.587,875.368 619.699,932.378C600.819,939.239 541.206,937.743 541.206,937.743C541.206,937.743 488.995,939.053 466.912,927.636C334.236,859.048 419.388,602.33 419.711,601.963L498.04,610.673C497.423,596.178 496.66,575.244 496.118,550.232C460.338,550.718 431.073,547.228 407.123,539.951C404.929,548.323 402.168,556.591 393.782,554.48C384.603,552.17 385.587,545.503 387.921,536.42C388.238,535.187 388.484,534.102 388.695,533.155C372.373,525.95 359.042,516.515 348.157,504.943C342.259,510.795 335.992,515.861 330.058,510.144C323.272,503.606 327.488,498.317 334.094,491.601C334.794,490.89 335.41,490.236 335.961,489.643C328.147,478.06 322.013,464.887 317.199,450.189C309.195,452.174 301.343,453.224 299.24,445.392C296.837,436.447 303.012,433.997 311.982,431.618C308.914,418.793 306.606,404.99 304.868,390.234C297.109,390.035 290.049,388.764 290.034,381.086C290.019,372.843 295.253,371.298 302.959,371.034C301.665,355.415 300.867,338.85 300.374,321.372C293.539,318.258 287.905,314.399 290.821,307.495C292.939,302.481 296.021,301.026 299.94,301.393C299.923,300.338 299.907,299.265 299.891,298.189C299.43,266.266 350.083,193.943 387.845,295.688C390.742,303.493 392.181,314.595 393.531,327.39C401.342,324.301 407.204,323.206 410.595,331.233C414.248,339.88 404.487,343.75 395.75,347.365L395.634,347.413C396.917,358.72 398.581,370.597 401.339,382.215C407.471,380.233 412.138,380.466 415.02,387.289C417.741,393.729 413.021,397.52 406.824,400.529L406.897,400.723C408.29,404.431 409.848,408.077 411.614,411.623C414.163,416.741 417.141,421.653 420.603,426.207C423.93,430.582 427.703,434.617 431.885,438.186C436.107,441.788 440.734,444.904 445.643,447.492C452.002,450.845 458.806,453.303 465.783,455.009C473.273,456.841 480.957,457.818 488.653,458.188C490.404,458.272 492.156,458.325 493.908,458.348C494.356,458.355 494.804,458.359 495.253,458.361C495.365,458.361 495.566,458.472 495.591,458.362C495.707,457.848 495.603,457.309 495.61,456.782C495.622,455.726 495.636,454.67 495.65,453.614C495.7,449.896 495.759,446.178 495.827,442.46C496.025,431.706 496.301,420.954 496.663,410.204L496.687,409.513C495.869,409.632 494.882,409.713 493.694,409.768C484.234,410.205 473.74,410.844 473.298,401.482C472.856,392.12 479.587,391.108 489.047,390.671C493.549,390.463 496.027,389.96 497.437,390.499C498.122,375.185 499.011,359.922 500.143,344.962C490.793,345.397 480.596,345.883 480.161,336.658C479.719,327.296 486.45,326.284 495.91,325.847C498.455,325.729 500.353,325.517 501.777,325.453C503.191,310.148 504.889,295.291 506.917,281.165C506.303,281.08 505.616,280.962 504.848,280.813C495.555,279.008 485.208,277.156 487.031,267.96C488.855,258.763 495.635,259.366 504.928,261.171C506.998,261.573 508.653,261.807 509.954,262.031C511.899,250.93 514.085,240.421 516.539,230.666C515.504,230.518 514.148,230.097 512.327,229.392C503.507,225.978 493.659,222.331 497.109,213.603C500.558,204.875 507.122,206.664 515.941,210.077C518.528,211.079 520.459,211.668 521.81,212.221C532.031,180.807 545.999,160.699 564.954,159.592C604.369,157.29 613.019,186.981 615.092,231.78C616.184,231.902 617.469,232.049 618.986,232.169C628.427,232.916 629.755,230.99 629,240.332C628.296,249.038 624.522,251.936 615.639,251.255C615.853,265.793 615.778,281.475 616.062,297.849C617.153,298.079 618.44,298.355 619.972,298.627C629.293,300.282 630.469,300.048 628.797,309.273C627.348,317.268 624.767,318.946 616.607,317.613C616.952,326.303 617.461,335.136 618.222,344.043C619.986,364.691 646.781,370.362 672.143,290.959C662.769,290.174 657.828,289.381 658.623,280.122C659.424,270.783 660.866,270.652 670.303,271.445C673.902,271.747 676.237,271.694 677.705,272.029C680.139,263.048 682.54,253.21 684.885,242.453C683.79,242.403 682.278,241.965 680.102,241.123C671.282,237.709 661.434,234.063 664.884,225.335C668.334,216.607 674.897,218.395 683.717,221.809C685.808,222.619 687.47,223.159 688.744,223.628L688.812,223.277Z" style="fill:none;stroke:white;stroke-width:35.04px;"/>
                </g>
            </g>
            <g id="Layer11" serif:id="Layer1" transform="matrix(1.70087,0,0,1.70087,-260.997,-362.625)">
                <g transform="matrix(1,0,0,1,1.08323,0)">
                    <path d="M513.208,421.284C514.514,436.731 540.572,437.213 556.424,329.2C566.478,290.653 598.104,313.924 597.408,329.803C595.763,434.334 575.962,448.946 550.78,457.85C539.481,461.845 525.501,459.249 516.592,475.697C519.073,532.501 518.496,582.869 518.496,582.869L447.172,582.869C447.172,582.869 446.114,564.197 445.526,536.771C349.203,538.093 338.064,486.882 336.757,395.602C336.502,377.721 364.579,337.213 385.51,394.2C393.599,416.223 381.175,485.122 445.234,485.315C446.091,409.828 453.42,319.759 483.682,317.973C521.047,315.768 508.532,365.977 513.208,421.284Z" style="fill:none;"/>
                    <clipPath id="_clip2">
                        <path d="M513.208,421.284C514.514,436.731 540.572,437.213 556.424,329.2C566.478,290.653 598.104,313.924 597.408,329.803C595.763,434.334 575.962,448.946 550.78,457.85C539.481,461.845 525.501,459.249 516.592,475.697C519.073,532.501 518.496,582.869 518.496,582.869L447.172,582.869C447.172,582.869 446.114,564.197 445.526,536.771C349.203,538.093 338.064,486.882 336.757,395.602C336.502,377.721 364.579,337.213 385.51,394.2C393.599,416.223 381.175,485.122 445.234,485.315C446.091,409.828 453.42,319.759 483.682,317.973C521.047,315.768 508.532,365.977 513.208,421.284Z"/>
                    </clipPath>
                    <g clip-path="url(#_clip2)">
                        <g transform="matrix(1.05056,0,0,1.04563,-22.4897,-26.5949)">
                            <path d="M513.208,421.284C514.514,436.731 556.973,449.418 556.424,329.2C580.74,289.726 604.097,330.155 604.097,330.155C606.938,438.595 572.149,453.565 546.967,462.469C535.667,466.464 528.035,465.476 518.686,482.536C508.786,500.604 518.496,582.869 518.496,582.869L447.172,582.869C447.172,582.869 446.114,564.197 445.526,536.771C349.203,538.093 342.138,514.955 336.757,395.602C336.757,395.602 356.369,342.036 390.369,393.65C396.368,459.752 392.234,454.818 445.234,485.315C446.091,409.828 453.42,319.759 483.682,317.973C521.047,315.768 508.532,365.977 513.208,421.284Z" style="fill:rgb(50,99,0);"/>
                        </g>
                        <g transform="matrix(1,0,0,1,-14.0562,0)">
                            <path d="M513.208,421.284C514.514,436.731 560.517,458.004 556.424,329.2C580.74,289.726 604.028,314.261 604.097,330.155C604.578,440.178 578.155,443.569 552.973,452.473C541.674,456.468 520.023,463.514 520.348,477.897C522.303,564.544 520.348,582.869 520.348,582.869L447.172,582.869C447.172,582.869 446.114,564.197 445.526,536.771C349.203,538.093 342.138,514.955 336.757,395.602C336.757,395.602 369.31,322.831 390.369,393.65C399.177,427.438 379.415,491.019 459.317,486.371C460.174,410.884 453.42,319.759 483.682,317.973C521.047,315.768 508.532,365.977 513.208,421.284Z" style="fill:rgb(165,215,0);"/>
                        </g>
                    </g>
                </g>
                <g transform="matrix(0.456189,-0.00085998,0.00085998,0.456189,182.023,225.936)">
                    <path d="M348.426,461.951C359.933,461.951 360.672,459.848 360.672,471.355C360.672,482.862 364.481,485.635 352.974,485.635C341.467,485.635 328.692,485.825 328.692,474.318C328.692,462.81 336.919,461.951 348.426,461.951Z" style="fill:rgb(165,215,0);"/>
                </g>
                <g transform="matrix(0.424848,0.166172,-0.166172,0.424848,386.332,92.0923)">
                    <path d="M348.426,461.951C359.933,461.951 360.672,459.848 360.672,471.355C360.672,482.862 364.481,485.635 352.974,485.635C341.467,485.635 328.692,485.825 328.692,474.318C328.692,462.81 336.919,461.951 348.426,461.951Z" style="fill:rgb(165,215,0);"/>
                </g>
                <g transform="matrix(0.424848,0.166172,-0.166172,0.424848,479.33,98.6633)">
                    <path d="M348.426,461.951C359.933,461.951 360.672,459.848 360.672,471.355C360.672,482.862 364.481,485.635 352.974,485.635C341.467,485.635 328.692,485.825 328.692,474.318C328.692,462.81 336.919,461.951 348.426,461.951Z" style="fill:rgb(165,215,0);"/>
                </g>
                <g transform="matrix(0.454554,0.0385919,-0.0385919,0.454554,402.609,157.194)">
                    <path d="M348.426,461.951C359.933,461.951 360.672,459.848 360.672,471.355C360.672,482.862 364.481,485.635 352.974,485.635C341.467,485.635 328.692,485.825 328.692,474.318C328.692,462.81 336.919,461.951 348.426,461.951Z" style="fill:rgb(165,215,0);"/>
                </g>
                <g transform="matrix(0.447652,0.0878432,-0.0878432,0.447652,336.098,137.467)">
                    <path d="M348.426,461.951C359.933,461.951 360.672,459.848 360.672,471.355C360.672,482.862 364.481,485.635 352.974,485.635C341.467,485.635 328.692,485.825 328.692,474.318C328.692,462.81 336.919,461.951 348.426,461.951Z" style="fill:rgb(165,215,0);"/>
                </g>
                <g transform="matrix(0.455693,-0.0212764,0.0212764,0.455693,277.89,207.998)">
                    <path d="M348.426,461.951C359.933,461.951 360.672,459.848 360.672,471.355C360.672,482.862 364.481,485.635 352.974,485.635C341.467,485.635 328.692,485.825 328.692,474.318C328.692,462.81 336.919,461.951 348.426,461.951Z" style="fill:rgb(165,215,0);"/>
                </g>
                <g transform="matrix(0.455693,-0.0212764,0.0212764,0.455693,274.085,244.306)">
                    <path d="M348.426,461.951C359.933,461.951 360.672,459.848 360.672,471.355C360.672,482.862 364.481,485.635 352.974,485.635C341.467,485.635 328.692,485.825 328.692,474.318C328.692,462.81 336.919,461.951 348.426,461.951Z" style="fill:rgb(165,215,0);"/>
                </g>
                <g transform="matrix(0.42089,0.175956,-0.175956,0.42089,277.929,143.342)">
                    <path d="M348.426,461.951C359.933,461.951 360.672,459.848 360.672,471.355C360.672,482.862 364.481,485.635 352.974,485.635C341.467,485.635 328.692,485.825 328.692,474.318C328.692,462.81 336.919,461.951 348.426,461.951Z" style="fill:rgb(165,215,0);"/>
                </g>
                <g transform="matrix(-0.42089,0.175956,0.175956,0.42089,454.088,156.638)">
                    <path d="M348.426,461.951C359.933,461.951 360.672,459.848 360.672,471.355C360.672,482.862 364.481,485.635 352.974,485.635C341.467,485.635 328.692,485.825 328.692,474.318C328.692,462.81 336.919,461.951 348.426,461.951Z" style="fill:rgb(50,99,0);"/>
                </g>
                <g transform="matrix(-0.454736,-0.036387,-0.036387,0.454736,689.966,161.236)">
                    <path d="M348.426,461.951C359.933,461.951 360.672,459.848 360.672,471.355C360.672,482.862 364.481,485.635 352.974,485.635C341.467,485.635 328.692,485.825 328.692,474.318C328.692,462.81 336.919,461.951 348.426,461.951Z" style="fill:rgb(50,99,0);"/>
                </g>
                <g transform="matrix(-0.449022,-0.0805488,-0.0805488,0.449022,708.922,216.486)">
                    <path d="M348.426,461.951C359.933,461.951 360.672,459.848 360.672,471.355C360.672,482.862 364.481,485.635 352.974,485.635C341.467,485.635 328.692,485.825 328.692,474.318C328.692,462.81 336.919,461.951 348.426,461.951Z" style="fill:rgb(50,99,0);"/>
                </g>
                <g transform="matrix(-0.449022,-0.0805488,-0.0805488,0.449022,783.611,231.566)">
                    <path d="M348.426,461.951C359.933,461.951 360.672,459.848 360.672,471.355C360.672,482.862 364.481,485.635 352.974,485.635C341.467,485.635 328.692,485.825 328.692,474.318C328.692,462.81 336.919,461.951 348.426,461.951Z" style="fill:rgb(50,99,0);"/>
                </g>
                <g transform="matrix(-0.372882,-0.262808,-0.262808,0.372882,813.283,371.465)">
                    <path d="M348.426,461.951C359.933,461.951 360.672,459.848 360.672,471.355C360.672,482.862 364.481,485.635 352.974,485.635C341.467,485.635 328.692,485.825 328.692,474.318C328.692,462.81 336.919,461.951 348.426,461.951Z" style="fill:rgb(50,99,0);"/>
                </g>
                <g transform="matrix(-0.210075,-0.404942,-0.404942,0.210075,788.208,509.218)">
                    <path d="M348.426,461.951C359.933,461.951 360.672,459.848 360.672,471.355C360.672,482.862 364.481,485.635 352.974,485.635C341.467,485.635 328.692,485.825 328.692,474.318C328.692,462.81 336.919,461.951 348.426,461.951Z" style="fill:rgb(50,99,0);"/>
                </g>
                <g transform="matrix(-0.45331,0.0511764,0.0511764,0.45331,649.23,268.449)">
                    <path d="M348.426,461.951C359.933,461.951 360.672,459.848 360.672,471.355C360.672,482.862 364.481,485.635 352.974,485.635C341.467,485.635 328.692,485.825 328.692,474.318C328.692,462.81 336.919,461.951 348.426,461.951Z" style="fill:rgb(50,99,0);"/>
                </g>
                <g transform="matrix(-0.45331,0.0511764,0.0511764,0.45331,649.04,308.363)">
                    <path d="M348.426,461.951C359.933,461.951 360.672,459.848 360.672,471.355C360.672,482.862 364.481,485.635 352.974,485.635C341.467,485.635 328.692,485.825 328.692,474.318C328.692,462.81 336.919,461.951 348.426,461.951Z" style="fill:rgb(50,99,0);"/>
                </g>
                <g transform="matrix(-0.449022,-0.0805488,-0.0805488,0.449022,792.943,190.035)">
                    <path d="M348.426,461.951C359.933,461.951 360.672,459.848 360.672,471.355C360.672,482.862 364.481,485.635 352.974,485.635C341.467,485.635 328.692,485.825 328.692,474.318C328.692,462.81 336.919,461.951 348.426,461.951Z" style="fill:rgb(50,99,0);"/>
                </g>
                <g transform="matrix(-0.445352,0.0988484,0.0988484,0.445352,709.423,96.2684)">
                    <path d="M348.426,461.951C359.933,461.951 360.672,459.848 360.672,471.355C360.672,482.862 364.481,485.635 352.974,485.635C341.467,485.635 328.692,485.825 328.692,474.318C328.692,462.81 336.919,461.951 348.426,461.951Z" style="fill:rgb(50,99,0);"/>
                </g>
                <g transform="matrix(-0.42089,0.175956,0.175956,0.42089,456.541,188.035)">
                    <path d="M348.426,461.951C359.933,461.951 360.672,459.848 360.672,471.355C360.672,482.862 364.481,485.635 352.974,485.635C341.467,485.635 328.692,485.825 328.692,474.318C328.692,462.81 336.919,461.951 348.426,461.951Z" style="fill:rgb(50,99,0);"/>
                </g>
                <g transform="matrix(0.440877,-0.117204,0.117204,0.440877,136.975,307.458)">
                    <path d="M348.426,461.951C359.933,461.951 360.672,459.848 360.672,471.355C360.672,482.862 364.481,485.635 352.974,485.635C341.467,485.635 328.692,485.825 328.692,474.318C328.692,462.81 336.919,461.951 348.426,461.951Z" style="fill:rgb(165,215,0);"/>
                </g>
                <g transform="matrix(0.318224,-0.326868,0.326868,0.318224,94.9249,470.818)">
                    <path d="M348.426,461.951C359.933,461.951 360.672,459.848 360.672,471.355C360.672,482.862 364.481,485.635 352.974,485.635C341.467,485.635 328.692,485.825 328.692,474.318C328.692,462.81 336.919,461.951 348.426,461.951Z" style="fill:rgb(165,215,0);"/>
                </g>
                <g transform="matrix(0.112448,-0.442114,0.442114,0.112448,143.221,631.134)">
                    <path d="M348.426,461.951C359.933,461.951 360.672,459.848 360.672,471.355C360.672,482.862 364.481,485.635 352.974,485.635C341.467,485.635 328.692,485.825 328.692,474.318C328.692,462.81 336.919,461.951 348.426,461.951Z" style="fill:rgb(165,215,0);"/>
                </g>
                <g transform="matrix(1,0,0,1,0,0.713645)">
                    <path d="M404.257,565.032C404.078,565.237 356.878,709.026 430.42,747.442C442.661,753.837 471.602,753.103 471.602,753.103C471.602,753.103 504.645,753.941 515.11,750.098C602.073,718.167 563.002,582.869 563.002,582.869L404.257,565.032Z" style="fill:white;"/>
                    <clipPath id="_clip3">
                        <path d="M404.257,565.032C404.078,565.237 356.878,709.026 430.42,747.442C442.661,753.837 471.602,753.103 471.602,753.103C471.602,753.103 504.645,753.941 515.11,750.098C602.073,718.167 563.002,582.869 563.002,582.869L404.257,565.032Z"/>
                    </clipPath>
                    <g clip-path="url(#_clip3)">
                        <g>
                            <g transform="matrix(0.930303,0.366791,-0.366791,0.930303,307.063,-159.582)">
                                <rect x="519.302" y="666.403" width="52.452" height="52.452" style="fill:rgb(100,100,100);fill-opacity:0.41;"/>
                            </g>
                            <g transform="matrix(1,0,0,1,-17.3165,108.006)">
                                <path d="M404.257,565.032C404.078,565.237 356.878,709.026 430.42,747.442C442.661,753.837 471.602,753.103 471.602,753.103C471.602,753.103 504.645,753.941 515.11,750.098C602.073,718.167 588.269,585.708 588.269,585.708L404.257,565.032Z" style="fill:rgb(81,122,223);"/>
                            </g>
                            <g transform="matrix(-1.06342,0.00438609,-0.00412447,-0.999991,1007.88,1232.69)">
                                <path d="M404.257,565.032C404.078,565.237 356.878,709.026 430.42,747.442C442.661,753.837 471.602,753.103 471.602,753.103C471.602,753.103 504.645,753.941 515.11,750.098C602.073,718.167 588.269,585.708 588.269,585.708L404.257,565.032Z" style="fill:rgb(81,122,223);"/>
                            </g>
                            <g transform="matrix(1,0,0,1,148.421,13.9244)">
                                <g transform="matrix(1,0,0,1,-17.3165,108.006)">
                                    <path d="M399.281,567.058C383.172,596.448 359.458,643.496 267.289,699.697C255.498,706.887 471.602,753.103 471.602,753.103C471.602,753.103 504.645,753.941 515.11,750.098C602.073,718.167 588.269,585.708 588.269,585.708L399.281,567.058Z" style="fill:rgb(0,46,158);"/>
                                </g>
                                <g transform="matrix(-1.06342,0.00438609,-0.00412447,-0.999991,1009.59,1234.2)">
                                    <path d="M404.257,565.032C404.078,565.237 356.878,709.026 430.42,747.442C442.661,753.837 471.602,753.103 471.602,753.103C471.602,753.103 506.272,757.246 515.11,750.098C553.953,718.684 557.192,638.944 578.886,585.706L404.257,565.032Z" style="fill:rgb(0,46,158);"/>
                                </g>
                            </g>
                            <g id="Layer2" transform="matrix(0.587934,0,0,0.587934,153.449,213.199)">
                                <path d="M430.366,657.606C429.701,668.448 426.329,682.742 429.498,693.856C430.365,696.897 432.301,700.947 435.733,702.061C440.849,703.722 444.752,698.716 446.703,694.725C450.591,686.771 449.41,678.268 450.631,669.739C451.573,663.162 452.513,656.543 454.351,650.158C456.668,642.109 467.846,643.855 473.513,644.027C477.368,644.144 486.812,646.819 487.28,639.677C487.394,637.939 484.699,636.316 483.5,635.887C478.201,633.99 472.83,632.297 467.437,630.689C456.816,627.521 439.846,623.65 433.25,635.837" style="fill:rgb(237,250,255);fill-opacity:0.88;"/>
                            </g>
                        </g>
                    </g>
                </g>
            </g>
        </g>
    </g>
    <g transform="matrix(0.718637,0,0,0.718637,227.173,73.463)">
        <g transform="matrix(0.449554,0,0,0.449554,735.205,-136.008)">
            <path d="M593.072,575.085C593.105,591.068 593.162,594.999 593.162,594.999L564.809,594.999C564.809,594.999 571.897,624.534 564.809,630.441C557.721,636.347 529.368,636.347 522.279,630.441C515.191,624.534 522.279,594.999 522.279,594.999L486.838,594.999L486.838,481.588C486.838,481.588 562.727,414.24 593.162,462.614C593.129,477.145 593.105,490.12 593.087,501.698L519.692,538.396L593.072,575.085Z" style="fill:white;fill-opacity:0.76;"/>
        </g>
        <g transform="matrix(0.734937,0,0,0.734937,841.956,-204.129)">
            <path d="M217.67,409.46C217.665,419.717 217.669,427.843 217.677,434.257L192.878,421.857L217.67,409.46Z" style="fill:white;fill-opacity:0.76;"/>
        </g>
    </g>
</svg>
