<?xml version="1.0" encoding="UTF-8" standalone="no"?>
<!DOCTYPE svg PUBLIC "-//W3C//DTD SVG 1.1//EN" "http://www.w3.org/Graphics/SVG/1.1/DTD/svg11.dtd">
<svg width="100%" height="100%" viewBox="0 0 1080 1080" version="1.1" xmlns="http://www.w3.org/2000/svg" xmlns:xlink="http://www.w3.org/1999/xlink" xml:space="preserve" xmlns:serif="http://www.serif.com/" style="fill-rule:evenodd;clip-rule:evenodd;stroke-linecap:round;stroke-linejoin:round;stroke-miterlimit:1.5;">
    <g transform="matrix(0.67203,0,0,0.729839,124.686,90.4194)">
        <rect x="-190" y="-128" width="1616" height="1488" style="fill:rgb(193,130,171);"/>
    </g>
    <g transform="matrix(0.718637,0,0,0.718637,227.173,73.463)">
        <g transform="matrix(0.449554,0,0,0.449554,735.205,-136.008)">
            <path d="M593.072,575.085C593.105,591.068 593.162,594.999 593.162,594.999L564.809,594.999C564.809,594.999 571.897,624.534 564.809,630.441C557.721,636.347 529.368,636.347 522.279,630.441C515.191,624.534 522.279,594.999 522.279,594.999L486.838,594.999L486.838,481.588C486.838,481.588 562.727,414.24 593.162,462.614C593.129,477.145 593.105,490.12 593.087,501.698L519.692,538.396L593.072,575.085Z" style="fill:white;fill-opacity:0.76;"/>
        </g>
        <g transform="matrix(0.734937,0,0,0.734937,841.956,-204.129)">
            <path d="M217.67,409.46C217.665,419.717 217.669,427.843 217.677,434.257L192.878,421.857L217.67,409.46Z" style="fill:white;fill-opacity:0.76;"/>
        </g>
    </g>
    <g transform="matrix(0.554914,0,0,0.554914,222.838,248.441)">
        <g id="Layer1">
            <path d="M649.216,149.676C607.901,138.653 563.598,147.542 521.956,151.444C494.469,154.019 465.884,150.814 438.892,157.78C389.526,170.52 288.092,231.805 264.332,277.818C246.176,312.978 193.71,364.427 181.489,401.907C149.315,500.574 150.131,593.536 188.311,695.724C218.171,775.644 291.308,884.826 376.958,922.008C454.197,955.54 592.11,978.264 673.422,963.525C818.809,937.171 948.145,774.065 983.878,621.204C991.483,588.671 979.645,545.418 981.698,512.639C984.166,473.228 974.07,454.778 962.804,415.333C957.344,396.219 944.306,387.375 947.655,368.017C953.854,332.187 995.421,254.355 984.726,237.73C974.785,222.275 909.961,258.205 864.413,255.967C854.103,255.461 844.781,241.13 837.306,237.246C818.494,227.471 741.089,138.706 722.701,128.368C690.906,110.492 710.406,119.788 676.055,138.533" style="fill:rgb(254,250,224);"/>
        </g>
        <g id="Layer2">
            <path d="M757.511,935.52C734.261,925.78 678.151,912.057 644.926,883.87C611.917,855.867 601.743,813.354 593.803,817.354C580.316,824.148 579.761,869.909 596.971,908.11C611.202,939.701 641.692,964.856 650.469,969.791" style="fill:rgb(188,108,37);"/>
            <g transform="matrix(0.731461,0.358617,-0.394794,0.805251,324.392,-65.6961)">
                <path d="M757.511,935.52C735.63,926.353 693.152,907.63 661.51,880.794C643.336,865.38 609.747,832.857 602.338,835.199C598.563,836.392 606.539,877.959 627.977,910.877C645.766,938.191 676.944,957.716 680.924,959.953" style="fill:rgb(188,108,37);"/>
            </g>
            <g transform="matrix(0.916478,-0.400085,0.400085,0.916478,-129.774,224.803)">
                <path d="M752.296,929.97C732.248,921.571 677.403,916.209 649.228,892.659C612.267,861.766 602.843,812.799 593.803,817.354C580.941,823.833 569.281,870.889 585.227,907.554C599.831,941.132 641.2,964.579 650.469,969.791" style="fill:rgb(188,108,37);"/>
            </g>
            <path d="M394.827,187.257C433.328,171.129 465.073,265.578 466.78,292.821C468.065,313.338 462.408,335.732 465.861,355.919C466.074,357.167 466.772,357.235 467.961,357.1C484.584,355.207 499.983,353.919 509.145,343.949C524.582,327.15 529.393,296.736 544.148,277.687C569.484,244.978 608.849,222.099 644.199,202.224C652.862,197.354 667.07,166.982 663.303,157.452C661.729,153.469 629.604,155.201 617.184,150.089C583.364,136.168 542.783,144.077 509.003,146.338C496.907,147.148 483.511,152.581 471.539,154.315C458.356,156.224 442.81,165.385 433.429,174.468" style="fill:rgb(188,108,37);"/>
            <path d="M792.175,231.42C759.775,230.451 708.007,241.042 701.039,270.088C696.045,290.904 731.084,329.467 734.009,341.8C741.768,374.521 704.288,416.281 735.65,440.055C810.658,496.916 837.287,388.347 897.839,427.783C904.146,431.89 944.632,471.499 955.326,530C966.869,593.153 948.324,676.67 945.662,714.498C1019.36,680.205 974.797,452.751 948.947,392.294C939.302,369.734 929.101,351.417 916.368,331.879C912.549,326.018 904.401,318.598 902.412,311.2C893.382,277.612 951.264,264.146 944.188,250.078C940.001,241.755 878.193,254.469 864.817,255.006C838.487,256.063 819.638,232.242 792.175,231.42Z" style="fill:rgb(188,108,37);"/>
            <path d="M503.512,356.869C490.123,350.175 477.308,354.045 465.068,360.165C462.447,361.475 460.838,366.683 459.21,368.952C456.977,372.064 454.126,374.766 451.888,378.105C450.758,379.79 450.744,382.425 450.057,384.329C448.902,387.529 447.713,390.335 447.128,393.848C446.863,395.436 434.121,414.928 433.866,425.417C433.722,431.368 453.156,439.406 472.293,440.069C490.787,440.71 509.003,434.134 509.003,430.827C509.003,423.144 506.419,416.029 505.342,408.494C505.055,406.484 505.983,403.825 505.342,401.903C504.531,399.469 502.413,396.901 502.413,394.215" style="fill:rgb(188,108,37);"/>
            <g transform="matrix(0.879544,0.475817,-0.475817,0.879544,320.158,-153.103)">
                <path d="M432.897,532.215C407.686,501.589 414.209,508.542 386.9,479.759C383.857,476.552 380.396,473.766 377.028,470.903C375.878,469.925 373.541,468.357 371.806,468.912C368.202,470.065 363.562,473.754 360.962,476.368C351.679,485.703 340.756,494.633 342.033,509.142C342.756,517.348 341.45,521.757 338.395,530.256C336.119,536.585 334.457,539.46 329.811,541.739C327.569,542.839 325.731,544.705 324.121,546.614C314.524,557.991 315.851,577.21 318.378,590.415C322.096,609.841 327.477,630.375 339.482,646.614C341.911,649.9 347.096,683.27 349.727,686.398C353.662,691.076 367.416,708.75 367.416,708.75C367.416,708.75 368.084,631.23 384.909,585.852C400.859,542.835 433.017,531.821 432.897,532.215Z" style="fill:rgb(188,108,37);"/>
            </g>
        </g>
        <g id="Layer3">
            <g transform="matrix(1,0,0,1,166,-323)">
                <path d="M586.288,534.021C572.804,508.67 529.998,402.289 541.385,426.516C563.888,474.394 618.748,527.759 659.559,552.296C675.373,561.804 687.106,577.706 697.299,578.927C715.464,581.103 728.739,562.767 751.513,564.483C759.995,565.122 822.111,553.858 806.953,561.814C783.195,574.286 786.568,580.966 772.451,583.16C746.498,587.194 717.303,604.759 692.841,606.201C679.427,606.992 647.841,596.864 624.514,579.388C603.239,563.449 589.674,540.389 586.288,534.021Z" style="fill:rgb(254,250,190);fill-opacity:0.61;"/>
            </g>
            <path d="M899.375,315.498C900.035,319.761 903.357,323.449 904.186,327.914C906.701,341.471 960.012,538.543 946.566,611.454C933.61,681.708 893.443,752.45 866.581,786.426C788.701,884.929 656.551,962.083 661,965.571C664.581,968.379 835.418,918.817 861.388,850.788C866.635,837.041 917.233,779.639 928.395,769.793C940.737,758.906 955.592,725.307 959.609,709.901C967.723,678.782 970.249,646.881 976.638,615.493C983.921,579.707 997.303,542.069 991.665,504.877C989.104,487.98 986.758,470.163 980.886,454.036C976.11,440.921 967.758,429.4 963.085,416.263C957.365,400.184 938.892,356.017 925.99,344.733" style="fill:rgb(254,250,190);fill-opacity:0.61;"/>
        </g>
        <g id="Layer31" serif:id="Layer3" transform="matrix(1,0,0,1,-153.238,319.224)">
            <g transform="matrix(1,0,0,1,153.238,-319.224)">
                <path d="M852.612,556.911C853.45,557.992 852.467,560.11 851.928,560.958C849.929,564.101 835.6,578.538 830.949,582.551C805.137,604.826 770.929,618.038 740.945,625.079C705.263,633.457 665.891,629.028 631.437,617.688C608.714,610.209 588.241,598.104 569.548,582.814C548.974,565.985 529.182,541.522 516.705,518.289C490.579,469.644 481.478,409.314 503.426,354.637C503.733,353.872 504.838,356.543 504.961,357.357C505.28,359.47 505.193,361.626 505.215,363.763C505.273,369.353 505.181,374.944 505.201,380.535C505.245,393.561 504.778,402.341 507.382,415.205C511.591,436.003 524.016,453.831 532.261,472.988C538.6,487.715 541.086,504.922 551.921,517.511C557.627,524.14 563.713,530.466 570.173,536.363C597.774,561.564 631.231,580.372 667.217,590.534C689.301,596.771 712.579,602.205 735.721,599.423C752.575,597.397 766.805,587.009 782.078,580.755C787.011,578.735 792.344,577.861 797.395,576.153C815.859,569.911 834.236,563.411 852.612,556.911Z" style="fill:rgb(40,54,24);fill-opacity:0.54;"/>
            </g>
            <g transform="matrix(1,0,0,1,153.238,-319.224)">
                <path d="M422.854,435.322C414.008,439.718 414.188,452.933 414.036,460.728C413.573,484.495 419.054,547.507 456.463,612.615C495.195,680.024 526.649,714.662 547.916,735.208C570.142,756.681 592.767,779.26 621.567,791.895C629.425,795.343 639.305,797.55 646.88,792.129C648.411,791.033 648.569,788.343 647.501,786.936C642.74,780.662 639.573,779.004 632.957,774.98C607.687,759.611 580.887,746.032 560.192,724.36C542.099,705.412 531.829,680.501 517.351,659.1C498.957,631.91 475.853,607.537 461.476,577.684C455.172,564.595 451.622,550.838 447.525,536.993C443.147,522.198 441.839,519.21 439.367,503.945C438.678,499.69 437.483,495.377 437.945,491.091L422.854,435.322Z" style="fill:rgb(40,54,24);fill-opacity:0.65;"/>
            </g>
            <g transform="matrix(1,0,0,1,153.238,-319.224)">
                <path d="M199.892,741.164C198.479,741.814 196.868,738.482 196.579,737.965C195.022,735.179 193.389,732.432 191.983,729.568C189.789,725.102 187.477,720.668 185.785,715.989C181.779,704.915 177.938,693.757 174.913,682.376C170.218,664.714 166.686,646.762 162.645,628.939C154.35,592.358 144.215,554.152 148.067,516.288C150.53,492.086 159.912,469.569 168.211,446.96C172.437,435.445 176.988,424.042 180.817,412.389C187.198,392.969 190.095,375.323 200.643,357.781C213.467,336.451 225.974,314.874 240.244,294.483C248.929,282.071 275.555,256.281 286.188,245.703C301.925,230.048 317.244,212.625 337.354,202.266C378.369,181.137 422.688,167.462 467.42,156.778C517.134,144.904 570.036,133.868 620.7,147.108L601.083,147.595C599.56,151.128 607.5,148.095 611.774,150.122C620.101,147.19 625.783,148.926 626.647,148.105C629.012,145.857 632.793,145.395 635.813,146.014C644.555,147.806 655.121,150.028 659.995,158.594C663.386,164.552 658.118,171.717 654.721,175.947C642.457,191.212 625.86,202.034 611.488,215.047C587.729,236.559 564.212,258.343 541.011,280.454C533.886,287.244 533.738,298.022 531.162,306.714C527.153,320.244 522.832,334.839 512.652,345.27C505.82,352.27 495.201,352.607 486.633,355.712C473.88,360.333 467.38,363.703 457.253,372.83C450.122,379.255 443.032,388.748 438.538,397.199C432.671,408.233 429.732,421.652 420.129,430.468C403.171,446.036 381.203,454.794 364.903,471.188C353.228,482.931 352.255,487.482 342.009,500.348C338.016,505.362 333.448,509.898 329.406,514.874C324.8,520.545 318.353,529.166 316.589,536.521C314.694,544.418 318.132,552.633 315.382,560.401C307.949,581.399 305.751,580.518 300.189,602.03C296.425,616.586 301.283,631.697 302.847,646.056C303.547,652.477 302.838,659.048 304.029,665.397C304.636,668.632 306.936,671.311 308.159,674.368C311.704,683.228 310.186,684.251 316.556,691.731C320.239,696.056 325.632,698.831 328.902,703.475C332.256,708.24 327.715,710.98 323.23,709.26C272.949,689.973 267.624,624.778 274.276,578.959C275.649,569.503 277.671,560.105 280.507,550.981C292.266,513.135 316.212,479.908 346.033,454.17C354.046,447.253 362.432,440.731 371.215,434.822C382.822,427.012 397.665,423.105 406.84,411.803C423.138,391.729 431.37,366.371 449.088,347.307C459.874,335.702 477.263,334.012 487.578,321.833C501.683,305.181 504.052,282.732 515.945,264.869C536.405,234.138 564.262,209.609 598.385,195.106C602.106,193.524 613.278,193.044 617.089,191.999C623.246,190.312 627.572,185.244 629.76,179.47C630.516,177.475 633.154,169.761 629.326,167.963C611.045,159.377 590.008,159.189 570.33,159.095C508.963,158.803 451.086,183.204 399.446,214.6C359.219,239.056 323.693,270.905 292.089,305.598C257.743,343.301 228.099,385.27 209.215,432.879C186.533,490.064 178.249,551.213 177.727,612.486C177.358,655.872 184.383,700.57 199.892,741.164Z" style="fill:rgb(40,54,24);fill-opacity:0.65;"/>
            </g>
        </g>
        <path d="M973.968,250.449C962.496,252.008 951.414,257.769 941.562,263.553C932.863,268.658 923.689,274.274 917.152,282.136C915.262,284.409 914.146,287.173 912.738,289.747C908.808,296.932 906.239,303.506 905.921,311.844C905.795,315.151 905.95,318.685 907.235,321.778C911.326,331.628 922.225,336.093 928.839,343.75C932.1,347.526 937.763,355.17 943.853,352.847C947.556,351.434 950.49,345.418 952.27,342.416C954.52,338.621 956.039,334.515 957.979,330.569C959.481,327.513 961.443,324.697 962.88,321.612C964.505,318.12 965.674,314.561 967.919,311.38C970.687,307.456 972.711,303.309 975.089,299.155C978.31,293.53 982.043,287.96 984.211,281.805C985.249,278.859 985.284,275.571 986.119,272.547C987.346,268.105 989.639,259.357 986.642,255.322C985.563,253.87 984.068,253.513 982.625,252.604" style="fill:rgb(242,66,54);"/>
        <g transform="matrix(1,0,0,1,-265.843,-147.131)">
            <path d="M973.968,250.449C962.496,252.008 918.949,345.886 928.839,343.75C959.156,337.201 961.443,324.697 962.88,321.612C964.505,318.12 965.674,314.561 967.919,311.38C970.687,307.456 973.968,250.449 973.968,250.449Z" style="fill:rgb(242,66,54);"/>
        </g>
        <g transform="matrix(1,0,0,1,-16.4451,9.58432)">
            <path d="M985.636,240.424C981.114,241.241 961.998,257.988 957.78,259.767C954.157,261.295 950.382,263.072 947.297,265.552C944.75,267.6 925.812,273.696 929.329,276.823C929.458,276.937 959.093,266.757 971.54,274.279C983.262,281.364 977.818,306.185 978.605,306.06C982.576,305.433 986.073,277.755 988.37,274.736C990.151,272.397 997.083,250.692 997.761,247.771C998.539,244.42 997.453,240.327 993.883,239.159C992.522,238.714 991.088,238.834 989.689,239.022" style="fill:rgb(227,127,120);"/>
        </g>
        <g transform="matrix(-0.798841,0.601542,-0.601542,-0.798841,1374.33,726.501)">
            <path d="M621,396C651.014,442.689 670.374,781.252 532.92,834.206C507.416,844.031 480.135,836.171 465.266,817.258" style="fill:none;stroke:black;stroke-width:21.2px;"/>
        </g>
        <g transform="matrix(-0.798841,0.601542,-0.601542,-0.798841,1353.11,670.052)">
            <path d="M838,593.638C828.328,690.442 722.917,780.416 595.985,749.05" style="fill:none;stroke:black;stroke-width:21.2px;"/>
        </g>
        <g transform="matrix(-0.798841,0.601542,-0.601542,-0.798841,1328.01,664.99)">
            <path d="M322.758,379.171C439.212,379.171 533.758,473.717 533.758,590.171C533.758,706.625 426.724,796.106 310.402,790.573C277.356,789.001 230.494,771.287 217.493,759.631C217.493,759.631 183.39,794.194 162.114,825.183C146.232,809.764 156.881,697.716 156.881,697.716C150.861,686.359 130.521,617.115 130.14,605.033C100.647,602.181 23.949,563.846 19.86,548.897C13.145,524.351 128.87,473.046 133.486,461.788" style="fill:none;stroke:black;stroke-width:21.2px;"/>
        </g>
        <g transform="matrix(-0.798841,0.601542,-0.601542,-0.798841,1328.01,664.99)">
            <path d="M261.873,783.13L162.114,825.183" style="fill:none;stroke:black;stroke-width:21.2px;"/>
        </g>
        <g transform="matrix(0.992588,-0.121531,0.121531,0.992588,-28.9209,87.7167)">
            <path d="M982.824,277.385C941.487,279.919 918.979,297.465 896.619,329.82C920.215,367.482 931.513,408.203 931.513,408.203" style="fill:none;stroke:black;stroke-width:21.2px;"/>
        </g>
        <g transform="matrix(0.911378,-0.411569,0.411569,0.911378,83.8131,-9.4903)">
            <path d="M368.75,589.5C414.567,584.166 445.038,602.214 455.5,643.32" style="fill:none;stroke:black;stroke-width:21.2px;"/>
        </g>
        <g transform="matrix(0.939524,0.342482,-0.342482,0.939524,357.53,-425.98)">
            <path d="M418.669,595.424C436.934,603.774 449.503,619.76 455.5,643.32" style="fill:none;stroke:black;stroke-width:21.2px;"/>
        </g>
        <g transform="matrix(-0.69855,-0.298994,0.200752,-0.469024,794.69,817.487)">
            <path d="M454,507C454,507 483.167,548.667 479,557C474.833,565.333 433.167,565.333 429,557C424.833,548.667 454,507 454,507Z" style="stroke:black;stroke-width:41.3px;"/>
        </g>
        <g transform="matrix(-1.83224,1.37971,-1.37971,-1.83224,2196.62,441.779)">
            <path d="M419.535,349.807C424.218,326.498 433.612,304.178 446.939,284.47C457.703,268.552 471.106,254.298 486.319,242.561C501.668,230.719 518.963,221.291 537.293,214.95C558.552,207.597 574.063,205.746 596.5,205C674.101,202.419 746.282,259.119 768.879,331.85C776.103,355.098 778.512,379.727 776.067,403.944C768.259,481.302 709.468,547.65 633.292,563.203C607.701,568.428 579.804,568.204 554.335,562.437C521.835,555.079 491.937,538.012 468.645,514.153C463.639,509.025 460.051,505.11 457.054,501.495" style="fill:none;stroke:black;stroke-width:9.24px;"/>
        </g>
    </g>
</svg>
