<?xml version="1.0" encoding="UTF-8" standalone="no"?>
<!DOCTYPE svg PUBLIC "-//W3C//DTD SVG 1.1//EN" "http://www.w3.org/Graphics/SVG/1.1/DTD/svg11.dtd">
<svg width="100%" height="100%" viewBox="0 0 1080 1080" version="1.1" xmlns="http://www.w3.org/2000/svg" xmlns:xlink="http://www.w3.org/1999/xlink" xml:space="preserve" xmlns:serif="http://www.serif.com/" style="fill-rule:evenodd;clip-rule:evenodd;stroke-linecap:round;stroke-linejoin:round;stroke-miterlimit:1.5;">
    <rect x="-3" y="-3" width="1083" height="1083" style="fill:rgb(255,157,73);fill-opacity:0.69;"/>
    <g transform="matrix(1.38636,0,0,1,-461.932,-22.6685)">
        <ellipse cx="621" cy="860.331" rx="220" ry="22.669" style="fill-opacity:0.4;"/>
    </g>
    <g transform="matrix(1.21128,0,0,1.21128,-350.161,-176.978)">
        <g transform="matrix(0.829719,0,0,0.829719,117.918,142.638)">
            <rect x="669" y="776" width="61.663" height="61.663" style="fill:rgb(171,90,182);"/>
            <clipPath id="_clip1">
                <rect x="669" y="776" width="61.663" height="61.663"/>
            </clipPath>
            <g clip-path="url(#_clip1)">
                <g transform="matrix(1,0,0,1,-6.02613,-1.20523)">
                    <path d="M699.831,776L699.831,837.663" style="fill:none;stroke:rgb(255,37,0);stroke-width:7.25px;"/>
                </g>
                <g transform="matrix(1.20523,0,0,1.20523,-149.349,-172.249)">
                    <path d="M701.503,786.961C703.356,788.534 706.832,794.352 706.817,797.441C706.796,801.732 709.931,807.502 710.343,811.748C711.163,820.205 711.086,823.67 709.143,831.96C708.342,835.377 707.4,836.124 704.581,837.944C703.302,838.77 704.177,836.336 704.185,836.376C704.287,836.881 703.552,837.644 703.993,837.908C704.871,838.435 706.055,837.893 707.058,838.1C710.517,838.812 715.581,841.593 719.183,839.12C720.079,838.505 720.367,837.205 721.29,836.63C724.593,834.572 729.51,838.142 730.327,832.464C730.962,828.054 729.353,827.394 729.163,823.011C729.034,820.048 728.973,817.04 729.49,814.119C731.302,803.863 736.293,794.414 734.755,783.781C734.626,782.892 732.708,782.823 732.299,782.838C730.554,782.904 728.811,783.055 727.077,783.262C723.716,783.663 720.403,784.663 717.017,784.663L701.503,786.961Z" style="fill:white;fill-opacity:0.44;"/>
                </g>
                <g transform="matrix(1.20523,0,0,1.20523,-139.204,-170.466)">
                    <path d="M679.867,788.53C678.917,789.83 678.708,792.351 678.762,793.194C678.968,796.38 679.167,799.575 679.662,802.729C680.266,806.584 681.459,810.332 682.054,814.189C683.028,820.51 684.394,828.907 680.2,834.657C678.968,836.347 676.635,836.462 674.924,837.134C673.628,837.643 672.177,838.965 670.583,838.582C662.965,836.751 670.226,833.849 671.331,830.75C671.702,829.712 671.034,828.566 670.916,827.47C670.565,824.214 670.047,820.968 669.925,817.696C669.647,810.191 669.775,802.677 669.718,795.167C669.7,792.832 668.924,788.092 671.712,786.882C673.404,786.148 674.808,788.062 676.588,786.823C679.853,784.548 679.313,783.354 683.281,783.063" style="fill-opacity:0.54;"/>
                </g>
                <g id="Layer5" transform="matrix(1.20523,0,0,1.20523,-142.118,-171.911)">
                    <g transform="matrix(1,0,0,1,2,0)">
                        <path d="M708,794C708,794 715.996,791.279 716,809" style="fill:none;stroke:white;stroke-width:2.29px;"/>
                    </g>
                    <g transform="matrix(1,0,0,0.578947,-9,341.37)">
                        <path d="M690,804.636L690,815" style="fill:none;stroke:rgb(38,29,1);stroke-width:2.81px;"/>
                    </g>
                    <g transform="matrix(1,0,0,0.0964912,-9,722.785)">
                        <path d="M690,804.636L690,815" style="fill:none;stroke:rgb(38,29,1);stroke-width:3.23px;"/>
                    </g>
                    <g transform="matrix(1,0,0,0.578947,-9,356.507)">
                        <path d="M690,796L690,815" style="fill:none;stroke:rgb(38,29,1);stroke-width:2.81px;"/>
                    </g>
                </g>
            </g>
        </g>
        <g>
            <g transform="matrix(0.829719,0,0,0.829719,117.918,142.638)">
                <path d="M730.663,799.288L730.663,776L687.049,776" style="fill:none;stroke:rgb(38,29,1);stroke-width:5.52px;"/>
            </g>
            <g transform="matrix(0.829719,0,0,0.829719,117.918,142.638)">
                <path d="M677.557,776L669,776L669,814.611" style="fill:none;stroke:rgb(38,29,1);stroke-width:5.52px;"/>
            </g>
            <g transform="matrix(0.829719,0,0,0.829719,117.918,142.638)">
                <path d="M669,825.908L669,837.663L730.663,837.663L730.663,819.185" style="fill:none;stroke:rgb(38,29,1);stroke-width:5.52px;"/>
            </g>
            <g transform="matrix(0.829719,0,0,0.829719,117.918,142.638)">
                <path d="M730.663,809.897L730.663,808.576" style="fill:none;stroke:rgb(38,29,1);stroke-width:5.52px;"/>
            </g>
        </g>
        <g transform="matrix(1,0,0,1,-0.377399,0)">
            <g transform="matrix(1,0,0,1,1.6356,2.5)">
                <path d="M697.323,773C693.073,773 689.597,766 686.5,766C683.403,766 679.832,770.35 681,772C682.168,773.65 697.323,781 697.323,781C697.323,781 712.835,777.137 713,773C713.09,770.755 712.855,766.516 712,766C709.498,764.49 701.573,773 697.323,773Z" style="fill:rgb(255,37,0);"/>
                <clipPath id="_clip2">
                    <path d="M697.323,773C693.073,773 689.597,766 686.5,766C683.403,766 679.832,770.35 681,772C682.168,773.65 697.323,781 697.323,781C697.323,781 712.835,777.137 713,773C713.09,770.755 712.855,766.516 712,766C709.498,764.49 701.573,773 697.323,773Z"/>
                </clipPath>
                <g clip-path="url(#_clip2)">
                    <g transform="matrix(1,0,0,1,-1.2582,-2.5)">
                        <path d="M715.659,772.684C714.697,772.363 713.713,770.809 712.772,771.06C711.262,771.463 709.731,771.668 708.253,772.19C706.18,772.921 704.55,777.172 702.677,778.351C701.043,779.381 700.011,780.506 699.216,782.098C699.129,782.27 698.867,783.757 699.09,783.98C699.576,784.466 701.944,784.106 702.479,784.106C705.25,784.106 707.472,784.033 710.136,783.227C710.893,782.998 711.867,782.832 712.521,782.349C713.573,781.572 713.475,779.937 713.776,778.834C714.029,777.907 714.517,777.033 714.655,776.073C714.748,775.419 714.856,774.042 714.655,773.437C714.546,773.111 714.278,772.953 714.278,772.558" style="fill:white;fill-opacity:0.54;"/>
                    </g>
                    <g transform="matrix(1,0,0,1,-26.5574,-6.5)">
                        <path d="M715.659,772.684C714.697,772.363 713.713,770.809 712.772,771.06C711.262,771.463 709.731,771.668 708.253,772.19C706.18,772.921 703.724,775.521 701.852,776.7C700.217,777.729 700.011,780.506 699.216,782.098C699.129,782.27 698.867,783.757 699.09,783.98C699.576,784.466 701.944,784.106 702.479,784.106C705.25,784.106 707.472,784.033 710.136,783.227C710.893,782.998 711.867,782.832 712.521,782.349C713.573,781.572 713.475,779.937 713.776,778.834C714.029,777.907 714.517,777.033 714.655,776.073C714.748,775.419 714.856,774.042 714.655,773.437C714.546,773.111 714.278,772.953 714.278,772.558" style="fill-opacity:0.54;"/>
                    </g>
                </g>
            </g>
            <g transform="matrix(1,0,0,1,1.6356,2.5)">
                <path d="M697.581,772C693.331,772 689.597,765 686.5,765C683.403,765 677.832,770.35 679,772C680.168,773.65 696,784 696,784C696,784 712.333,777.167 715,774C717.037,771.581 714.903,765.333 712,765C709.097,764.667 701.831,772 697.581,772Z" style="fill:none;"/>
            </g>
        </g>
        <g transform="matrix(1,0,0,1,-0.377399,0)">
            <g transform="matrix(1,0,0,1,1.6356,2.5)">
                <path d="M713.217,768.484C711.822,767.071 709.512,767.048 707.83,767.867" style="fill:none;stroke:rgb(38,29,1);stroke-width:3.47px;"/>
            </g>
            <g transform="matrix(1,0,0,1,1.6356,2.5)">
                <path d="M707.83,767.867C704.928,769.28 702.03,772.189 697.675,772.189C693.32,772.189 691.812,766.571 687.772,765.262C684.593,764.232 679.939,770.462 682.302,772.826C686.919,777.442 691.986,778.124 697.651,780.698C700.37,779.973 703.096,779.256 705.753,778.329C707.265,777.802 710.489,776.285 712.537,774.326" style="fill:none;stroke:rgb(38,29,1);stroke-width:3.47px;"/>
            </g>
        </g>
    </g>
    <g transform="matrix(1.34286,0,0,1.34286,-87.1429,-441.843)">
        <circle cx="522.5" cy="543.5" r="17.5" style="fill:rgb(239,239,239);"/>
        <clipPath id="_clip3">
            <circle cx="522.5" cy="543.5" r="17.5"/>
        </clipPath>
        <g clip-path="url(#_clip3)">
            <g transform="matrix(0.744681,0,0,0.744681,58.7798,331.266)">
                <path d="M622.71,264.048C633.73,270.983 633.765,286.287 632.35,297.624C631.831,301.782 631.003,305.899 629.69,309.88C629.535,310.35 628.343,312.985 629.109,313.349C630.631,314.072 634.246,311.353 635.279,310.64C641.878,306.084 646.404,300.028 649.829,292.821C653.403,285.299 658.257,275.17 657.586,266.597C656.878,257.538 647.161,249.964 639.853,245.691" style="fill:rgb(239,239,239);fill-opacity:0.69;"/>
            </g>
        </g>
        <circle cx="522.5" cy="543.5" r="17.5" style="fill:none;stroke:rgb(38,29,1);stroke-width:4.91px;"/>
    </g>
    <g transform="matrix(1,0,0,1,164,24.5)">
        <circle cx="522.5" cy="543.5" r="17.5" style="fill:rgb(182,31,0);"/>
        <clipPath id="_clip4">
            <circle cx="522.5" cy="543.5" r="17.5"/>
        </clipPath>
        <g clip-path="url(#_clip4)">
            <g transform="matrix(1,0,0,1,-164,-24.5)">
                <path d="M685.651,552.133C688.99,552.578 690.664,557.008 691.514,559.751C693.505,566.17 693.319,571.945 689.768,577.816C688.482,579.941 686.07,581.642 685.188,583.972C684.567,585.615 686.756,586.324 687.949,586.324C690.95,586.324 694.141,584.319 696.667,582.91C707.725,576.738 712.017,564.97 704.938,554.218C703.203,551.583 700.214,546.82 696.656,546.231" style="fill:rgb(239,239,239);fill-opacity:0.69;"/>
            </g>
        </g>
        <circle cx="522.5" cy="543.5" r="17.5" style="fill:none;stroke:rgb(38,29,1);stroke-width:6.94px;"/>
    </g>
    <g transform="matrix(1.27662,0,0,1.27662,-174.691,-176.181)">
        <circle cx="522.5" cy="543.5" r="17.5" style="fill:rgb(182,31,0);"/>
        <clipPath id="_clip5">
            <circle cx="522.5" cy="543.5" r="17.5"/>
        </clipPath>
        <g clip-path="url(#_clip5)">
            <g transform="matrix(0.783321,0,0,0.783321,136.839,138.007)">
                <path d="M485.147,491.557C481.389,495.315 473.407,505.26 469.436,509.905C465.372,514.66 460.76,539.058 471.929,534.834C490.615,527.768 496.078,522.061 504.96,504.296C506.207,501.803 512.602,492.157 511.193,489.339C509.816,486.586 500.301,485.447 498.105,484.976C491.903,483.647 485.701,483.73 479.408,483.73" style="fill-opacity:0.36;"/>
            </g>
        </g>
        <circle cx="522.5" cy="543.5" r="17.5" style="fill:none;stroke:rgb(38,29,1);stroke-width:5.43px;"/>
    </g>
    <g transform="matrix(1.43501,0,0,1.43501,-117.99,-215.824)">
        <path d="M477.494,257C484.482,257 523.946,405.259 540.459,458C546.138,476.138 500.608,430.947 505.829,447.915C520.89,496.862 569.213,554.815 573.994,577.5C575.984,586.946 543.049,568.053 545.034,577.5C548.534,594.153 611.708,677.751 594.994,677.419C588.682,677.293 571.46,665.412 556.189,665.419C553.28,665.42 553.574,677.27 550.614,677.273C526.117,677.306 501.401,677.419 501.401,677.419C501.401,677.419 502.469,714.474 522.127,734.131L438.317,734.131C451.878,720.57 458.526,677.419 458.526,677.419C458.526,677.419 461.518,646.716 448.265,646.677C422.561,658.099 371.464,677.191 359.994,677.419C347.768,677.662 378.284,633 396.926,602.478C403.77,591.272 409.013,581.972 409.953,577.5C411.938,568.053 379.003,586.946 380.994,577.5C385.774,554.815 434.097,496.862 449.158,447.915C454.379,430.947 408.849,476.138 414.528,458C423.489,429.381 452.828,326.716 452.828,326.716L449.574,313.384C449.574,313.384 453.354,300.443 454.501,296.752C462.445,271.181 475.065,257 477.494,257Z" style="fill:rgb(0,146,28);"/>
        <clipPath id="_clip6">
            <path d="M477.494,257C484.482,257 523.946,405.259 540.459,458C546.138,476.138 500.608,430.947 505.829,447.915C520.89,496.862 569.213,554.815 573.994,577.5C575.984,586.946 543.049,568.053 545.034,577.5C548.534,594.153 611.708,677.751 594.994,677.419C588.682,677.293 571.46,665.412 556.189,665.419C553.28,665.42 553.574,677.27 550.614,677.273C526.117,677.306 501.401,677.419 501.401,677.419C501.401,677.419 502.469,714.474 522.127,734.131L438.317,734.131C451.878,720.57 458.526,677.419 458.526,677.419C458.526,677.419 461.518,646.716 448.265,646.677C422.561,658.099 371.464,677.191 359.994,677.419C347.768,677.662 378.284,633 396.926,602.478C403.77,591.272 409.013,581.972 409.953,577.5C411.938,568.053 379.003,586.946 380.994,577.5C385.774,554.815 434.097,496.862 449.158,447.915C454.379,430.947 408.849,476.138 414.528,458C423.489,429.381 452.828,326.716 452.828,326.716L449.574,313.384C449.574,313.384 453.354,300.443 454.501,296.752C462.445,271.181 475.065,257 477.494,257Z"/>
        </clipPath>
        <g clip-path="url(#_clip6)">
            <g id="Layer1" transform="matrix(0.696859,0,0,0.696859,82.2223,150.399)">
                <path d="M519.58,235.867C520.891,244.55 531.41,249.497 529.607,259.05C528.161,266.713 524.04,269.672 522.145,277.15C514.047,309.114 509.525,342.001 499.233,373.417C493.39,391.249 486.857,408.849 480.796,426.608C479.883,429.283 474.548,440.755 481.562,442.182C495.764,445.072 508.244,435.381 519.475,428.679C522.51,426.868 532.79,422.226 530.362,416.191C529.339,413.651 526.114,414.4 524.389,414.73C520.315,415.511 510.278,419.825 507.384,413.341C504.323,406.482 504.241,399.951 505.305,392.677C508.594,370.201 509.871,367.745 517.533,346.426C527.714,318.094 539.24,291.831 542.691,261.812C543.676,253.245 540.504,228.584 526.541,234.369" style="fill-opacity:0.67;"/>
                <path d="M435.376,596.28C437.259,587.671 443.69,581.696 448.126,574.587C458.445,558.051 468.819,541.535 478.419,524.572C482.008,518.229 482.576,511.621 483.345,504.583C484.922,490.16 484.914,474.856 490.767,461.23C492.468,457.271 496.038,452.669 499.596,450.195C505.72,445.937 519.261,442.503 515.8,431.659L526.003,422.297C527.86,421.63 528.205,425.71 528.511,427.659C529.276,432.55 530.696,437.396 530.712,442.346C530.798,468.784 518.62,493.507 504.886,515.341C491.544,536.552 489.359,538.344 474.441,558.441C468.285,566.734 463.771,571.387 461.319,581.764C459.104,591.138 472.54,592.514 477.951,592.749C481.353,592.897 483.703,589.979 486.942,589.653C487.539,589.593 486.169,590.573 485.802,591.047C484.987,592.101 484.313,593.271 483.395,594.236C480.234,597.558 477.428,601.375 473.591,603.884C476.064,604.911 478.542,606.062 480.664,607.697C499.949,622.55 485.971,649.105 476.056,664.906C473.116,669.59 469.904,674.101 466.638,678.564C461.203,685.991 455.597,693.292 449.958,700.566C445.448,706.385 442.038,709.358 438.427,715.855C435.591,720.956 436.568,729.859 443.603,730.88C455.002,732.532 466.603,732.584 477.974,734.41C482.639,735.159 484.931,738.34 484.692,742.947C484.551,745.67 481.139,750.07 479.269,751.725C469.875,760.044 464.176,763.94 453.258,770.104C433.711,781.141 403.158,796.612 386.403,772.671C383.286,768.218 380.359,763.552 378.293,758.525C374.295,748.797 374.447,741.869 376.643,731.761C380.12,715.761 385.127,700.327 393.139,685.96C402.488,669.197 412.1,658.085 425.741,644.714C436.181,634.481 447.273,624.933 457.945,614.942C460.439,612.608 463.327,608.587 466.883,607.536L466.024,607.404C461.517,609.261 438.706,625.659 435.417,611.064C434.794,608.301 434.638,605.434 434.666,602.603L405.93,598.203C415.771,596.474 425.531,595.624 435.376,596.28ZM466.883,607.536C466.926,607.544 466.968,607.553 467.011,607.56C467.054,607.566 467.097,607.571 467.141,607.575C467.143,607.575 467.14,607.569 467.138,607.567C467.134,607.561 467.13,607.557 467.125,607.552C467.111,607.539 467.098,607.527 467.079,607.522C467.014,607.505 466.946,607.517 466.883,607.536Z" style="fill-opacity:0.67;"/>
                <path d="M579.628,583.309C576.243,581.895 571.039,587.791 568.258,589.685C559.29,595.792 550.497,599.982 539.849,602.022C531.716,603.58 522.589,603.674 514.438,602.286C513.005,602.042 503.272,598.007 503.068,598.53C499.704,607.157 515.819,623.246 524.002,623.58C530.368,623.839 540.433,616.818 545.491,613.328C555.309,606.554 566.441,597.387 577.397,592.649" style="fill-opacity:0.67;"/>
                <path d="M598.373,704.961C597.29,710.867 596.304,716.819 590.614,720.063C586.648,722.324 577.38,720.538 576.203,726.088C574.922,732.124 586.585,739.295 591.552,739.295C603.318,739.295 601.974,725.459 598.985,718.233" style="fill-opacity:0.67;"/>
                <path d="M545.846,410.374C541.747,415.949 535.585,411.009 530.938,412.692C526.249,414.389 530.779,424.249 532.814,426.043C540.471,432.798 556.183,419.68 551.119,412.468" style="fill-opacity:0.67;"/>
                <path d="M534.217,228.705C531.2,230.865 526.777,229.651 527.191,225.353C527.578,221.328 529.3,216.011 531.027,212.387C540.806,191.872 541.495,192.341 552.983,172.688C555.647,168.131 557.683,161.879 562.849,159.277L565.885,161.205C566.106,160.686 566.739,162.059 566.811,162.618C567.01,164.153 566.915,165.731 566.67,167.259C565.528,174.381 564.726,173.994 562.293,180.695C557.926,192.723 554.792,205.773 546.916,216.21C548.698,221.937 557,218.852 560.492,218.88C560.782,218.882 564.447,220.303 563.824,221.476C562.857,223.299 558.669,223.112 557.351,224.051C555.556,225.33 555.091,228.791 552.671,229.535C546.519,231.428 540.186,230.877 534.217,228.705Z" style="fill-opacity:0.67;"/>
            </g>
            <g id="Layer2" transform="matrix(0.696859,0,0,0.696859,82.2223,150.399)">
                <path d="M566.379,165.489C566.462,175.783 570.23,190.863 571.925,200.906C577.36,233.098 582.391,263.845 585.288,296.392C586.383,308.689 583.569,315.174 586.485,327.398C587.322,330.909 590.037,333.726 591.216,337.137C594.622,346.992 597.567,357.01 600.205,367.098C602.654,376.463 605.336,393.449 605.691,403.134C605.768,405.234 603.174,410.904 604.062,413.126C606.003,417.985 610.992,419.198 614.522,422.231C624.833,431.09 624.747,433.288 634.845,440.646C643.07,446.64 660.05,457.952 669.896,447.739C674.529,442.932 676.856,436.704 677.847,430.245C680.946,410.046 676.708,390.831 677.486,370.641C678.276,350.114 681.565,329.721 682.065,309.184C683.112,266.184 676.297,216.024 639.469,188.019C628.201,179.451 613.126,180.383 600.143,177.327" style="fill:white;fill-opacity:0.32;"/>
                <path d="M609.605,434.547C607.382,430.199 618.277,452.542 617.707,448.552L624.09,459.723C624.631,459.48 623.894,460.288 622.605,461.547C623.853,463.99 624.523,466.847 626.394,468.853C637.294,480.544 654.88,479.818 669.051,482.696C675.848,484.076 684.385,491.255 679.621,498.907C674.455,507.207 668.059,514.682 662.607,522.796C660.751,525.557 658.463,528.256 657.72,531.498C665.026,542.904 685.078,566.591 693.365,577.232C698.351,583.634 703.826,591.061 706.355,598.934C709.524,608.795 700.84,617.705 690.904,615.196C681.111,612.723 668.479,607.554 668.479,607.554C667.107,622.152 679.762,633.184 687.605,643.355C692.594,649.824 704.01,661.198 697.104,670.842C704.448,680.428 711.195,690.492 717.402,700.851C723.609,711.21 728.981,722.057 734.29,732.903C735.6,735.579 736.544,738.444 737.224,741.344C737.994,744.629 738.847,748.004 738.622,751.37C738.077,759.525 725.554,755.026 722.188,754.478C711.066,752.667 695.597,748.117 684.868,755.369C675.781,761.512 682.606,773.436 683.12,781.211C683.409,785.58 680.996,788.728 676.836,789.862C674.728,790.436 669.609,788.687 668.036,787.362C656.453,777.606 670.997,780.377 661.878,768.468C653.849,757.98 658.332,741.197 654.429,728.063C650.274,714.085 637.337,688.726 666.305,674.301C666.203,664.789 631.358,677.24 629.971,670.812C628.583,664.384 652.733,660.191 650.98,643.732C649.907,633.656 611.827,589.552 609.836,579.616C607.345,567.181 598.946,553.321 603.289,540C602.968,539.371 602.392,538.554 602.757,537.951C603.034,537.494 603.867,538.014 604.323,538.291C606.763,539.777 609.001,541.571 611.357,543.186C614.097,545.065 616.767,547.055 619.611,548.771C620.955,549.582 624.065,550.684 624.305,549.133C625.93,538.622 616.97,528.237 613.397,519.565C607.224,504.583 608.282,486.968 607.634,471.321C607.128,459.12 606.047,451.552 607.662,439.352C607.889,437.64 608.37,435.755 609.605,434.547Z" style="fill:white;fill-opacity:0.32;"/>
            </g>
            <g id="Layer3" transform="matrix(0.696859,0,0,0.696859,82.2223,150.399)">
                <path d="M716.593,712.481C717.648,715.89 719.125,719.162 720.161,722.576C720.934,725.125 721.959,727.704 722.362,730.34C724.128,741.864 709.344,741.849 701.416,742.07C700.322,742.1 695.008,741.367 694.363,742.091C693.004,743.62 700.728,748.373 701.553,748.844C708.342,752.717 720.151,758.719 728.322,757.735C744.61,755.772 736.946,736.489 731.594,727.118C730.354,724.946 727.496,716.408 724.579,717.121" style="fill:white;fill-opacity:0.32;"/>
                <path d="M675.156,645.514C675.934,646.219 675.15,648.615 674.887,649.29C674.352,650.666 673.479,651.92 673.123,653.352C672.525,655.753 673.368,662.144 669.845,663.488C667.144,664.517 664.23,664.861 661.43,665.579C659.782,666.002 658.143,666.459 656.502,666.912C656.232,666.987 654.285,667.318 654.336,668.153C654.39,669.04 656.228,669.472 656.687,669.567C660.66,670.382 664.802,670.554 668.63,671.893C669.799,672.301 671.192,672.594 671.937,673.583C672.279,674.038 670.858,673.946 670.324,674.143C669.507,674.444 667.951,674.557 668.046,675.423C668.25,677.272 671.637,676.513 673.493,676.631C678.732,676.965 685.364,677.933 690.135,674.744C694.014,672.151 693.78,666.91 693.513,662.904C692.821,652.529 689.681,641.056 682.672,633.089C680.069,630.132 677.006,627.614 674.169,624.881C673.811,624.536 672.025,622.498 671.124,623.041" style="fill:white;fill-opacity:0.32;"/>
                <path d="M642.245,503.791C649.408,515.263 640.572,529.539 635.681,540C634.414,542.71 633.037,545.374 631.938,548.157C631.328,549.702 630.894,551.32 630.568,552.949C630.428,553.652 630.6,555.452 631.753,555.571C644.15,556.849 658.815,542.057 659.605,530.209C660.018,524.004 657.66,516.645 655.879,511.185C654.401,506.657 651.639,499.055 646.891,496.386" style="fill:white;fill-opacity:0.32;"/>
                <path d="M692.469,589.06C696.123,596.849 687.243,603.925 681.285,607.109C679.856,607.873 678.294,608.36 676.802,608.992C675.441,609.568 672.42,610.465 673.271,611.673C674.194,612.982 675.949,613.454 677.296,614.044C681.581,615.923 685.745,618.104 690.14,619.712C694.45,621.289 700.02,621.952 704.578,621.381C707.008,621.076 709.445,620.519 711.692,619.545C729.425,611.854 723.481,587.127 709.881,578.592" style="fill:white;fill-opacity:0.32;"/>
                <path d="M638.19,388.553C639.271,391.49 638.687,395.242 638.517,398.268C638.065,406.319 636.339,415.062 632.967,422.444C631.817,424.963 630.195,427.432 627.858,429.013C627.127,429.508 625.135,430.473 625.269,431.604C625.845,436.463 632.54,441.957 635.533,445.246C638.431,448.431 641.436,451.458 644.902,454.026C649.424,457.377 654.063,461.901 659.691,463.263C664.703,464.475 669.705,461.963 673.728,459.152C684.792,451.424 688.1,437.892 689.983,425.168C690.697,420.343 691.901,409.121 686.627,406.011" style="fill:white;fill-opacity:0.32;"/>
            </g>
            <path d="M458.526,677.419C458.526,677.419 456.009,649.756 457.132,651.744C457.812,652.947 455.191,641.653 456.479,641.947C466.724,644.288 476.022,651.049 483.09,656.48C488.473,660.616 487.947,651.964 491.187,655.187C495.694,659.67 499.831,673.935 499.831,673.935C499.831,673.935 502.469,714.474 522.127,734.131L438.317,734.131C451.878,720.57 458.526,677.419 458.526,677.419Z" style="fill:rgb(164,112,0);"/>
            <clipPath id="_clip7">
                <path d="M458.526,677.419C458.526,677.419 456.009,649.756 457.132,651.744C457.812,652.947 455.191,641.653 456.479,641.947C466.724,644.288 476.022,651.049 483.09,656.48C488.473,660.616 487.947,651.964 491.187,655.187C495.694,659.67 499.831,673.935 499.831,673.935C499.831,673.935 502.469,714.474 522.127,734.131L438.317,734.131C451.878,720.57 458.526,677.419 458.526,677.419Z"/>
            </clipPath>
            <g clip-path="url(#_clip7)">
                <g transform="matrix(0.696859,0,0,0.696859,82.2223,150.399)">
                    <path d="M583.935,734.502C575.511,748.323 574.376,766.446 574.258,781.982C574.147,796.632 574.696,808.544 578.552,822.13C582.162,834.847 589.721,854.124 606.239,853.004C621.883,851.942 623.932,829.052 636.132,822.396C637.089,821.874 636.144,824.639 635.711,825.64C635.183,826.862 632.77,828.955 631.167,828.417C627.646,827.236 625.802,824.117 624.563,820.93C616.433,800.013 609.106,780.466 599.806,760.236C598.744,757.924 599.075,757.198 600.812,755.321C605.367,750.397 610.22,745.755 614.834,740.887C615.194,740.507 617.515,738.175 615.399,737.393C611.892,736.097 608.112,735.716 604.461,734.912C601.394,734.236 596.697,733.012 593.468,733.595" style="fill:white;fill-opacity:0.32;"/>
                </g>
                <g transform="matrix(0.696859,0,0,0.696859,82.2223,150.399)">
                    <path d="M595.228,737.631C590.183,741.862 589.697,751.532 588.44,757.517C585.804,770.075 588.115,781.328 590.202,793.747C592.297,806.211 595.297,820.794 604.156,830.391C611.079,837.892 618.627,845.353 628.07,849.569C630.35,850.587 632.233,850.934 634.645,851.37C634.815,851.401 636.715,851.982 636.748,851.9C639.511,844.986 639.46,835.467 640.43,827.779C641.483,819.438 641.031,811.979 640.703,803.581C640.507,798.541 641.677,793.767 640.992,788.663C639.628,778.496 635.216,769.003 631.251,759.715C628.975,754.382 627.69,750.012 624.312,745.028C619.321,737.661 612.118,723.758 602.174,722.064" style="fill:white;fill-opacity:0.32;"/>
                </g>
            </g>
            <g transform="matrix(0.696859,0,0,0.696859,82.2223,150.399)">
                <path d="M557.003,702.369C558,705.019 563.576,714.332 559.82,717.755C557.536,719.837 546.751,713.844 547.162,718.787C548.01,728.985 552.349,738.794 550.354,749.179C548.749,757.536 545.75,761.927 544.793,770.453C543.7,780.186 546.348,780.106 545.168,789.963C543.699,802.244 540.483,814.313 535.795,825.751C530.684,838.222 513.229,847.678 507.496,830.224C502.245,814.236 507.267,797.455 510.113,781.667C512.096,770.659 514.846,759.76 516.059,748.64C517.23,737.913 513.249,726.907 516.384,716.295" style="fill-opacity:0.67;"/>
            </g>
        </g>
    </g>
    <g transform="matrix(-1,0,0,-1,1127.44,1560)">
        <path d="M567.219,745L567.219,802" style="fill:none;stroke:rgb(38,29,1);stroke-width:7.28px;"/>
    </g>
    <g transform="matrix(-1,0,0,-1,1127.44,1560)">
        <path d="M567.219,815L567.219,822" style="fill:none;stroke:rgb(38,29,1);stroke-width:7.28px;"/>
    </g>
    <g>
        <g transform="matrix(1.43501,0,0,1.43501,-117.99,-215.824)">
            <path d="M477.494,420.083C477.494,420.083 462.668,445.874 458.526,449.351C455.907,451.55 452.642,440.946 452.642,440.946C452.642,440.946 408.849,476.138 414.528,458C423.489,429.381 439.207,372.636 452.828,326.716" style="fill:none;stroke:rgb(38,29,1);stroke-width:8.01px;"/>
        </g>
        <g transform="matrix(1.43501,0,0,1.43501,-117.99,-215.824)">
            <path d="M477.494,303.708L445.757,314.484C455.562,282.028 474.662,257 477.494,257C480.472,257 489.347,283.924 499.831,318.906" style="fill:none;stroke:rgb(38,29,1);stroke-width:8.01px;"/>
        </g>
        <g transform="matrix(1.43501,0,0,1.43501,-117.99,-215.824)">
            <path d="M502.931,329.323C503.128,329.988 503.325,330.655 503.523,331.324" style="fill:none;stroke:rgb(38,29,1);stroke-width:8.01px;"/>
        </g>
        <g transform="matrix(1.43501,0,0,1.43501,-117.99,-215.824)">
            <path d="M506.588,341.766C510.197,354.112 513.883,366.903 517.492,379.467" style="fill:none;stroke:rgb(38,29,1);stroke-width:8.01px;"/>
        </g>
        <g transform="matrix(1.43501,0,0,1.43501,-117.99,-215.824)">
            <path d="M521.939,394.955C529.126,419.984 535.733,442.905 540.459,458C546.138,476.138 500.608,430.947 505.829,447.915C511.301,465.696 521.162,484.666 531.73,502.702" style="fill:none;stroke:rgb(38,29,1);stroke-width:8.01px;"/>
        </g>
        <g transform="matrix(1.43501,0,0,1.43501,-117.99,-215.824)">
            <path d="M540.95,518.004C546.598,527.172 552.146,535.907 557.05,543.894" style="fill:none;stroke:rgb(38,29,1);stroke-width:8.01px;"/>
        </g>
        <g transform="matrix(1.43501,0,0,1.43501,-117.99,-215.824)">
            <path d="M565.442,558.072C569.834,565.921 572.95,572.55 573.994,577.5C575.984,586.946 543.049,568.053 545.034,577.5C545.734,580.829 548.818,586.833 553.172,594.308" style="fill:none;stroke:rgb(38,29,1);stroke-width:8.01px;"/>
        </g>
        <g transform="matrix(1.43501,0,0,1.43501,-117.99,-215.824)">
            <path d="M560.604,606.613C563.504,611.3 566.612,616.241 569.749,621.242C569.749,621.242 547.678,617.139 540.755,619.385C534.475,621.422 528.212,634.716 528.212,634.716" style="fill:none;stroke:rgb(38,29,1);stroke-width:8.01px;"/>
        </g>
        <path d="M658.28,527.518C658.28,527.518 644.384,555.822 633,555C621.616,554.178 589.978,522.585 589.978,522.585" style="fill:none;stroke:rgb(38,29,1);stroke-width:11.5px;"/>
        <g transform="matrix(1.43501,0,0,1.43501,-117.99,-215.824)">
            <path d="M577.055,632.955C591.438,656.237 603.457,677.587 594.994,677.419C588.93,677.298 572.312,673.08 558.445,664.721" style="fill:none;stroke:rgb(38,29,1);stroke-width:8.01px;"/>
        </g>
        <g transform="matrix(1.43501,0,0,1.43501,-117.99,-215.824)">
            <path d="M550.614,677.273C526.117,677.306 501.401,677.419 501.401,677.419C501.401,677.419 501.693,687.566 504.789,700.058" style="fill:none;stroke:rgb(38,29,1);stroke-width:8.01px;"/>
        </g>
        <g transform="matrix(1.43501,0,0,1.43501,-117.99,-215.824)">
            <path d="M508.705,712.513C511.746,720.31 516.048,728.052 522.127,734.131L438.317,734.131C448.392,724.057 454.651,697.652 457.203,684.74" style="fill:none;stroke:rgb(38,29,1);stroke-width:8.01px;"/>
        </g>
        <g transform="matrix(1.43501,0,0,1.43501,-117.99,-215.824)">
            <path d="M458.312,672.543C457.898,665.592 456.723,652.998 453.502,646.866" style="fill:none;stroke:rgb(38,29,1);stroke-width:8.01px;"/>
        </g>
        <g transform="matrix(1.43501,0,0,1.43501,-117.99,-215.824)">
            <path d="M499.625,636.109C499.625,636.109 505.754,663.403 499.831,663.984C493.908,664.564 464.085,639.594 464.085,639.594C464.085,639.594 460.719,642.173 428.958,656.044C419.94,659.982 408.392,664.185 397.255,667.813" style="fill:none;stroke:rgb(38,29,1);stroke-width:8.01px;"/>
        </g>
        <g transform="matrix(1.43501,0,0,1.43501,-117.99,-215.824)">
            <path d="M382.524,672.347C372.098,675.354 363.524,677.349 359.994,677.419C347.768,677.662 378.284,633 396.926,602.478C400.079,597.316 402.892,592.558 405.101,588.49" style="fill:none;stroke:rgb(38,29,1);stroke-width:8.01px;"/>
        </g>
        <g transform="matrix(1.43501,0,0,1.43501,-117.99,-215.824)">
            <path d="M488.491,558.758C488.491,558.758 451.812,582.347 441.605,582.451C432.549,582.543 427.251,559.382 427.251,559.382C427.251,559.382 420.169,570.197 409.987,575.325C396.818,581.958 379.871,582.827 380.994,577.5C383.359,566.278 395.357,549.664 408.701,529.814" style="fill:none;stroke:rgb(38,29,1);stroke-width:8.01px;"/>
        </g>
        <g transform="matrix(1.43501,0,0,1.43501,-117.99,-215.824)">
            <path d="M417.688,516.154C418.025,515.626 418.362,515.097 418.698,514.566" style="fill:none;stroke:rgb(38,29,1);stroke-width:8.01px;"/>
        </g>
        <g transform="matrix(1.43501,0,0,1.43501,-117.99,-215.824)">
            <path d="M424.464,505.196C427.606,499.92 430.64,494.507 433.452,488.987" style="fill:none;stroke:rgb(38,29,1);stroke-width:8.01px;"/>
        </g>
        <g transform="matrix(1.43501,0,0,1.43501,-117.99,-215.824)">
            <path d="M438.234,478.975C440.836,473.121 443.126,467.17 444.977,461.155" style="fill:none;stroke:rgb(38,29,1);stroke-width:8.01px;"/>
        </g>
    </g>
    <g id="Layer4">
        <g transform="matrix(0.742857,0,0,0.742857,206.857,-19.7429)">
            <circle cx="522.5" cy="543.5" r="17.5" style="fill:rgb(239,239,239);"/>
            <clipPath id="_clip8">
                <circle cx="522.5" cy="543.5" r="17.5"/>
            </clipPath>
            <g clip-path="url(#_clip8)">
                <g transform="matrix(1.34615,0,0,1.34615,-278.462,26.5769)">
                    <path d="M594.553,376.384C587.754,361.218 597.736,376.395 600.536,387.352C601.166,389.819 591.228,398.765 600.037,395.828C601.126,395.465 600.983,395.592 602.031,395.33C603.531,394.955 604.878,391.985 606.02,390.843C615.088,381.774 617.14,366.107 607.724,356.692C605.405,354.372 603.966,350.457 600.536,350.457" style="fill:rgb(239,239,239);fill-opacity:0.69;"/>
                </g>
                <g transform="matrix(1.34615,0,0,1.34615,-278.462,26.5769)">
                    <path d="M594.24,372.545C599.267,377.572 603.249,385.689 599.849,392.489C599.031,394.124 593.914,400.888 596.11,403.084C600.952,407.926 614.105,401.254 617.3,395.605C620.645,389.69 621.247,373.376 616.053,368.183C611.411,363.541 605.715,363.82 599.226,363.82" style="fill:white;fill-opacity:0.47;"/>
                </g>
            </g>
            <circle cx="522.5" cy="543.5" r="17.5" style="fill:none;stroke:rgb(38,29,1);stroke-width:8.87px;"/>
        </g>
        <g transform="matrix(0.742857,0,0,0.742857,90.8571,49.7571)">
            <circle cx="522.5" cy="543.5" r="17.5" style="fill:rgb(239,239,239);"/>
            <clipPath id="_clip9">
                <circle cx="522.5" cy="543.5" r="17.5"/>
            </clipPath>
            <g clip-path="url(#_clip9)">
                <g transform="matrix(1.34615,0,0,1.34615,-122.308,-66.9808)">
                    <path d="M485.544,444.557C485.544,449.664 482.539,454.191 481.157,458.916C479.788,463.595 482.093,468.623 483.55,472.876C484.054,474.349 484.493,475.851 485.145,477.264C485.303,477.605 486.311,478.14 485.943,478.062C476.464,476.038 469.624,465.16 464.803,457.719C462.466,454.112 458.447,449.332 462.135,445.018C466.649,439.736 475.166,439.408 481.157,437.776C485.786,436.515 490.988,433.319 495.915,435.782" style="fill-opacity:0.36;"/>
                </g>
            </g>
            <circle cx="522.5" cy="543.5" r="17.5" style="fill:none;stroke:rgb(38,29,1);stroke-width:8.87px;"/>
        </g>
        <circle cx="522.5" cy="543.5" r="17.5" style="fill:rgb(239,239,239);"/>
        <clipPath id="_clip10">
            <circle cx="522.5" cy="543.5" r="17.5"/>
        </clipPath>
        <g clip-path="url(#_clip10)">
            <path d="M526.654,529.634C525.445,530.239 525.133,531.899 524.659,533.165C522.114,539.956 520.221,548.691 521.804,555.928C522.551,559.345 523.852,562.624 525.122,565.883C525.433,566.679 526.105,567.285 526.522,568.03C526.804,568.533 527.263,569.833 526.692,569.751C521.676,569.028 520.644,567.768 515.932,566.139C512.699,565.02 508.785,564.46 505.721,562.82C503.957,561.875 503.639,560.268 502.658,558.736C501.219,556.487 499.288,554.387 498.318,551.843C496.303,546.557 497.839,540.719 499.084,535.506C499.54,533.599 500.728,530.33 502.148,528.868C505.125,525.802 508.16,524.425 512.103,522.997C513.598,522.456 515.109,521.721 516.698,521.721" style="fill-opacity:0.36;"/>
        </g>
        <circle cx="522.5" cy="543.5" r="17.5" style="fill:none;stroke:rgb(38,29,1);stroke-width:8.32px;"/>
        <g transform="matrix(0.742857,0,0,0.742857,116.857,276.257)">
            <circle cx="522.5" cy="543.5" r="17.5" style="fill:rgb(182,31,0);"/>
            <clipPath id="_clip11">
                <circle cx="522.5" cy="543.5" r="17.5"/>
            </clipPath>
            <g clip-path="url(#_clip11)">
                <g transform="matrix(1.34615,0,0,1.34615,-157.308,-371.885)">
                    <path d="M509.481,669.826C499.853,669.826 502.24,681.578 500.132,687.9C499.21,690.666 500.756,696.625 500.756,696.625C500.756,696.625 497.827,696.864 496.393,696.625C488.142,695.25 482.992,685.104 484.552,677.305C485.18,674.162 488.237,672.422 490.161,670.449C492.066,668.496 496.855,663.594 499.509,663.594" style="fill-opacity:0.36;"/>
                </g>
            </g>
            <circle cx="522.5" cy="543.5" r="17.5" style="fill:none;stroke:rgb(38,29,1);stroke-width:9.8px;"/>
        </g>
        <g transform="matrix(1,0,0,1,-95,80)">
            <circle cx="522.5" cy="543.5" r="17.5" style="fill:rgb(239,239,239);"/>
            <clipPath id="_clip12">
                <circle cx="522.5" cy="543.5" r="17.5"/>
            </clipPath>
            <g clip-path="url(#_clip12)">
                <g transform="matrix(1,0,0,1,95,-80)">
                    <path d="M434.766,610.925C434.045,610.925 431.494,610.481 430.777,610.925C429.915,611.46 428.44,614.327 428.253,615.254C426.707,622.923 426.916,625.064 427.187,632.863C427.266,635.126 427.264,637.403 427.586,639.644C427.712,640.518 430.353,643.034 427.556,642.806C420.617,642.239 416.915,635.241 414.856,629.452C414.332,627.977 412.021,621.757 412.828,619.302C413.946,615.901 415.656,612.716 416.817,609.33C417.256,608.047 417.09,606.592 417.614,605.341C418.82,602.468 424.425,601.353 426.788,601.353" style="fill-opacity:0.36;"/>
                </g>
            </g>
            <circle cx="522.5" cy="543.5" r="17.5" style="fill:none;stroke:rgb(38,29,1);stroke-width:7.28px;"/>
        </g>
        <g transform="matrix(1.34286,0,0,1.34286,-83.1429,-86.3429)">
            <circle cx="522.5" cy="543.5" r="17.5" style="fill:rgb(239,239,239);stroke:rgb(38,29,1);stroke-width:6.97px;"/>
        </g>
        <g transform="matrix(1,0,0,1,-5.68434e-13,-252.5)">
            <circle cx="522.5" cy="543.5" r="17.5" style="fill:rgb(182,31,0);"/>
            <clipPath id="_clip13">
                <circle cx="522.5" cy="543.5" r="17.5"/>
            </clipPath>
            <g clip-path="url(#_clip13)">
                <g transform="matrix(-1,0,0,1,1041.9,254.59)">
                    <path d="M519.401,274.641C527.683,285.684 529.633,296.497 529.633,309.775C529.633,311.28 522.267,317.239 524.075,319.046C525.162,320.134 534.343,319.136 535.429,318.774C543.592,316.053 545.888,302.525 545.888,295.675C545.888,281.102 546.913,258.281 527.97,258.281" style="fill-opacity:0.69;"/>
                </g>
            </g>
            <circle cx="522.5" cy="543.5" r="17.5" style="fill:none;stroke:rgb(38,29,1);stroke-width:6.94px;"/>
        </g>
        <g transform="matrix(0.742857,0,0,0.742857,271.857,62.7571)">
            <circle cx="522.5" cy="543.5" r="17.5" style="fill:rgb(182,31,0);"/>
            <clipPath id="_clip14">
                <circle cx="522.5" cy="543.5" r="17.5"/>
            </clipPath>
            <g clip-path="url(#_clip14)">
                <g transform="matrix(1.34615,0,0,1.34615,-365.962,-84.4808)">
                    <path d="M658.656,453.942C658.656,460.07 666.531,463.245 666.388,471.998C666.271,479.15 659.102,484.425 661.02,485.753C663.52,487.483 668.665,482.624 670.115,481.255C675.899,475.792 678.588,463.304 675.854,455.62" style="fill:rgb(239,239,239);fill-opacity:0.69;"/>
                </g>
            </g>
            <circle cx="522.5" cy="543.5" r="17.5" style="fill:none;stroke:rgb(38,29,1);stroke-width:7.47px;"/>
        </g>
    </g>
    <g transform="matrix(0.718637,0,0,0.718637,227.173,73.463)">
        <g transform="matrix(0.449554,0,0,0.449554,735.205,-136.008)">
            <path d="M593.072,575.085C593.105,591.068 593.162,594.999 593.162,594.999L564.809,594.999C564.809,594.999 571.897,624.534 564.809,630.441C557.721,636.347 529.368,636.347 522.279,630.441C515.191,624.534 522.279,594.999 522.279,594.999L486.838,594.999L486.838,481.588C486.838,481.588 562.727,414.24 593.162,462.614C593.129,477.145 593.105,490.12 593.087,501.698L519.692,538.396L593.072,575.085Z" style="fill:white;fill-opacity:0.76;"/>
        </g>
        <g transform="matrix(0.734937,0,0,0.734937,841.956,-204.129)">
            <path d="M217.67,409.46C217.665,419.717 217.669,427.843 217.677,434.257L192.878,421.857L217.67,409.46Z" style="fill:white;fill-opacity:0.76;"/>
        </g>
    </g>
</svg>
