<?xml version="1.0" encoding="UTF-8" standalone="no"?>
<!DOCTYPE svg PUBLIC "-//W3C//DTD SVG 1.1//EN" "http://www.w3.org/Graphics/SVG/1.1/DTD/svg11.dtd">
<svg width="100%" height="100%" viewBox="0 0 1080 1080" version="1.1" xmlns="http://www.w3.org/2000/svg" xmlns:xlink="http://www.w3.org/1999/xlink" xml:space="preserve" xmlns:serif="http://www.serif.com/" style="fill-rule:evenodd;clip-rule:evenodd;stroke-linecap:round;stroke-linejoin:round;stroke-miterlimit:1.5;">
    <rect x="-39" y="-64" width="1419" height="1235" style="fill:rgb(137,167,167);"/>
    <g transform="matrix(0.718637,0,0,0.718637,227.173,73.463)">
        <g transform="matrix(0.449554,0,0,0.449554,735.205,-136.008)">
            <path d="M593.072,575.085C593.105,591.068 593.162,594.999 593.162,594.999L564.809,594.999C564.809,594.999 571.897,624.534 564.809,630.441C557.721,636.347 529.368,636.347 522.279,630.441C515.191,624.534 522.279,594.999 522.279,594.999L486.838,594.999L486.838,481.588C486.838,481.588 562.727,414.24 593.162,462.614C593.129,477.145 593.105,490.12 593.087,501.698L519.692,538.396L593.072,575.085Z" style="fill:white;fill-opacity:0.76;"/>
        </g>
        <g transform="matrix(0.734937,0,0,0.734937,841.956,-204.129)">
            <path d="M217.67,409.46C217.665,419.717 217.669,427.843 217.677,434.257L192.878,421.857L217.67,409.46Z" style="fill:white;fill-opacity:0.76;"/>
        </g>
    </g>
    <g transform="matrix(0.910423,0,0,1,-113.42,47.281)">
        <ellipse cx="623" cy="731.483" rx="307" ry="24.517" style="fill:rgb(21,49,49);fill-opacity:0.47;"/>
    </g>
    <g id="Layer1">
        <g transform="matrix(1,0,0,1,-51.7265,71.7984)">
            <path d="M581.487,210.227C572.823,206.49 550.179,211.408 540.985,213.09C531.037,214.91 521.7,217.849 512.525,222.11C485.268,234.769 455.208,254.278 436.84,278.649C431.08,286.292 423.48,296.57 425.506,306.822C426.879,313.77 433.475,319.341 438.095,324.282C454.58,341.911 473.093,350.57 495.668,358.321C540.836,373.829 587.137,370.845 633.291,360.817C648.096,357.6 667.758,355.995 679.873,345.871C695.805,332.558 695.829,312.127 695.829,293.287C695.829,287.957 698.389,282.457 695.883,277.329C691.847,269.069 679.696,266.245 672.871,261.129C666.692,256.497 661.768,249.759 655.467,245.098C649.938,241.008 642.318,238.495 636.369,234.391C624.144,225.956 622.385,220.815 606.279,218.818" style="fill:rgb(242,205,94);"/>
        </g>
        <g transform="matrix(1,0,0,1,-51.7265,71.7984)">
            <path d="M566.731,209.63C520.485,196.714 480.912,216.104 444.786,243.669C437.612,249.143 436.091,260.038 430.46,264.131C426.514,266.999 414.143,263.789 409.356,263.625C400.264,263.313 391.505,268.343 385.057,274.495C372.725,286.261 366.458,299.758 359.236,314.985C357.178,319.323 353.72,324.23 352.952,328.978C351.305,339.16 352.849,348.985 352.126,359.069C350.243,385.325 352.259,401.178 367.192,423.343C369.929,427.405 367.723,434.319 370.817,437.535C372.286,439.062 374.849,438.541 376.672,439.217C379.903,440.416 383.967,443.506 387.352,445.179C391.929,447.442 395.087,451.677 399.609,453.831C406.593,457.159 418.842,457.261 426.546,457.261C436.539,457.261 446.523,452.155 456.56,455.405C465.292,458.231 465.311,462.776 470.801,467.734C473.891,470.524 482.999,475.518 487.09,476.524C495.469,478.585 517.253,477.301 526.937,477.669C534.297,477.949 541.492,481.294 549.081,481.516C558.822,481.801 568.747,478.595 578.463,477.73C597.72,476.014 617.412,476.578 635.832,469.374C646.412,465.236 647.616,459.825 656.014,454.717C667.951,447.455 682.047,445.098 690.575,432.82C694.753,426.804 697.071,418.301 700.001,411.562C704.253,401.782 710.664,391.336 711.957,380.646C713.125,370.995 710.311,360.831 711.324,350.881C712.446,339.87 713.243,328.518 715.389,317.662C716.656,311.248 720.154,303.62 719.581,296.977C719.043,290.735 718.331,284.668 713.726,280.023C708.121,274.37 695.875,269.933 692.859,262.473" style="fill:rgb(242,205,94);"/>
        </g>
        <g transform="matrix(1,0,0,1,-51.7265,71.7984)">
            <path d="M702.317,267.315C703.909,270.065 709.017,270.241 711.496,272.029C717.065,276.045 722.065,281.231 727.838,284.925C734.86,289.417 743.664,291.111 746.872,300.039C750.245,309.426 748.952,319.454 749.81,329.244C750.731,339.748 753.442,351.324 752.32,361.733C751.293,371.257 744.499,380.637 740.771,389.358C732.293,409.187 722.822,431.181 703.561,443.003C689.822,451.436 676.958,451.269 661.568,451.269" style="fill:rgb(242,205,94);"/>
        </g>
        <g transform="matrix(1,0,0,1,-51.7265,71.7984)">
            <path d="M686.543,262.015C688.953,261.707 692.428,264.764 695.175,265.15C720.609,268.725 723.417,281.152 732.385,303.802C736.569,314.368 737.293,325.876 740.47,336.695C741.959,341.764 747.491,344.822 749.188,349.802C751.392,356.266 750.377,363.987 750.658,370.734C750.898,376.529 754.763,383.998 754.014,389.37C752.383,401.062 742.322,419.191 734.079,427.135C729.609,431.444 723.663,433.713 718.874,437.607C710.904,444.088 705.861,452.793 694.961,454.928C690.989,455.706 686.239,453.785 682.296,453.337C676.93,452.726 665.724,451.602 663.445,445.662" style="fill:rgb(242,205,94);"/>
        </g>
        <g transform="matrix(1,0,0,1,-51.7265,71.7984)">
            <path d="M665,431.807C668.002,441.014 671.459,451.518 677.503,459.305C682.152,465.295 689.918,460.579 696.983,458.461C718.17,452.108 750.95,425.086 718.927,412.129C714.233,410.23 709.51,408.988 704.419,408.988" style="fill:rgb(242,205,94);"/>
        </g>
        <g transform="matrix(1,0,0,1,-51.7265,71.7984)">
            <path d="M495.259,464.9C488.067,463.997 482.652,472.757 479.598,477.948C476.165,483.783 471.154,488.466 468.009,494.515C464.939,500.418 464.366,507.785 463.852,514.295C462.781,527.854 467.651,539.725 475.608,550.392C486.621,565.154 501.181,575.766 519.498,579.306C531.716,581.667 543.883,580.519 555.914,577.77C568.414,574.914 579.22,569.902 589.96,562.999C595.198,559.632 600.483,555.996 604.776,551.446C607.665,548.384 609.729,544.802 612.026,541.302C615.999,535.248 619.45,529.177 621.696,522.272C623.217,517.596 624.162,512.782 625.377,508.022C628.059,497.52 630.339,488.12 627.768,477.375C627.007,474.193 626.835,470.94 626.108,467.758C625.87,466.714 625.287,464.953 624.192,464.501" style="fill:rgb(242,205,94);"/>
        </g>
        <g transform="matrix(1,0,0,1,-51.7265,71.7984)">
            <path d="M460.848,517.618C457.448,523.447 457.46,530.309 456.07,536.713C454.439,544.225 452.133,552.103 451.324,559.753C450.909,563.674 452.177,568.018 452.341,571.963C452.564,577.301 451.906,582.398 452.941,587.721C454.28,594.607 458.651,600.429 460.141,607.207C462.874,619.639 463.636,633.025 467.748,645.072C471.212,655.219 469.279,671.424 478.66,678.557C481.041,680.367 484.185,681.443 487.081,682.084C498.255,684.558 513.295,681.211 521.832,673.362C524.989,670.458 526.74,666.352 529.588,663.149C534.765,657.328 540.078,651.527 543.913,644.689C547.091,639.022 549.521,632.981 552.87,627.395C557.839,619.107 564.135,611.831 568.148,602.952C572.267,593.836 576.303,583.608 577.222,573.577C577.881,566.392 577.14,558.107 573.183,551.859C571.877,549.797 568.46,548.07 567.548,546.122" style="fill:rgb(242,205,94);"/>
        </g>
        <g transform="matrix(1,0,0,1,-51.7265,71.7984)">
            <path d="M469.789,621.062C463.71,620.091 457.406,623.228 452.063,625.682C448.398,627.364 443.096,628.672 440.02,631.32C428.303,641.405 427.055,657.418 435.162,670.121C440.277,678.137 448.677,680.261 456.932,683.888C477.131,692.762 498.124,699.57 520.283,695.074C536.102,691.864 551.772,686.752 567.183,681.999C578.952,678.37 592.67,674.861 602.834,667.627C609.844,662.637 614.562,655.405 619.815,648.737C624.734,642.495 630.281,636.723 634.467,629.928C636.535,626.571 638.446,622.566 638.618,618.559C638.93,611.297 633.381,603.519 629.254,597.997C626.643,594.503 623.806,590.731 620.346,588.028C604.177,575.4 581.378,574.345 561.971,578.559" style="fill:rgb(242,205,94);"/>
        </g>
        <g transform="matrix(1,0,0,1,-51.7265,71.7984)">
            <path d="M453.461,641.211C450.871,640.671 448.187,641.538 445.677,642.114C431.771,645.309 428.679,659.155 430.956,671.573C431.426,674.134 431.553,676.862 432.687,679.253C442.82,700.617 468.795,706.095 490.365,704.757C500.352,704.137 509.765,701.299 519.116,697.935C532.269,693.203 546.148,687.827 554.911,676.256C560.754,668.54 562.111,658.425 561.28,648.969C560.895,644.587 560.155,639.861 557.278,636.337C554.499,632.933 550.308,631.1 546.356,629.431C539.467,626.524 532.22,623.54 524.676,623.348" style="fill:rgb(242,205,94);"/>
        </g>
        <g transform="matrix(1,0,0,1,-51.7265,71.7984)">
            <path d="M451.8,629.829C450.452,628.237 443.34,631.422 441.638,631.847C432.507,634.125 428.088,639.666 426.548,649.035C426.032,652.174 425.752,655.825 426.928,658.86C429.484,665.455 435.961,664.682 441.081,661.935C442.894,660.962 445.729,659.422 445.827,657.047" style="fill:rgb(242,205,94);"/>
        </g>
        <g transform="matrix(1,0,0,1,-51.7265,71.7984)">
            <path d="M543.999,655.755C528.947,655.982 529.548,676.149 528.105,686.376C527.315,691.969 524.505,701.606 531.496,704.796C532.87,705.423 534.442,705.74 535.931,705.952C544.301,707.145 554.598,706.664 562.544,704.124C567.955,702.395 572.755,699.414 577.822,696.917C583.326,694.205 589.402,691.473 593.577,686.833C598.572,681.283 601.507,672.638 602.057,665.269C602.292,662.129 602.096,658.088 599.85,655.616C598.057,653.642 595.426,652.833 592.94,652.164" style="fill:rgb(242,205,94);"/>
        </g>
        <g transform="matrix(1,0,0,1,-51.7265,71.7984)">
            <path d="M526.064,669.217C519.664,672.664 515.878,678.562 515.468,685.948C514.989,694.564 522.029,702.196 530.799,702.019C535.684,701.92 540.039,699.196 544.625,697.821C548.104,696.777 552.197,696.36 554.611,693.315C558.663,688.202 560.054,676.585 555.141,671.657C551.465,667.969 545.015,666.754 539.986,666.669" style="fill:rgb(242,205,94);"/>
        </g>
        <g transform="matrix(1,0,0,1,-51.7265,71.7984)">
            <path d="M643.488,615.095C636.393,614.37 628.637,617.706 622.264,620.387C607.771,626.482 593.377,633.191 579.456,640.5C572.973,643.904 563.57,647.295 559.416,653.743C556.117,658.864 558.118,666.277 559.003,671.835C559.756,676.555 559.073,683.458 561.398,687.776C563.227,691.173 566.871,692.448 570.039,694.285C576.011,697.748 581.961,701.966 588.938,703.136C605.74,705.954 622.753,705.186 639.609,703.32C647.283,702.471 656.777,701.236 661.76,694.483C664.645,690.575 668.34,686.599 670.578,682.298C672.05,679.467 672.273,676.121 673.61,673.247C677.546,664.782 681.396,657.969 679.369,648.279C678.332,643.324 677.917,638.613 674.172,634.892C673.207,633.933 672.29,632.543 670.851,632.543" style="fill:rgb(242,205,94);"/>
        </g>
        <g transform="matrix(1,0,0,1,-51.7265,71.7984)">
            <path d="M577.929,677.449C570.853,679.856 564.592,684.656 561.318,691.493C557.988,698.445 562.344,704.845 569.498,706.242C571.848,706.7 574.277,706.622 576.655,706.44C582.5,705.992 590.823,704.661 595.307,700.435C605.157,691.152 589,683.99 581.251,683.575" style="fill:rgb(242,205,94);"/>
        </g>
        <g transform="matrix(1,0,0,1,-51.7265,71.7984)">
            <path d="M695.777,673.693C689.411,672.88 682.714,675.339 676.47,676.241C673.655,676.648 669.554,676.633 667.749,679.271C665.366,682.755 666.745,688.024 665.451,691.999C664.605,694.598 662.592,696.138 660.673,697.92C660.014,698.532 659.049,699.546 659.585,700.522C660.305,701.833 663.466,701.849 664.728,702.365C671.558,705.158 678.857,705.72 686.322,705.142C704.862,703.708 723.848,700.517 741.67,695.173C747.01,693.572 753.017,693.239 757.96,690.553C775.455,681.048 786.926,663.551 789.555,643.876C790.312,638.214 786.949,634.241 784.75,629.347C783.127,625.735 782.919,621.762 782.859,617.857C782.719,608.776 782.959,599.565 784.081,590.549C784.433,587.717 788.13,582.902 787.456,580.273C787.208,579.307 785.476,578.418 784.761,577.818C782.521,575.939 780.734,573.592 778.408,571.782C773.207,567.737 766.411,566.656 760.162,565.274C754.959,564.123 748.209,562.333 742.854,562.87C738.421,563.315 735.674,567.346 732.354,569.879C727.458,573.615 722.509,578.286 720.038,584.052C718.467,587.72 719.248,590.93 718.855,594.693C718.108,601.833 718.254,608.733 718.721,615.914C719.137,622.322 721.324,628.721 720.976,635.178C720.681,640.65 719.073,645.511 717.387,650.683C715.672,655.94 714.178,661.113 710.08,665.073C707.248,667.81 703.896,669.894 700.732,672.211C700.023,672.73 697.355,675.813 697.534,674.006" style="fill:rgb(242,205,94);"/>
        </g>
        <g transform="matrix(1,0,0,1,-51.7265,71.7984)">
            <path d="M622.13,487.229C621.087,485.594 618.5,487.031 617.217,487.626C612.487,489.821 607.756,492.809 603.573,495.897C586.023,508.854 568.599,522.81 555.066,540.074C549.308,547.419 543.817,556.177 543.747,565.831C543.7,572.31 546.217,578.021 549.136,583.661C555.179,595.338 564.22,608.376 575.776,615.21C584.297,620.248 593.991,620.208 603.504,621.589C614.928,623.246 626.005,626.624 637.75,625.164C651.607,623.441 654.591,602.82 656.789,591.986C657.99,586.063 657.887,580.125 658.46,574.153C658.954,569.011 659.906,564.014 659.484,558.832C658.938,552.147 656.838,545.436 655.085,538.996C653.913,534.687 653.61,530.192 652.337,525.897C650.644,520.186 647.765,514.91 645.491,509.42C642.52,502.247 636.771,496.665 631.751,490.885C629.723,488.551 626.863,484.915 623.533,484.422" style="fill:rgb(242,205,94);"/>
        </g>
    </g>
    <g id="Layer3">
        <g transform="matrix(1,0,0,1,-51.7265,71.7984)">
            <path d="M548.581,208.28C545.345,207.146 541.279,211.527 538.983,213.329C527.932,222 527.179,231.807 530.816,245.145C533.554,255.19 557.896,251.397 564.324,264.361C573.871,283.615 532.343,310.297 567.094,323.823C570.834,325.279 574.789,326.343 578.806,326.651C586.085,327.207 594.347,324.062 600.615,320.597C609.262,315.818 629.65,299.677 626.796,288.161C622.311,270.056 577.028,225.224 608.581,211.919" style="fill:rgb(245,245,245);"/>
        </g>
        <g transform="matrix(1,0,0,1,-48.7265,83.4541)">
            <path d="M550.216,488.766C550.516,488.74 550.799,488.732 551.063,488.744L551.075,488.882C561.434,490.733 587.411,509.919 585.936,516.251C582.477,531.102 563.669,530.366 560.432,547.112C558.431,557.458 563.929,663.213 571.789,670.318C576.329,674.422 577.662,684.432 578.702,691.156C579.8,698.256 520.632,698.256 521.73,691.156C522.77,684.432 525.61,676.422 530.15,672.318C538.01,665.213 542,557.458 540,547.112C536.763,530.366 517.954,531.102 514.495,516.251C513.02,509.919 538.998,490.733 549.356,488.882L549.369,488.744C549.633,488.732 549.916,488.74 550.216,488.766Z" style="fill:rgb(245,245,245);"/>
        </g>
        <g transform="matrix(1,0,0,1,-51.7265,71.7984)">
            <path d="M470.363,674.572C467.661,671.385 460.645,674.881 458.156,676.361C455.736,677.799 453.283,679.661 451.864,682.149C448.58,687.906 450.615,696.597 456.243,700.099C459.73,702.268 464.177,703.653 468.276,703.904C473.262,704.21 481.728,702.102 484.175,697.085C487.157,690.97 482.592,684.564 478.374,680.499C476.923,679.1 475.515,677.196 473.504,676.544" style="fill:rgb(245,245,245);"/>
        </g>
        <g transform="matrix(-1,0,0,1,1057.69,71.7984)">
            <path d="M470.363,674.572C467.661,671.385 460.645,674.881 458.156,676.361C455.736,677.799 453.283,679.661 451.864,682.149C448.58,687.906 450.615,696.597 456.243,700.099C459.73,702.268 464.177,703.653 468.276,703.904C473.262,704.21 481.728,702.102 484.175,697.085C487.157,690.97 482.592,684.564 478.374,680.499C476.923,679.1 475.515,677.196 473.504,676.544" style="fill:rgb(245,245,245);"/>
        </g>
        <g transform="matrix(1,0,0,1,-51.7265,71.7984)">
            <path d="M763.095,568.623C759.277,567.897 755.353,567.495 751.473,567.706C747.813,567.905 744.067,568.426 740.687,569.843C737.507,571.175 734.78,573.472 732.216,575.776C716.919,589.519 740.053,606.887 748.607,615.99C750.782,618.305 753.007,620.611 754.792,623.238C761.891,633.683 750.883,661.884 771.129,660.879C773.989,660.737 776.868,660.214 779.566,659.252C800.645,651.739 788.62,624.58 786.937,609.562C786.108,602.161 787.206,597.378 788.37,590.124C789.066,585.79 791.459,579.358 787.322,575.657C784.508,573.14 781.325,572.559 777.819,571.704C775.047,571.029 772.315,570.048 769.472,569.801C764.871,569.401 760.233,569.63 755.616,569.776" style="fill:rgb(245,245,245);"/>
        </g>
        <g transform="matrix(1,0,0,1,-51.7265,71.7984)">
            <path d="M632.713,687.331C627.037,699.007 598.249,715.317 577.964,684.331C575.574,680.679 573.817,679.803 575.386,676C574.77,674.862 575.539,673.143 577.908,671.117C583.639,662.009 593.784,655.95 605.332,655.95C623.204,655.95 640.527,671.258 632.713,687.331Z" style="fill:rgb(245,245,245);"/>
        </g>
        <g transform="matrix(1,0,0,1,-153.216,71.7984)">
            <path d="M632.713,687.331C627.037,699.007 598.249,715.317 577.964,684.331C575.574,680.679 573.817,679.803 575.386,676C574.77,674.862 575.539,673.143 577.908,671.117C583.639,662.009 593.784,655.95 605.332,655.95C623.204,655.95 640.527,671.258 632.713,687.331Z" style="fill:rgb(245,245,245);"/>
        </g>
        <g transform="matrix(1,0,0,1,-51.7265,71.7984)">
            <path d="M753.636,336.564C751.989,327.397 739.748,344.093 733.729,343.261C724.178,341.941 689.085,311.217 689.085,342.774C689.085,357.938 705.994,371.897 721.065,369.705C731.269,368.222 747.475,348.987 757.053,364.468" style="fill:rgb(245,245,245);"/>
        </g>
        <g transform="matrix(0.818187,0.23324,-0.766233,2.68788,460.288,-1559.76)">
            <path d="M470.363,674.572C467.661,671.385 460.645,674.881 458.156,676.361C455.736,677.799 453.283,679.661 451.864,682.149C448.58,687.906 450.615,696.597 456.243,700.099C459.73,702.268 464.177,703.653 468.276,703.904C473.262,704.21 488.691,700.365 484.175,697.085C473.613,689.415 480.736,685.223 494.352,683.205C496.346,682.91 475.515,677.196 473.504,676.544" style="fill:rgb(245,245,245);"/>
        </g>
    </g>
    <g id="Layer4">
        <g transform="matrix(1,0,0,1,-51.7265,71.7984)">
            <path d="M701.088,259.612C693.431,258.433 673.069,263.27 681.44,266.02C782.16,299.101 748.384,446.812 680.088,441.247C676.981,440.993 673.094,449.138 670.718,449.893C659.183,467.601 726.998,450.803 732.978,432.066C746.687,389.111 770.055,360.388 752.41,315.605C748.968,306.868 730.25,268.83 716.385,274.893" style="fill:white;fill-opacity:0.62;"/>
        </g>
        <g transform="matrix(1,0,0,1,-51.7265,71.7984)">
            <path d="M746.945,569.566C730.462,574.122 718.075,596.032 724.248,604.519C731.232,614.121 711.785,648.812 720.084,655.344C727.498,661.18 735.013,610.011 734.304,605.8C731.966,591.904 784.716,573.183 786.433,571.531C790.37,567.745 778.653,565.284 774.846,561.759" style="fill:white;fill-opacity:0.6;"/>
        </g>
        <g transform="matrix(1,0,0,1,-51.7265,71.7984)">
            <path d="M621.655,476.643C623.058,479.073 607.412,477.81 608.707,480.799C609.276,482.112 616.835,485.474 624.381,490.881C630.547,495.298 632.572,504.133 634.619,512.831C642.689,547.121 644.586,589.433 634.515,603.33C631.563,607.403 630.425,612.481 629.683,617.694C626.831,637.738 625.178,659.819 620.242,678.278C617.923,686.95 606.231,711.866 618.172,704.643C630.634,697.106 636.643,665.2 641.44,652.364C647.808,635.324 650.701,617.668 654.661,599.991C656.947,589.785 661.437,579.018 661.897,568.526C662.355,558.062 659.471,545.767 655.818,535.996C650.564,521.943 644.543,506.8 637.472,493.665C635.978,490.889 630.994,476.685 627.717,477.405" style="fill:white;fill-opacity:0.62;"/>
        </g>
        <g transform="matrix(1,0,0,1,-51.7265,71.7984)">
            <path d="M650.701,623.648C644.66,621.116 654.208,632.973 656.396,635.713C662.918,643.879 670.914,647.089 671.298,658.761C671.573,667.086 668.697,675.035 664.426,682.059C663.771,683.136 656.952,693.073 660.431,692.948C665.777,692.755 671.064,685.351 673.544,681.424C682.523,667.204 684.097,655.335 676.961,640.212C673.7,633.303 667.639,625.38 658.898,627.591" style="fill:white;fill-opacity:0.62;"/>
        </g>
        <g transform="matrix(1,0,0,1,-51.7265,71.7984)">
            <path d="M582.449,415.718C581.642,418.743 576.179,427.334 566.225,430.6C551.517,435.426 530.553,434.543 529.219,435.08C526.125,436.325 559.674,441.247 561.535,441.247C568.638,441.247 586.343,437.97 591.125,431.779C593.859,428.238 587.746,416.678 583.23,416.678" style="fill:white;fill-opacity:0.62;"/>
        </g>
    </g>
    <g id="Layer5">
        <g transform="matrix(1,0,0,1,-51.7265,71.7984)">
            <path d="M396.91,371.618C393.728,369.158 391.105,378.44 390.168,380.801C386.352,390.424 404.056,414.917 388.303,421.91C369.235,430.375 367.811,381.411 353.069,391.632C347.896,395.218 370.768,425.627 389.378,446.698C396.645,454.926 406.255,454.831 416.578,455.229C423.742,455.506 431.25,456.019 438.556,459.716" style="fill:rgb(37,20,11);fill-opacity:0.69;"/>
        </g>
        <g transform="matrix(1,0,0,1,-51.7265,71.7984)">
            <path d="M694.602,385.896C679.838,422.106 628.018,462.411 566.544,479.277C578.782,479.273 634.76,466.373 646.429,462.964C670.286,455.994 683.819,436.019 695.664,416.255C701.572,406.397 706.943,398.735 709.249,387.193C710.629,380.286 709.074,372.803 702.332,369.644" style="fill:rgb(37,20,11);fill-opacity:0.69;"/>
        </g>
        <g transform="matrix(1,0,0,1,-51.7265,71.7984)">
            <path d="M452.02,622.268C425.463,627.769 417.87,657.268 432.693,677.837C439.448,687.211 446.397,696.592 457.438,701.066C459.498,701.901 461.737,702.227 463.93,702.595C465.172,702.804 466.464,703.011 467.704,702.79C468.359,702.673 469.712,702.177 469.329,701.633C465.791,696.599 460.929,692.618 457.144,687.767C451.002,679.892 450.489,668.988 450.296,659.547C450.102,650.096 450.773,643.076 454.553,634.294C455.551,631.974 457.422,630.134 458.925,628.104C459.482,627.352 463.399,623.894 461.05,622.419" style="fill:rgb(37,20,11);fill-opacity:0.69;"/>
        </g>
        <g transform="matrix(1,0,0,1,-51.7265,71.7984)">
            <path d="M517.048,375.504C517.72,374.3 513.432,377.822 512.719,378.867C510.206,382.551 509.328,386.311 513.031,389.298C521.402,396.051 531.251,399.057 541.849,400.278C544.466,400.579 554.077,401.856 553.729,397.229" style="fill-opacity:0.52;"/>
        </g>
        <g transform="matrix(1,0,0,1,-51.7265,71.7984)">
            <path d="M508.378,426.101C508.675,426.77 508.441,426.898 509.135,426.803" style="fill-opacity:0.52;"/>
        </g>
        <g transform="matrix(1,0,0,1,-51.7265,71.7984)">
            <path d="M509.524,426.613C502.444,435.646 495.333,447.971 495.333,459.941C495.333,471.4 507.672,483.055 519.448,481.051C526.938,479.777 532.074,474.375 538.027,470.301" style="fill-opacity:0.52;"/>
        </g>
        <g transform="matrix(1,0,0,1,98.2735,71.7984)">
            <path d="M439.608,325.998C432.614,332.807 434.957,344.146 439.315,350.817C447.656,363.586 463.426,368.654 478.125,368.057C484.049,367.817 491.751,363.503 496.047,358.994" style="fill-opacity:0.52;"/>
        </g>
        <g transform="matrix(1,0,0,1,-52.9118,71.7984)">
            <path d="M439.608,325.998C432.614,332.807 434.957,344.146 439.315,350.817C447.656,363.586 463.426,368.654 478.125,368.057C484.049,367.817 491.751,363.503 496.047,358.994" style="fill-opacity:0.52;"/>
        </g>
        <g transform="matrix(1,0,0,1,-51.7265,71.7984)">
            <path d="M584.267,696.191C581.256,694.725 578.004,688.843 576.762,686.066C570.62,672.325 567.176,664.066 564.391,649.199C563.793,646.005 564.195,642.702 563.962,639.461C563.906,638.675 563.722,631.724 560.502,634.096C554.028,638.868 553.651,646.11 553.359,653.643C552.852,666.703 545.506,696.814 532.139,698.183C424.544,709.199 545.674,703.354 575.204,705.806C575.692,705.847 579.576,709.271 580.306,707.053" style="fill:rgb(37,20,11);fill-opacity:0.69;"/>
        </g>
        <g transform="matrix(0.800656,-0.599125,0.175321,0.234295,12.7775,951.512)">
            <path d="M584.502,697.029C581.491,695.564 578.004,688.843 576.762,686.066C574.714,681.484 572.965,677.511 571.442,673.699C568.396,666.082 566.247,659.108 564.391,649.199C563.793,646.005 564.195,642.702 563.962,639.461C563.906,638.675 563.722,631.724 560.502,634.096C554.028,638.868 553.651,646.11 553.359,653.643C552.852,666.703 556.352,679.754 561.884,692C565.031,698.965 569.113,702.497 575.204,705.806C575.634,706.04 579.576,709.271 580.306,707.053" style="fill:rgb(37,20,11);fill-opacity:0.69;"/>
        </g>
        <g transform="matrix(0.800656,-0.599125,0.175321,0.234295,55.7775,954.512)">
            <path d="M612.525,768.688C612.807,769.154 614.082,772.57 615.471,771.93C616.851,771.294 615.2,768.001 615.007,767.469C613.074,762.129 611.31,756.726 609.24,751.437C602.061,733.097 594.302,714.986 587.264,696.592C581.755,682.193 572.663,655.436 570.029,640.101C568.747,632.635 569.13,624.977 568.731,617.412C568.637,615.635 569.081,611.787 567.364,612.253C560.403,614.142 563.99,625.738 562.928,629.662C561.073,636.519 555.111,641.801 553.29,648.667C549.733,662.083 553.885,680.854 561.884,692C567.257,699.486 573.234,701.784 577.478,710.228C584.436,724.07 588.405,740.739 592.644,755.493C593.271,757.674 593.706,759.924 594.559,762.027C594.938,762.963 595.29,764.465 596.299,764.506C597.303,764.547 597.897,763.131 598.211,762.177" style="fill:rgb(37,20,11);fill-opacity:0.69;"/>
        </g>
        <g transform="matrix(0.950822,-0.711494,0.220474,0.294636,-138.247,972.95)">
            <path d="M574.168,712.531C571.548,711.01 571.339,701.085 571.248,703.353C570.262,727.973 564.344,635.752 564.584,588.597C564.609,583.617 563.065,596.579 562.43,591.64C562.391,591.33 561.666,590.883 561.608,591.19C560.595,596.528 560.652,602.048 559.451,607.347C556.01,622.526 552.51,621.836 551.565,637.621C550.851,649.536 553.139,664.617 556.03,676.131C557.968,683.847 561.958,693.995 567.277,700.126C569.407,702.582 572.567,703.905 575.204,705.806C575.867,706.285 579.408,709.781 580.306,707.053" style="fill:rgb(37,20,11);fill-opacity:0.69;"/>
        </g>
        <g transform="matrix(-1,0,0,1,1058.1,71.7984)">
            <path d="M621.655,476.643C639,506.692 648.804,583.613 634.515,603.33C631.563,607.403 630.425,612.481 629.683,617.694C626.831,637.738 625.178,659.819 620.242,678.278C617.923,686.95 606.231,711.866 618.172,704.643C630.634,697.106 636.643,665.2 641.44,652.364C647.808,635.324 650.701,617.668 654.661,599.991C656.947,589.785 661.437,579.018 661.897,568.526C662.355,558.062 659.471,545.767 655.818,535.996C650.564,521.943 644.543,506.8 637.472,493.665C635.978,490.889 630.994,476.685 627.717,477.405" style="fill:rgb(95,73,36);fill-opacity:0.69;"/>
        </g>
    </g>
    <g id="Layer2">
        <g transform="matrix(1,0,0,1,-50.1797,78.5105)">
            <path d="M516.234,434.901C514.493,433.922 513.092,436.512 512.349,437.707C510.046,441.414 511.072,447.158 511.817,451.195C514.92,468.015 536.789,462.258 545.335,453.363C549.845,448.668 548.394,440.451 542.616,437.932C536.276,435.168 529.543,436.332 523.048,437.801" style="fill:rgb(226,109,200);"/>
        </g>
        <g transform="matrix(1,0,0,1,-70.7265,54.7984)">
            <path d="M545.484,448.608C538.424,448.608 529.742,451.67 524.721,456.699C519.266,462.164 521.778,468.941 529.514,470.117C537.062,471.265 546.621,464.833 548.843,457.526C550.251,452.897 551.028,450.367 547.295,447.428" style="fill:rgb(226,61,200);"/>
        </g>
        <g transform="matrix(1,0,0,1,-51.7265,71.7984)">
            <path d="M521.712,465.875C521.712,462.134 523.854,458.137 525.78,455.039" style="fill:none;stroke:rgb(37,20,11);stroke-width:4.17px;"/>
        </g>
        <g transform="matrix(1,0,0,1,-85.7265,100.798)">
            <path d="M582.449,415.718C579.642,416.743 580.179,428.191 570.225,431.457C555.517,436.283 557.046,438.126 555.712,438.663C552.618,439.908 559.674,441.247 561.535,441.247C568.638,441.247 580.343,437.648 585.125,431.457C587.859,427.916 587.746,416.678 583.23,416.678" style="fill:white;fill-opacity:0.33;"/>
        </g>
        <g transform="matrix(-1,0,0,-1,1041.02,940.767)">
            <path d="M582.449,415.718C579.642,416.743 580.179,428.191 570.225,431.457C555.517,436.283 562.046,429.126 560.712,429.663C557.618,430.908 566.174,433.247 568.035,433.247C575.138,433.247 580.343,437.648 585.125,431.457C587.859,427.916 587.746,416.678 583.23,416.678" style="fill-opacity:0.28;"/>
        </g>
    </g>
    <g transform="matrix(1,0,0,1,-51.7265,71.719)">
        <path d="M434.883,455.888C429.487,457.919 423.828,459 418,459C380.47,459 350,414.192 350,359C350,303.808 380.47,259 418,259C423.603,259 429.677,259.229 434.883,261.111C463.045,226.86 505.74,205 553.5,205C601.639,205 644.593,227.16 672.745,261.88C677.951,259.999 683.397,259 689,259C726.53,259 757,303.808 757,359C757,414.192 726.53,459 689,459C683.172,459 677.513,457.919 672.117,455.888" style="fill:none;stroke:rgb(37,20,11);stroke-width:12.19px;"/>
        <g transform="matrix(-1,0,0,0.740668,1107,107.635)">
            <path d="M707,359C707,417.719 673.958,468.281 625.462,494.096C643.866,525.324 655.25,568.426 655.25,616C655.25,643.362 651.484,669.245 644.781,692.245C644.781,747.436 628.177,808.5 606.42,808.5C584.664,808.5 567,764.192 567,709" style="fill:none;stroke:rgb(37,20,11);stroke-width:13.85px;"/>
        </g>
        <g transform="matrix(1,0,0,0.740668,-5.68434e-14,107.265)">
            <path d="M707,359C707,415.267 675.05,467.7 625.462,494.096" style="fill:none;stroke:rgb(37,20,11);stroke-width:13.85px;"/>
        </g>
        <g transform="matrix(1,0,0,0.740668,-5.68434e-14,107.265)">
            <path d="M567,510.1C617.808,500.149 625.462,494.096 625.462,494.096C659.476,551.813 663.222,628.966 644.781,692.245C644.781,722.936 640.908,758.02 628.119,786.61C625.271,792.978 620.491,801.98 614.315,806.247C601.986,814.764 590.053,801.607 584.386,791.912C570.211,767.659 567,736.488 567,709" style="fill:none;stroke:rgb(37,20,11);stroke-width:13.85px;"/>
        </g>
        <g transform="matrix(-0.848514,0,0,0.740668,1021.74,111.252)">
            <path d="M660.174,686.171C725.25,699.617 703.585,750.995 691.631,773C678.906,796.426 663.845,803.582 617.715,803.617L486.881,803.617C440.75,803.582 425.689,796.426 412.964,773C401.01,750.995 378.166,699.617 443.243,686.171" style="fill:none;stroke:rgb(37,20,11);stroke-width:15.3px;"/>
        </g>
        <g transform="matrix(-1,6.12323e-17,6.12323e-17,-0.5,1106.83,597.535)">
            <path d="M553.331,396C566.133,396 598.139,439.333 591.738,448C585.337,456.667 521.326,456.667 514.925,448C508.524,439.333 540.529,396 553.331,396Z" style="fill:rgb(37,20,11);"/>
            <clipPath id="_clip1">
                <path d="M553.331,396C566.133,396 598.139,439.333 591.738,448C585.337,456.667 521.326,456.667 514.925,448C508.524,439.333 540.529,396 553.331,396Z"/>
            </clipPath>
            <g clip-path="url(#_clip1)">
                <g transform="matrix(-1,-1.22465e-16,-1.22465e-16,-2,1106.83,1194.91)">
                    <path d="M528.397,369.499C528.034,375.178 532.54,381.247 536.1,385.25C538.289,387.712 540.88,389.634 543.662,391.377C552.696,397.039 568.028,402.47 564.068,415.982C563.199,418.949 561.962,421.652 559.125,423.22C551.365,427.508 543.571,421.313 536.724,417.953C527.179,413.271 516.478,409.708 509.984,400.688C502.466,390.244 508.323,370.675 520.211,365.715" style="fill:none;"/>
                </g>
                <g transform="matrix(-1,-1.22465e-16,-1.22465e-16,-2,1106.83,1194.91)">
                    <path d="M514.257,370.206C512.662,368.87 509.253,368.534 507.392,368.048C506.751,367.881 504.855,367.352 505.515,367.398C506.994,367.502 508.579,367.523 509.886,368.224C511.371,369.02 512.301,372.264 512.671,373.635C513.535,376.837 514.256,381.671 515.904,384.643C520.494,392.918 529.17,396.528 536.951,401.06C539.774,402.705 544.341,406.538 548.21,405.232C551.179,404.231 551.306,398.74 551.695,396.649C552.285,393.472 553.227,390.346 553.5,387.126C553.718,384.559 552.331,381.295 551.188,379.121C549.078,375.107 546.586,370.076 542.159,368.001C537.714,365.919 534.84,365.467 530.007,364.92C529.295,364.839 527.449,364.945 526.96,365.715"/>
                </g>
            </g>
        </g>
        <path d="M591.906,429C566.302,446.924 540.698,449.714 515.094,429C515.094,429 490.721,456.487 521.094,468C551.467,479.513 553.331,443.494 553.331,443.494M591.906,429L586,417.267" style="fill:none;stroke:rgb(37,20,11);stroke-width:12.2px;"/>
        <g transform="matrix(-1,0,0,1,1107,0)">
            <path d="M428.61,672.971C423.305,673.635 417.905,673.498 412.571,673.131C389.162,671.521 383.583,642.572 384.286,623.92C384.547,616.983 385.935,610.131 386.474,603.21C387.045,595.895 387.232,590.4 384.132,583.522C371.896,556.379 332.337,559.663 314,578C322.28,583.758 323.699,594.447 323.156,603.764C322.376,617.15 316.596,630.752 318.81,644.382C319.58,649.122 320.663,653.858 322.412,658.33C337.531,696.994 382.562,706.199 419.449,706.835C447.962,707.328 476.485,706.846 505,706.465" style="fill:none;stroke:rgb(37,20,11);stroke-width:12.2px;stroke-linecap:butt;"/>
        </g>
    </g>
    <g transform="matrix(1,0,0,1,-51.7265,71.719)">
        <g transform="matrix(1.58902,0,0,1.58902,-155.1,-211.457)">
            <circle cx="493" cy="336" r="23"/>
            <clipPath id="_clip2">
                <circle cx="493" cy="336" r="23"/>
            </clipPath>
            <g clip-path="url(#_clip2)">
                <circle cx="493" cy="336" r="23" style="fill:white;"/>
                <g transform="matrix(0.714231,0,0,0.714231,147.457,93.1844)">
                    <circle cx="493" cy="336" r="23"/>
                </g>
            </g>
            <circle cx="493" cy="336" r="23" style="fill:none;stroke:rgb(37,20,11);stroke-width:4.37px;stroke-linecap:butt;"/>
        </g>
        <g transform="matrix(-1.34166,0.359496,-0.359496,-1.34166,1592.08,513.69)">
            <path d="M629.338,327C623.636,327 618.699,323.702 616.331,318.911" style="fill:none;stroke:white;stroke-width:3.36px;"/>
        </g>
        <g transform="matrix(-1.34166,0.359496,-0.359496,-1.34166,1592.08,513.69)">
            <path d="M614.852,313.143C614.843,312.93 614.838,312.716 614.838,312.5" style="fill:none;stroke:white;stroke-width:3.36px;"/>
        </g>
        <g transform="matrix(1.58902,0,0,1.58902,-305.007,-211.457)">
            <circle cx="493" cy="336" r="23"/>
            <clipPath id="_clip3">
                <circle cx="493" cy="336" r="23"/>
            </clipPath>
            <g clip-path="url(#_clip3)">
                <circle cx="493" cy="336" r="23" style="fill:white;"/>
                <g transform="matrix(0.714231,0,0,0.714231,147.457,93.1844)">
                    <circle cx="493" cy="336" r="23"/>
                </g>
            </g>
            <circle cx="493" cy="336" r="23" style="fill:none;stroke:rgb(37,20,11);stroke-width:4.37px;stroke-linecap:butt;"/>
        </g>
        <g transform="matrix(-1.34166,0.359496,-0.359496,-1.34166,1442.17,513.69)">
            <path d="M629.338,327C623.636,327 618.699,323.702 616.331,318.911" style="fill:none;stroke:white;stroke-width:3.36px;"/>
        </g>
        <g transform="matrix(-1.34166,0.359496,-0.359496,-1.34166,1442.17,513.69)">
            <path d="M614.852,313.143C614.843,312.93 614.838,312.716 614.838,312.5" style="fill:none;stroke:white;stroke-width:3.36px;"/>
        </g>
    </g>
</svg>
