<?xml version="1.0" encoding="UTF-8" standalone="no"?>
<!DOCTYPE svg PUBLIC "-//W3C//DTD SVG 1.1//EN" "http://www.w3.org/Graphics/SVG/1.1/DTD/svg11.dtd">
<svg width="100%" height="100%" viewBox="0 0 1080 1080" version="1.1" xmlns="http://www.w3.org/2000/svg" xmlns:xlink="http://www.w3.org/1999/xlink" xml:space="preserve" xmlns:serif="http://www.serif.com/" style="fill-rule:evenodd;clip-rule:evenodd;stroke-linecap:round;stroke-linejoin:round;stroke-miterlimit:1.5;">
    <g transform="matrix(0.747419,0,0,0.851735,100.144,43.4385)">
        <rect x="-138" y="-51" width="1453" height="1268" style="fill:url(#_Radial1);"/>
    </g>
    <g transform="matrix(0.801567,0,0,1,45.1322,-7.25233)">
        <ellipse cx="539" cy="855" rx="383" ry="42" style="fill-opacity:0.24;"/>
    </g>
    <g transform="matrix(1,0,0,1,49.073,-27.2523)">
        <g transform="matrix(1.36243,0,0,1.36243,-230.5,-348.966)">
            <g transform="matrix(0.114708,0.030736,-0.0959174,0.357968,601.907,543.429)">
                <path d="M851,453.637C851,446.106 831.946,440 808.442,440C779.538,440 741.462,440 712.558,440C689.054,440 670,446.106 670,453.637C670,520.734 670,815.266 670,882.363C670,889.894 689.054,896 712.558,896C741.462,896 779.538,896 808.442,896C831.946,896 851,889.894 851,882.363C851,815.266 851,520.734 851,453.637Z" style="fill:rgb(255,224,181);"/>
                <clipPath id="_clip2">
                    <path d="M851,453.637C851,446.106 831.946,440 808.442,440C779.538,440 741.462,440 712.558,440C689.054,440 670,446.106 670,453.637C670,520.734 670,815.266 670,882.363C670,889.894 689.054,896 712.558,896C741.462,896 779.538,896 808.442,896C831.946,896 851,889.894 851,882.363C851,815.266 851,520.734 851,453.637Z"/>
                </clipPath>
                <g clip-path="url(#_clip2)">
                    <g transform="matrix(8.1338,-0.698386,2.17944,2.60641,-6080.16,-996.036)">
                        <path d="M599.32,820.315C597.331,820.28 597.482,811.401 593.057,807.898C587.879,803.799 590.18,828.694 594.367,833.965C605.392,847.847 632.56,821.623 648.19,826.565C651.407,827.582 652.596,849.607 654.124,852.965C654.745,854.33 655.19,856.28 655.19,857.765C655.19,857.928 655.307,860.465 655.457,860.165C656.551,857.977 657.27,854.804 658.124,852.432C663.373,837.85 665.025,819.282 653.784,806.792C648.925,801.393 642.534,798.043 635.99,795.098C630.925,792.819 625.545,791.173 619.991,790.832" style="fill-opacity:0.42;"/>
                    </g>
                </g>
            </g>
            <g transform="matrix(0.715937,0.191835,-0.191835,0.715937,250.181,27.1481)">
                <path d="M851,464.369C851,450.91 840.09,440 826.631,440C792.017,440 728.983,440 694.369,440C680.91,440 670,450.91 670,464.369C670,537.405 670,755.314 670,850.578C670,875.664 690.336,896 715.422,896C742.978,896 778.022,896 805.578,896C830.664,896 851,875.664 851,850.578C851,755.314 851,537.405 851,464.369Z" style="fill:rgb(255,224,181);"/>
                <clipPath id="_clip3">
                    <path d="M851,464.369C851,450.91 840.09,440 826.631,440C792.017,440 728.983,440 694.369,440C680.91,440 670,450.91 670,464.369C670,537.405 670,755.314 670,850.578C670,875.664 690.336,896 715.422,896C742.978,896 778.022,896 805.578,896C830.664,896 851,875.664 851,850.578C851,755.314 851,537.405 851,464.369Z"/>
                </clipPath>
                <g clip-path="url(#_clip3)">
                    <g transform="matrix(1,0,0,1,-2,-12)">
                        <g transform="matrix(0.360308,0.830189,-2.26041,0.981034,1622.47,-808.631)">
                            <rect x="943" y="487" width="106" height="106" style="fill:rgb(228,87,46);"/>
                        </g>
                        <g transform="matrix(0.360308,0.830189,-2.26041,0.981034,1619.21,-637.394)">
                            <rect x="943" y="487" width="106" height="106" style="fill:rgb(228,87,46);"/>
                        </g>
                        <g transform="matrix(0.360308,0.830189,-2.26041,0.981034,1638.75,-476.631)">
                            <rect x="943" y="487" width="106" height="106" style="fill:rgb(228,87,46);"/>
                        </g>
                        <g id="Layer1" transform="matrix(1.30321,-0.349193,0.349193,1.30321,-315.274,306.784)">
                            <g transform="matrix(1,-1.11022e-16,3.33067e-16,1,-11.4869,-2)">
                                <path d="M646.187,536.068C641.662,557.114 635.685,585.794 641.035,600.442C649.549,623.753 629.322,635.084 618.842,635.623C615.675,635.786 616.256,638.539 613.372,639.188C607.873,640.427 603.25,640.121 599.868,634.804C581.139,605.358 582.552,565.236 583.383,531.802C583.621,522.211 583.507,508.766 586.402,498.57C590.995,482.395 602.689,469.728 611.185,455.661C625.07,432.669 626.08,422.157 635.572,391.215C640.606,374.803 649.017,341.671 656.852,322.194C659.586,315.396 664.098,306.102 670.473,301.545C674.469,298.688 678.618,300.694 680.986,304.267C687.127,313.534 687.942,320.126 691.295,330.489C691.596,331.42 698.782,331.885 698.782,331.885C698.782,331.885 655.811,491.309 646.187,536.068Z" style="fill-opacity:0.31;"/>
                            </g>
                            <g transform="matrix(1,-1.11022e-16,3.33067e-16,1,31.5166,-191.518)">
                                <path d="M756.879,546.141C743.08,588.888 690.354,830.667 690.354,830.667C690.354,830.667 747.462,838.014 756.145,830.571C790.552,801.079 774.134,660.998 783.265,618.996C786.343,604.838 781.148,568.645 781.148,554.188C781.148,550.297 758.83,540.097 756.879,546.141Z" style="fill:white;fill-opacity:0.48;"/>
                            </g>
                        </g>
                    </g>
                </g>
            </g>
            <g transform="matrix(0.715937,0.191835,-0.191835,0.715937,251.051,18.1732)">
                <path d="M762.5,352C801.545,352 871.595,449.749 898.784,489.996C901.028,493.347 901.243,497.661 899.344,501.219C897.445,504.776 893.74,506.998 889.708,506.998C835.761,507 689.239,507 635.292,507C631.259,507 627.553,504.778 625.654,501.22C623.754,497.662 623.969,493.346 626.214,489.995C653.405,449.749 723.455,352 762.5,352Z" style="fill:rgb(228,87,46);"/>
                <clipPath id="_clip4">
                    <path d="M762.5,352C801.545,352 871.595,449.749 898.784,489.996C901.028,493.347 901.243,497.661 899.344,501.219C897.445,504.776 893.74,506.998 889.708,506.998C835.761,507 689.239,507 635.292,507C631.259,507 627.553,504.778 625.654,501.22C623.754,497.662 623.969,493.346 626.214,489.995C653.405,449.749 723.455,352 762.5,352Z"/>
                </clipPath>
                <g clip-path="url(#_clip4)">
                    <g id="Layer11" serif:id="Layer1" transform="matrix(1.30321,-0.349193,0.349193,1.30321,-333.517,63.9819)">
                        <path d="M741.415,417.32C726.857,412.742 705.586,434.159 696.649,442.687C686.511,452.361 688.91,478.374 682.654,498.531C679.858,507.541 675.333,515.38 667.187,520.068C651.634,529.018 598.751,512.783 584.548,508.185C567.767,502.753 608.16,458.66 611.906,455.52C647.665,425.541 688.819,408.23 734.625,400.559C740.951,399.5 750.755,396.16 757.214,397.37" style="fill-opacity:0.31;"/>
                        <g transform="matrix(0.733982,-8.14884e-17,2.44465e-16,0.733982,402.037,300.512)">
                            <text x="0px" y="8.596px" style="font-family:'ArialMT', 'Arial', sans-serif;font-size:12px;">53917E</text>
                        </g>
                    </g>
                    <g transform="matrix(1.30321,-0.349193,0.349193,1.30321,-342.999,-106.939)">
                        <path d="M756.879,546.141C752.684,559.134 729.246,564.494 729.246,564.494C729.246,564.494 747.03,624.114 747.406,644.697C747.742,663.135 736.354,674.956 736.354,674.956C736.354,674.956 796.462,682.399 805.145,674.956C839.552,645.464 774.134,660.998 783.265,618.996C786.343,604.838 781.148,568.645 781.148,554.188C781.148,550.297 758.83,540.097 756.879,546.141Z" style="fill:white;fill-opacity:0.48;"/>
                    </g>
                    <g transform="matrix(1.30321,-0.349193,0.349193,1.30321,-342.999,-106.939)">
                        <path d="M756.879,546.141C752.684,559.134 729.246,564.494 729.246,564.494C729.246,564.494 747.03,624.114 747.406,644.697C747.742,663.135 736.354,674.956 736.354,674.956C736.354,674.956 796.462,682.399 805.145,674.956C839.552,645.464 774.134,660.998 783.265,618.996C786.343,604.838 781.148,568.645 781.148,554.188C781.148,550.297 758.83,540.097 756.879,546.141Z" style="fill:white;fill-opacity:0.48;"/>
                    </g>
                </g>
            </g>
            <g transform="matrix(1,0,0,1,10.7484,-31)">
                <path d="M714,579.721L683.783,699" style="fill:none;stroke:white;stroke-width:7.63px;"/>
            </g>
            <g transform="matrix(1,0,0,1,-26.2516,107)">
                <path d="M714,579.721L710.034,595.375" style="fill:none;stroke:white;stroke-width:7.63px;"/>
            </g>
        </g>
        <g transform="matrix(1.36243,0,0,1.36243,-230.5,-348.966)">
            <g transform="matrix(0.733982,0,0,0.733982,133.164,276.137)">
                <path d="M892.077,315.096C899.217,333.057 905.117,349.47 909.239,361.413C910.546,365.267 909.625,369.527 906.843,372.496C904.061,375.466 899.87,376.663 895.94,375.609L860.132,366.016L830.028,478.367" style="fill:none;stroke:rgb(59,59,59);stroke-width:15px;"/>
            </g>
            <g transform="matrix(0.733982,0,0,0.733982,133.164,276.137)">
                <path d="M824.005,500.847L794.935,609.336" style="fill:none;stroke:rgb(59,59,59);stroke-width:15px;"/>
            </g>
            <g transform="matrix(0.733982,0,0,0.733982,133.164,276.137)">
                <path d="M788.36,633.874L786.567,640.566" style="fill:none;stroke:rgb(59,59,59);stroke-width:15px;"/>
            </g>
            <g transform="matrix(0.733982,0,0,0.733982,133.164,276.137)">
                <path d="M781.396,659.866L767.197,712.855C760.641,737.324 735.49,751.845 711.021,745.288L681.194,737.296L672.12,771.163" style="fill:none;stroke:rgb(59,59,59);stroke-width:15px;"/>
            </g>
            <g transform="matrix(0.733982,0,0,0.733982,133.164,276.137)">
                <path d="M665.421,796.163L656.318,830.138C655.333,833.811 651.558,835.991 647.884,835.007C643.367,833.796 637.417,832.202 632.899,830.991C629.226,830.007 627.046,826.232 628.031,822.558L649.733,741.563" style="fill:none;stroke:rgb(59,59,59);stroke-width:15px;"/>
            </g>
            <g transform="matrix(0.733982,0,0,0.733982,133.164,276.137)">
                <path d="M649.733,741.563L652.907,729.717L623.081,721.725C598.612,715.169 584.091,690.017 590.647,665.548L667.483,378.794" style="fill:none;stroke:rgb(59,59,59);stroke-width:15px;"/>
            </g>
            <g transform="matrix(0.733982,0,0,0.733982,133.164,276.137)">
                <path d="M676.593,344.794L683.582,318.712L647.777,309.118C643.842,308.064 640.808,304.928 639.885,300.961C638.962,296.994 640.3,292.841 643.366,290.158C660.713,275.101 690.527,250.199 721.238,229.024" style="fill:none;stroke:rgb(59,59,59);stroke-width:15px;"/>
            </g>
            <g transform="matrix(0.733982,0,0,0.733982,133.164,276.137)">
                <path d="M743.417,214.614C746.995,212.387 747.552,212.049 751.07,210.023" style="fill:none;stroke:rgb(59,59,59);stroke-width:15px;"/>
            </g>
            <g transform="matrix(0.733982,0,0,0.733982,133.164,276.137)">
                <path d="M771.34,199.478C787.62,192.054 802.044,188.41 812.368,191.176C836.355,197.603 862.206,245.069 882.054,290.913" style="fill:none;stroke:rgb(59,59,59);stroke-width:15px;"/>
            </g>
        </g>
        <g transform="matrix(1.03182,-0.59572,0.59572,1.03182,-698.822,304.285)">
            <g transform="matrix(0.114708,0.030736,-0.0959174,0.357968,601.907,543.429)">
                <path d="M851,455.595C851,451.459 845.873,447.492 836.746,444.568C827.619,441.643 815.241,440 802.334,440C776.403,440 744.597,440 718.666,440C705.759,440 693.381,441.643 684.254,444.568C675.127,447.492 670,451.459 670,455.595C670,525.593 670,810.407 670,880.405C670,884.541 675.127,888.508 684.254,891.432C693.381,894.357 705.759,896 718.666,896C744.597,896 776.403,896 802.334,896C815.241,896 827.619,894.357 836.746,891.432C845.873,888.508 851,884.541 851,880.405C851,810.407 851,525.593 851,455.595Z" style="fill:rgb(255,224,181);"/>
                <clipPath id="_clip5">
                    <path d="M851,455.595C851,451.459 845.873,447.492 836.746,444.568C827.619,441.643 815.241,440 802.334,440C776.403,440 744.597,440 718.666,440C705.759,440 693.381,441.643 684.254,444.568C675.127,447.492 670,451.459 670,455.595C670,525.593 670,810.407 670,880.405C670,884.541 675.127,888.508 684.254,891.432C693.381,894.357 705.759,896 718.666,896C744.597,896 776.403,896 802.334,896C815.241,896 827.619,894.357 836.746,891.432C845.873,888.508 851,884.541 851,880.405C851,810.407 851,525.593 851,455.595Z"/>
                </clipPath>
                <g clip-path="url(#_clip5)">
                    <g transform="matrix(8.1338,-0.698386,2.17944,2.60641,-6080.16,-996.036)">
                        <path d="M603.724,801.232C601.735,801.197 599.748,801.026 597.857,801.765C595.131,802.83 593.812,805.257 593.057,807.898C591.243,814.249 590.18,828.694 594.367,833.965C605.392,847.847 632.56,821.623 648.19,826.565C651.407,827.582 652.596,849.607 654.124,852.965C654.745,854.33 655.19,856.28 655.19,857.765C655.19,857.928 655.307,860.465 655.457,860.165C656.551,857.977 657.27,854.804 658.124,852.432C663.373,837.85 665.025,819.282 653.784,806.792C648.925,801.393 642.534,798.043 635.99,795.098C630.925,792.819 625.545,791.173 619.991,790.832" style="fill-opacity:0.42;"/>
                    </g>
                </g>
            </g>
            <g transform="matrix(0.715937,0.191835,-0.191835,0.715937,250.181,27.1481)">
                <path d="M851,467.867C851,460.476 848.064,453.388 842.838,448.162C837.612,442.936 830.524,440 823.133,440C789.106,440 731.894,440 697.867,440C690.476,440 683.388,442.936 678.162,448.162C672.936,453.388 670,460.476 670,467.867C670,542.408 670,747.274 670,844.059C670,872.745 693.255,896 721.941,896L799.059,896C827.745,896 851,872.745 851,844.059C851,747.274 851,542.408 851,467.867Z" style="fill:rgb(255,224,181);"/>
                <clipPath id="_clip6">
                    <path d="M851,467.867C851,460.476 848.064,453.388 842.838,448.162C837.612,442.936 830.524,440 823.133,440C789.106,440 731.894,440 697.867,440C690.476,440 683.388,442.936 678.162,448.162C672.936,453.388 670,460.476 670,467.867C670,542.408 670,747.274 670,844.059C670,872.745 693.255,896 721.941,896L799.059,896C827.745,896 851,872.745 851,844.059C851,747.274 851,542.408 851,467.867Z"/>
                </clipPath>
                <g clip-path="url(#_clip6)">
                    <g transform="matrix(1,0,0,1,-2,-12)">
                        <g transform="matrix(0.360308,0.830189,-2.26041,0.981034,1622.47,-808.631)">
                            <rect x="943" y="487" width="106" height="106" style="fill:rgb(83,145,126);"/>
                        </g>
                        <g transform="matrix(0.360308,0.830189,-2.26041,0.981034,1619.21,-637.394)">
                            <rect x="943" y="487" width="106" height="106" style="fill:rgb(83,145,126);"/>
                        </g>
                        <g transform="matrix(0.360308,0.830189,-2.26041,0.981034,1638.75,-476.631)">
                            <rect x="943" y="487" width="106" height="106" style="fill:rgb(83,145,126);"/>
                        </g>
                        <g id="Layer12" serif:id="Layer1" transform="matrix(1.30321,-0.349193,0.349193,1.30321,-315.274,306.784)">
                            <g transform="matrix(1,-1.11022e-16,3.33067e-16,1,-11.4869,-2)">
                                <path d="M646.187,536.068C641.662,557.114 635.685,585.794 641.035,600.442C649.549,623.753 662.779,632.267 687.422,645.711C688.09,646.075 678.333,651.01 677.574,651.048C675.479,651.153 673.38,650.643 671.35,650.115C664.593,648.36 657.927,646.269 651.256,644.211C641.702,641.265 629.322,635.084 618.842,635.623C615.675,635.786 616.256,638.539 613.372,639.188C607.873,640.427 603.25,640.121 599.868,634.804C581.139,605.358 582.552,565.236 583.383,531.802C583.621,522.211 583.507,508.766 586.402,498.57C590.995,482.395 602.689,469.728 611.185,455.661C625.07,432.669 626.08,422.157 635.572,391.215C640.606,374.803 649.017,341.671 656.852,322.194C659.586,315.396 664.098,306.102 670.473,301.545C674.469,298.688 678.618,300.694 680.986,304.267C687.127,313.534 687.942,320.126 691.295,330.489C691.596,331.42 698.782,331.885 698.782,331.885C698.782,331.885 655.811,491.309 646.187,536.068Z" style="fill-opacity:0.31;"/>
                            </g>
                            <g transform="matrix(1,-1.11022e-16,3.33067e-16,1,31.5166,-191.518)">
                                <path d="M756.879,546.141C743.08,588.888 690.354,830.667 690.354,830.667C690.354,830.667 747.462,838.014 756.145,830.571C790.552,801.079 774.134,660.998 783.265,618.996C786.343,604.838 781.148,568.645 781.148,554.188C781.148,550.297 758.83,540.097 756.879,546.141Z" style="fill:white;fill-opacity:0.48;"/>
                            </g>
                        </g>
                    </g>
                </g>
            </g>
            <g transform="matrix(0.715937,0.191835,-0.191835,0.715937,251.051,18.1732)">
                <path d="M762.5,352C800.766,352 868.814,445.889 897.107,487.521C899.69,491.35 899.949,496.292 897.78,500.37C895.612,504.449 891.37,506.997 886.751,506.997C831.607,507 693.393,507 638.249,507C633.629,507 629.385,504.451 627.216,500.372C625.048,496.292 625.307,491.349 627.891,487.519C656.186,445.889 724.234,352 762.5,352Z" style="fill:rgb(83,145,126);"/>
                <clipPath id="_clip7">
                    <path d="M762.5,352C800.766,352 868.814,445.889 897.107,487.521C899.69,491.35 899.949,496.292 897.78,500.37C895.612,504.449 891.37,506.997 886.751,506.997C831.607,507 693.393,507 638.249,507C633.629,507 629.385,504.451 627.216,500.372C625.048,496.292 625.307,491.349 627.891,487.519C656.186,445.889 724.234,352 762.5,352Z"/>
                </clipPath>
                <g clip-path="url(#_clip7)">
                    <g id="Layer13" serif:id="Layer1" transform="matrix(1.30321,-0.349193,0.349193,1.30321,-333.517,63.9819)">
                        <path d="M741.415,417.32C726.857,412.742 705.586,434.159 696.649,442.687C686.511,452.361 688.91,478.374 682.654,498.531C679.858,507.541 675.333,515.38 667.187,520.068C651.634,529.018 598.751,512.783 584.548,508.185C567.767,502.753 608.16,458.66 611.906,455.52C647.665,425.541 688.819,408.23 734.625,400.559C740.951,399.5 750.755,396.16 757.214,397.37" style="fill-opacity:0.31;"/>
                        <g transform="matrix(0.839321,-9.31833e-17,2.7955e-16,0.839321,402.037,300.512)">
                            <text x="0px" y="8.596px" style="font-family:'ArialMT', 'Arial', sans-serif;font-size:12px;">53917E</text>
                        </g>
                    </g>
                    <g transform="matrix(1.30321,-0.349193,0.349193,1.30321,-342.999,-106.939)">
                        <path d="M756.879,546.141C752.684,559.134 729.246,564.494 729.246,564.494C729.246,564.494 747.03,624.114 747.406,644.697C747.742,663.135 736.354,674.956 736.354,674.956C736.354,674.956 796.462,682.399 805.145,674.956C839.552,645.464 774.134,660.998 783.265,618.996C786.343,604.838 781.148,568.645 781.148,554.188C781.148,550.297 758.83,540.097 756.879,546.141Z" style="fill:white;fill-opacity:0.48;"/>
                    </g>
                    <g transform="matrix(1.30321,-0.349193,0.349193,1.30321,-342.999,-106.939)">
                        <path d="M756.879,546.141C752.684,559.134 729.246,564.494 729.246,564.494C729.246,564.494 747.03,624.114 747.406,644.697C747.742,663.135 736.354,674.956 736.354,674.956C736.354,674.956 796.462,682.399 805.145,674.956C839.552,645.464 774.134,660.998 783.265,618.996C786.343,604.838 781.148,568.645 781.148,554.188C781.148,550.297 758.83,540.097 756.879,546.141Z" style="fill:white;fill-opacity:0.48;"/>
                    </g>
                </g>
            </g>
            <g transform="matrix(1,0,0,1,10.7484,-31)">
                <path d="M714,579.721L683.783,699" style="fill:none;stroke:white;stroke-width:7.63px;"/>
            </g>
            <g transform="matrix(1,0,0,1,-26.2516,107)">
                <path d="M714,579.721L710.034,595.375" style="fill:none;stroke:white;stroke-width:7.63px;"/>
            </g>
        </g>
        <g transform="matrix(1.03182,-0.59572,0.59572,1.03182,-698.822,304.285)">
            <g transform="matrix(0.726873,0.41966,-0.41966,0.726873,588.545,71.3065)">
                <path d="M361.569,620.516L320.586,467.565" style="fill:none;stroke:rgb(59,59,59);stroke-width:15px;"/>
            </g>
            <g transform="matrix(0.726873,0.41966,-0.41966,0.726873,588.545,71.3065)">
                <path d="M313.887,442.565L309.209,425.104L280.419,432.818C276.478,433.875 272.276,432.67 269.494,429.686C266.711,426.702 265.803,422.426 267.131,418.569C272.11,404.275 279.635,383.759 288.684,362.571" style="fill:none;stroke:rgb(59,59,59);stroke-width:15px;"/>
            </g>
            <g transform="matrix(0.726873,0.41966,-0.41966,0.726873,588.545,71.3065)">
                <path d="M304.092,329.36C305.433,326.728 306.79,324.134 308.161,321.59" style="fill:none;stroke:rgb(59,59,59);stroke-width:15px;"/>
            </g>
            <g transform="matrix(0.726873,0.41966,-0.41966,0.726873,588.545,71.3065)">
                <path d="M320.586,300.709C330.59,285.739 340.969,274.887 350.978,272.205C379.143,264.659 442.199,311.672 480.581,343.368" style="fill:none;stroke:rgb(59,59,59);stroke-width:15px;"/>
            </g>
            <g transform="matrix(0.726873,0.41966,-0.41966,0.726873,588.545,71.3065)">
                <path d="M498.224,358.568C500.253,361.161 501.04,364.565 500.283,367.845C499.366,371.819 496.33,374.963 492.39,376.019L463.601,383.733L543.382,681.481C549.938,705.95 535.417,731.101 510.948,737.658L490.426,743.157L497.033,767.815" style="fill:none;stroke:rgb(59,59,59);stroke-width:15px;"/>
            </g>
            <g transform="matrix(0.726873,0.41966,-0.41966,0.726873,588.545,71.3065)">
                <path d="M505.607,799.815L511.957,823.511C512.429,825.275 512.182,827.155 511.269,828.736C510.356,830.318 508.852,831.472 507.088,831.944C503.544,832.894 499.197,834.059 495.653,835.008C493.889,835.481 492.01,835.234 490.428,834.32C488.847,833.407 487.692,831.903 487.22,830.139L465.689,749.785L445.166,755.284C420.697,761.84 395.546,747.319 388.99,722.85L369.34,649.516" style="fill:none;stroke:rgb(59,59,59);stroke-width:15px;"/>
            </g>
        </g>
        <g transform="matrix(0.965926,-0.258819,0.258819,0.965926,-291.879,201.314)">
            <g>
                <g transform="matrix(0.114708,0.030736,-0.0959174,0.357968,601.907,543.429)">
                    <path d="M851,458.58C851,453.652 844.891,448.926 834.017,445.442C823.143,441.958 808.395,440 793.017,440C772.22,440 748.78,440 727.983,440C712.605,440 697.857,441.958 686.983,445.442C676.109,448.926 670,453.652 670,458.58C670,532.294 670,803.706 670,877.42C670,882.348 676.109,887.074 686.983,890.558C697.857,894.042 712.605,896 727.983,896C748.78,896 772.22,896 793.017,896C808.395,896 823.143,894.042 834.017,890.558C844.891,887.074 851,882.348 851,877.42C851,803.706 851,532.294 851,458.58Z" style="fill:rgb(255,224,181);"/>
                    <clipPath id="_clip8">
                        <path d="M851,458.58C851,453.652 844.891,448.926 834.017,445.442C823.143,441.958 808.395,440 793.017,440C772.22,440 748.78,440 727.983,440C712.605,440 697.857,441.958 686.983,445.442C676.109,448.926 670,453.652 670,458.58C670,532.294 670,803.706 670,877.42C670,882.348 676.109,887.074 686.983,890.558C697.857,894.042 712.605,896 727.983,896C748.78,896 772.22,896 793.017,896C808.395,896 823.143,894.042 834.017,890.558C844.891,887.074 851,882.348 851,877.42C851,803.706 851,532.294 851,458.58Z"/>
                    </clipPath>
                    <g clip-path="url(#_clip8)">
                        <g transform="matrix(8.1338,-0.698386,2.17944,2.60641,-6080.16,-996.036)">
                            <path d="M603.724,801.232C601.735,801.197 599.748,801.026 597.857,801.765C595.131,802.83 593.812,805.257 593.057,807.898C591.243,814.249 590.18,828.694 594.367,833.965C605.392,847.847 632.56,821.623 648.19,826.565C651.407,827.582 652.596,849.607 654.124,852.965C654.745,854.33 655.19,856.28 655.19,857.765C655.19,857.928 655.307,860.465 655.457,860.165C656.551,857.977 657.27,854.804 658.124,852.432C663.373,837.85 665.025,819.282 653.784,806.792C648.925,801.393 642.534,798.043 635.99,795.098C630.925,792.819 625.545,791.173 619.991,790.832" style="fill-opacity:0.42;"/>
                        </g>
                    </g>
                </g>
                <g transform="matrix(0.715937,0.191835,-0.191835,0.715937,250.181,27.1481)">
                    <path d="M851,473.201C851,454.865 836.135,440 817.799,440C785.212,440 735.788,440 703.201,440C684.865,440 670,454.865 670,473.201L670,834.116C670,868.294 697.707,896 731.884,896C750.37,896 770.63,896 789.116,896C823.293,896 851,868.294 851,834.116L851,473.201Z" style="fill:rgb(255,224,181);"/>
                    <clipPath id="_clip9">
                        <path d="M851,473.201C851,454.865 836.135,440 817.799,440C785.212,440 735.788,440 703.201,440C684.865,440 670,454.865 670,473.201L670,834.116C670,868.294 697.707,896 731.884,896C750.37,896 770.63,896 789.116,896C823.293,896 851,868.294 851,834.116L851,473.201Z"/>
                    </clipPath>
                    <g clip-path="url(#_clip9)">
                        <g transform="matrix(1,0,0,1,-2,-12)">
                            <g transform="matrix(0.360308,0.830189,-2.26041,0.981034,1622.47,-808.631)">
                                <rect x="943" y="487" width="106" height="106" style="fill:rgb(48,50,61);"/>
                            </g>
                            <g transform="matrix(0.360308,0.830189,-2.26041,0.981034,1619.21,-637.394)">
                                <rect x="943" y="487" width="106" height="106" style="fill:rgb(48,50,61);"/>
                            </g>
                            <g transform="matrix(0.360308,0.830189,-2.26041,0.981034,1638.75,-476.631)">
                                <rect x="943" y="487" width="106" height="106" style="fill:rgb(48,50,61);"/>
                            </g>
                            <g id="Layer14" serif:id="Layer1" transform="matrix(1.30321,-0.349193,0.349193,1.30321,-315.274,306.784)">
                                <g transform="matrix(1,-1.11022e-16,3.33067e-16,1,-11.4869,-2)">
                                    <path d="M646.187,536.068C641.662,557.114 635.685,585.794 641.035,600.442C649.549,623.753 662.779,632.267 687.422,645.711C688.09,646.075 678.333,651.01 677.574,651.048C675.479,651.153 673.38,650.643 671.35,650.115C664.593,648.36 657.927,646.269 651.256,644.211C641.702,641.265 629.322,635.084 618.842,635.623C615.675,635.786 616.256,638.539 613.372,639.188C607.873,640.427 603.25,640.121 599.868,634.804C581.139,605.358 582.552,565.236 583.383,531.802C583.621,522.211 583.507,508.766 586.402,498.57C590.995,482.395 602.689,469.728 611.185,455.661C625.07,432.669 626.08,422.157 635.572,391.215C640.606,374.803 649.017,341.671 656.852,322.194C659.586,315.396 664.098,306.102 670.473,301.545C674.469,298.688 678.618,300.694 680.986,304.267C687.127,313.534 687.942,320.126 691.295,330.489C691.596,331.42 698.782,331.885 698.782,331.885C698.782,331.885 655.811,491.309 646.187,536.068Z" style="fill-opacity:0.31;"/>
                                </g>
                                <g transform="matrix(1,-1.11022e-16,3.33067e-16,1,31.5166,-191.518)">
                                    <path d="M756.879,546.141C743.08,588.888 690.354,830.667 690.354,830.667C690.354,830.667 747.462,838.014 756.145,830.571C790.552,801.079 774.134,660.998 783.265,618.996C786.343,604.838 781.148,568.645 781.148,554.188C781.148,550.297 758.83,540.097 756.879,546.141Z" style="fill:white;fill-opacity:0.48;"/>
                                </g>
                            </g>
                        </g>
                    </g>
                </g>
                <g transform="matrix(0.715937,0.191835,-0.191835,0.715937,251.051,18.1732)">
                    <path d="M762.5,352C799.644,352 864.85,440.465 894.518,483.729C897.626,488.286 897.959,494.19 895.381,499.068C892.804,503.945 887.74,506.997 882.223,506.997C825.947,507 699.053,507 642.777,507C637.259,507 632.194,503.948 629.616,499.069C627.038,494.19 627.371,488.286 630.48,483.727C660.15,440.465 725.356,352 762.5,352Z" style="fill:rgb(48,50,61);"/>
                    <clipPath id="_clip10">
                        <path d="M762.5,352C799.644,352 864.85,440.465 894.518,483.729C897.626,488.286 897.959,494.19 895.381,499.068C892.804,503.945 887.74,506.997 882.223,506.997C825.947,507 699.053,507 642.777,507C637.259,507 632.194,503.948 629.616,499.069C627.038,494.19 627.371,488.286 630.48,483.727C660.15,440.465 725.356,352 762.5,352Z"/>
                    </clipPath>
                    <g clip-path="url(#_clip10)">
                        <g id="Layer15" serif:id="Layer1" transform="matrix(1.30321,-0.349193,0.349193,1.30321,-333.517,63.9819)">
                            <path d="M741.415,417.32C726.857,412.742 705.586,434.159 696.649,442.687C686.511,452.361 688.91,478.374 682.654,498.531C679.858,507.541 675.333,515.38 667.187,520.068C651.634,529.018 598.751,512.783 584.548,508.185C567.767,502.753 608.16,458.66 611.906,455.52C647.665,425.541 688.819,408.23 734.625,400.559C740.951,399.5 750.755,396.16 757.214,397.37" style="fill-opacity:0.31;"/>
                            <g transform="matrix(1,-1.11022e-16,3.33067e-16,1,402.037,300.512)">
                                <text x="0px" y="8.596px" style="font-family:'ArialMT', 'Arial', sans-serif;font-size:12px;">53917E</text>
                            </g>
                        </g>
                        <g transform="matrix(1.30321,-0.349193,0.349193,1.30321,-342.999,-106.939)">
                            <path d="M756.879,546.141C752.684,559.134 729.246,564.494 729.246,564.494C729.246,564.494 747.03,624.114 747.406,644.697C747.742,663.135 736.354,674.956 736.354,674.956C736.354,674.956 796.462,682.399 805.145,674.956C839.552,645.464 774.134,660.998 783.265,618.996C786.343,604.838 781.148,568.645 781.148,554.188C781.148,550.297 758.83,540.097 756.879,546.141Z" style="fill:white;fill-opacity:0.48;"/>
                        </g>
                        <g transform="matrix(1.30321,-0.349193,0.349193,1.30321,-342.999,-106.939)">
                            <path d="M756.879,546.141C752.684,559.134 729.246,564.494 729.246,564.494C729.246,564.494 747.03,624.114 747.406,644.697C747.742,663.135 736.354,674.956 736.354,674.956C736.354,674.956 796.462,682.399 805.145,674.956C839.552,645.464 774.134,660.998 783.265,618.996C786.343,604.838 781.148,568.645 781.148,554.188C781.148,550.297 758.83,540.097 756.879,546.141Z" style="fill:white;fill-opacity:0.48;"/>
                        </g>
                    </g>
                </g>
                <g transform="matrix(1,0,0,1,10.7484,-31)">
                    <path d="M714,579.721L683.783,699" style="fill:none;stroke:white;stroke-width:7.63px;"/>
                </g>
                <g transform="matrix(1,0,0,1,-26.2516,107)">
                    <path d="M714,579.721L710.034,595.375" style="fill:none;stroke:white;stroke-width:7.63px;"/>
                </g>
            </g>
            <g transform="matrix(0.965926,0.258819,-0.258819,0.965926,279.583,-105.288)">
                <path d="M502.476,554.96L502.476,502.423L480.816,502.423C476.727,502.423 472.972,500.161 471.062,496.545C469.151,492.929 469.397,488.552 471.702,485.174C477.547,476.65 485.253,465.76 493.935,454.364" style="fill:none;stroke:rgb(59,59,59);stroke-width:15px;"/>
            </g>
            <g transform="matrix(0.965926,0.258819,-0.258819,0.965926,279.583,-105.288)">
                <path d="M509.716,434.554C510.476,433.641 510.4,433.732 511.165,432.826" style="fill:none;stroke:rgb(59,59,59);stroke-width:15px;"/>
            </g>
            <g transform="matrix(0.965926,0.258819,-0.258819,0.965926,279.583,-105.288)">
                <path d="M524.407,417.963C540.805,400.624 557.255,387.538 569.554,387.538C583.2,387.538 601.955,403.646 620.08,423.799" style="fill:none;stroke:rgb(59,59,59);stroke-width:15px;"/>
            </g>
            <g transform="matrix(0.965926,0.258819,-0.258819,0.965926,279.583,-105.288)">
                <path d="M640.246,447.982C650.931,461.639 660.476,475.07 667.405,485.175C669.709,488.553 669.955,492.928 668.045,496.544C666.134,500.159 662.381,502.421 658.292,502.421L636.632,502.422L636.632,577.075" style="fill:none;stroke:rgb(59,59,59);stroke-width:15px;"/>
            </g>
            <g transform="matrix(0.965926,0.258819,-0.258819,0.965926,279.583,-105.288)">
                <path d="M636.632,597.075L636.632,670.938" style="fill:none;stroke:rgb(59,59,59);stroke-width:15px;"/>
            </g>
            <g transform="matrix(0.965926,0.258819,-0.258819,0.965926,279.583,-105.288)">
                <path d="M636.632,701.938L636.632,704.418" style="fill:none;stroke:rgb(59,59,59);stroke-width:15px;"/>
            </g>
            <g transform="matrix(0.965926,0.258819,-0.258819,0.965926,279.583,-105.288)">
                <path d="M636.632,727.418L636.632,753.773C636.632,779.106 616.096,799.641 590.764,799.641L580.301,799.641L580.301,868.357C580.301,870.184 579.576,871.935 578.285,873.226C576.993,874.518 575.242,875.243 573.416,875.243C570.946,875.243 568.162,875.243 565.692,875.243C563.866,875.243 562.115,874.518 560.824,873.226C559.532,871.935 558.807,870.184 558.807,868.357L558.807,844.801" style="fill:none;stroke:rgb(59,59,59);stroke-width:15px;"/>
            </g>
            <g transform="matrix(0.965926,0.258819,-0.258819,0.965926,279.583,-105.288)">
                <path d="M558.807,823.801L558.807,799.641L548.344,799.641C534.862,799.641 522.738,793.824 514.345,784.563" style="fill:none;stroke:rgb(59,59,59);stroke-width:15px;"/>
            </g>
            <g transform="matrix(0.965926,0.258819,-0.258819,0.965926,279.583,-105.288)">
                <path d="M502.476,753.773L502.476,582.96" style="fill:none;stroke:rgb(59,59,59);stroke-width:15px;"/>
            </g>
        </g>
    </g>
    <g transform="matrix(0.718637,0,0,0.718637,259.999,57.2845)">
        <g transform="matrix(0.449554,0,0,0.449554,735.205,-136.008)">
            <path d="M593.072,575.085C593.105,591.068 593.162,594.999 593.162,594.999L564.809,594.999C564.809,594.999 571.897,624.534 564.809,630.441C557.721,636.347 529.368,636.347 522.279,630.441C515.191,624.534 522.279,594.999 522.279,594.999L486.838,594.999L486.838,481.588C486.838,481.588 562.727,414.24 593.162,462.614C593.129,477.145 593.105,490.12 593.087,501.698L519.692,538.396L593.072,575.085Z" style="fill:rgb(228,87,46);fill-opacity:0.76;"/>
        </g>
        <g transform="matrix(0.734937,0,0,0.734937,841.956,-204.129)">
            <path d="M217.67,409.46C217.665,419.717 217.669,427.843 217.677,434.257L192.878,421.857L217.67,409.46Z" style="fill:rgb(228,87,46);fill-opacity:0.76;"/>
        </g>
    </g>
    <defs>
        <radialGradient id="_Radial1" cx="0" cy="0" r="1" gradientUnits="userSpaceOnUse" gradientTransform="matrix(614.113,0,-0,538.9,611.245,574.485)"><stop offset="0" style="stop-color:rgb(176,254,118);stop-opacity:1"/><stop offset="0.52" style="stop-color:rgb(169,242,115);stop-opacity:1"/><stop offset="1" style="stop-color:rgb(146,201,105);stop-opacity:1"/></radialGradient>
    </defs>
</svg>
