<?xml version="1.0" encoding="UTF-8" standalone="no"?><!DOCTYPE svg PUBLIC "-//W3C//DTD SVG 1.1//EN" "http://www.w3.org/Graphics/SVG/1.1/DTD/svg11.dtd"><svg width="100%" height="100%" viewBox="0 0 800 800" version="1.1" xmlns="http://www.w3.org/2000/svg" xmlns:xlink="http://www.w3.org/1999/xlink" xml:space="preserve" xmlns:serif="http://www.serif.com/" style="fill-rule:evenodd;clip-rule:evenodd;stroke-linecap:round;stroke-linejoin:round;stroke-miterlimit:1.5;"><rect x="0" y="0" width="800" height="800" style="fill:#7f6852;fill-opacity:0.82;"/><path d="M344.144,533.974c0,-0 -184.44,17.763 -185.12,28.474c-1.774,27.954 44.981,81.168 106.614,68.078c70.15,-14.898 88.003,34.072 130.344,26.922c42.34,-7.15 82.859,-54.488 123.699,-69.822c38.494,-14.452 121.343,-22.178 121.343,-22.178l-182.177,-32.474" style="fill:#221810;"/><clipPath id="_clip1"><path d="M344.144,533.974c0,-0 -184.44,17.763 -185.12,28.474c-1.774,27.954 44.981,81.168 106.614,68.078c70.15,-14.898 88.003,34.072 130.344,26.922c42.34,-7.15 82.859,-54.488 123.699,-69.822c38.494,-14.452 121.343,-22.178 121.343,-22.178l-182.177,-32.474"/></clipPath><g clip-path="url(#_clip1)"><path d="M239,538l-93,47l0,-38l93,-9Z" style="fill:#3a200b;fill-opacity:0.55;"/></g><path d="M493.024,223.448l-194,-0c22.731,60.948 23.43,126.432 12.824,194.243c-2.415,15.966 2.253,32.192 12.783,44.434c10.529,12.242 25.874,19.284 42.022,19.284c31.28,0.039 67.058,0.039 92.542,0.039c18.684,-0 33.829,-15.146 33.829,-33.829c0,-69.981 0,-224.171 0,-224.171Z" style="fill:#e8c8b1;"/><clipPath id="_clip2"><path d="M493.024,223.448l-194,-0c22.731,60.948 23.43,126.432 12.824,194.243c-2.415,15.966 2.253,32.192 12.783,44.434c10.529,12.242 25.874,19.284 42.022,19.284c31.28,0.039 67.058,0.039 92.542,0.039c18.684,-0 33.829,-15.146 33.829,-33.829c0,-69.981 0,-224.171 0,-224.171Z"/></clipPath><g clip-path="url(#_clip2)"><path d="M442.024,276.88c-5.312,40.692 -22.136,80.091 -50,102.568l55,8l-5,-110.568Z" style="fill:#de9b6b;"/></g><path d="M361.796,482.455c-0,-0 4.963,35.973 -30.594,53.493c-2.398,16.78 48.31,53.11 69.251,51.624c20.94,-1.486 58.394,-54.598 58.394,-54.598c-19.939,-23.227 -15.329,-45.328 -19.953,-72.653" style="fill:#e8c8b1;"/><clipPath id="_clip3"><path d="M361.796,482.455c-0,-0 4.963,35.973 -30.594,53.493c-2.398,16.78 48.31,53.11 69.251,51.624c20.94,-1.486 58.394,-54.598 58.394,-54.598c-19.939,-23.227 -15.329,-45.328 -19.953,-72.653"/></clipPath><g clip-path="url(#_clip3)"><path d="M422.024,481.448c29.799,37.46 14.21,75.846 -39,115l122,-37l-49,-84l-34,6Z" style="fill:#de9b6b;"/></g><path d="M413.024,370.448c0,-0 -85.021,-44.921 -114,30c-10.395,26.875 13.578,80.653 52,81c75.664,0.683 151.528,29.471 152,-75c13.198,2.799 -16.397,-81.373 0.457,-97.639c21.997,-21.229 25.252,-52.798 24.753,-61.918c-0.556,-10.186 -14.274,-0.474 -25.259,-7.509c-8.493,-5.44 -9.951,-15.934 -9.951,-15.934c1.296,-42.027 -29.222,-68.654 -57.352,-35.786c-7.485,-29.196 -47.829,-53.836 -85.849,-43.379c-17.068,4.695 -29.959,20.045 -50.799,28.165c0,-0 -51.192,-57.127 -102,44c-50.807,101.126 59.282,59.658 121.25,26c44.822,-24.346 13.386,-15.944 30.961,17.091c4.929,9.265 46.933,-9.367 53.789,5.909c3.805,8.477 31.851,1.415 34.264,8.825c18.032,55.363 -24.264,96.175 -24.264,96.175Z" style="fill:#694d33;"/><clipPath id="_clip4"><path d="M413.024,370.448c0,-0 -85.021,-44.921 -114,30c-10.395,26.875 13.578,80.653 52,81c75.664,0.683 151.528,29.471 152,-75c13.198,2.799 -16.397,-81.373 0.457,-97.639c21.997,-21.229 25.252,-52.798 24.753,-61.918c-0.556,-10.186 -14.274,-0.474 -25.259,-7.509c-8.493,-5.44 -9.951,-15.934 -9.951,-15.934c1.296,-42.027 -29.222,-68.654 -57.352,-35.786c-7.485,-29.196 -47.829,-53.836 -85.849,-43.379c-17.068,4.695 -29.959,20.045 -50.799,28.165c0,-0 -51.192,-57.127 -102,44c-50.807,101.126 59.282,59.658 121.25,26c44.822,-24.346 13.386,-15.944 30.961,17.091c4.929,9.265 46.933,-9.367 53.789,5.909c3.805,8.477 31.851,1.415 34.264,8.825c18.032,55.363 -24.264,96.175 -24.264,96.175Z"/></clipPath><g clip-path="url(#_clip4)"><path d="M495.024,308.448c2.695,46.658 -37.21,168.724 -109,187.136l226,-10l-83.744,-247.657c0,0 -34.69,45.671 -33.256,70.521Z" style="fill:#5b422c;"/></g><circle cx="338.024" cy="283.448" r="5"/><circle cx="391.024" cy="283.448" r="5"/><circle cx="394.524" cy="282.578" r="1.5" style="fill:#fff;"/><circle cx="341.524" cy="282.578" r="1.5" style="fill:#fff;"/><path d="M366.942,305.385c-0,-0 -15,18.5 -14,22c1,3.5 20,1 20,1" style="fill:none;stroke:#000;stroke-width:2.5px;"/><path d="M338.024,267.948c8.555,-0 15.5,6.945 15.5,15.5c0,8.554 -6.945,15.5 -15.5,15.5c-8.554,-0 -15.5,-6.946 -15.5,-15.5c0,-8.555 6.946,-15.5 15.5,-15.5Zm0,0.63c8.207,0 14.87,6.663 14.87,14.87c-0,8.206 -6.663,14.869 -14.87,14.869c-8.206,0 -14.869,-6.663 -14.869,-14.869c-0,-8.207 6.663,-14.87 14.869,-14.87Z" style="stroke:#000;stroke-width:2.43px;"/><path d="M391.024,268.578c8.555,0 15.5,6.945 15.5,15.5c0,8.555 -6.945,15.5 -15.5,15.5c-8.554,0 -15.5,-6.945 -15.5,-15.5c0,-8.555 6.946,-15.5 15.5,-15.5Zm0,0.631c8.207,-0 14.87,6.662 14.87,14.869c-0,8.207 -6.663,14.87 -14.87,14.87c-8.206,-0 -14.869,-6.663 -14.869,-14.87c-0,-8.207 6.663,-14.869 14.869,-14.869Z" style="stroke:#000;stroke-width:2.43px;"/><path d="M353.524,283.448l22.631,0.63" style="fill:none;stroke:#000;stroke-width:2.43px;"/><path d="M406.524,284.078l65.5,-16.63" style="fill:none;stroke:#000;stroke-width:2.43px;"/><path d="M322.524,283.448l-8.5,0.315" style="fill:none;stroke:#000;stroke-width:2.43px;"/><path d="M462.521,271.394l2,25.87c-0,-0 13.375,-7.562 13,-17.87c-0.559,-15.359 -15,-8 -15,-8Z" style="fill:#e8c8b1;"/><path d="M338.024,399.448c0,-0 20.08,21.066 45,-0" style="fill:none;stroke:#000;stroke-width:2.5px;"/><path d="M467.024,273.448c0,-0 7.184,-1.703 7,7" style="fill:none;stroke:#de9b6b;stroke-width:2.5px;"/><path d="M227.024,200.448c0,-0 -25.073,13.217 -25,44" style="fill:none;stroke:#fff;stroke-width:2.5px;"/><path d="M202.025,252.555c-0,0 -0.257,18.649 14.321,9.754" style="fill:none;stroke:#fff;stroke-width:2.5px;"/><path d="M206.024,558.448c0,-0 -33.666,0.766 -25,21" style="fill:none;stroke:#fff;stroke-width:2.5px;"/></svg>