<?xml version="1.0" encoding="UTF-8" standalone="no"?><!DOCTYPE svg PUBLIC "-//W3C//DTD SVG 1.1//EN" "http://www.w3.org/Graphics/SVG/1.1/DTD/svg11.dtd"><svg width="100%" height="100%" viewBox="0 0 800 800" version="1.1" xmlns="http://www.w3.org/2000/svg" xmlns:xlink="http://www.w3.org/1999/xlink" xml:space="preserve" xmlns:serif="http://www.serif.com/" style="fill-rule:evenodd;clip-rule:evenodd;stroke-linecap:round;stroke-linejoin:round;stroke-miterlimit:1.5;"><rect x="-3" y="-3" width="803" height="803" style="fill:url(#_Linear1);"/><path d="M457.432,358.806l165.35,-79.242l-2.747,163.977l-162.603,-84.735Z" style="fill:#61b3bb;fill-opacity:0.41;"/><path d="M278.123,152.89l-77.135,166.343l-102.221,-128.245l179.356,-38.098Z" style="fill:#61b3bb;fill-opacity:0.41;"/><path d="M173,152.89c0,-0 -37.361,107.447 81,99.171" style="fill:none;stroke:#fff1fd;stroke-opacity:0.31;stroke-width:12.88px;"/><path d="M521.283,457.085c-0,0 137.787,-103.344 -18.466,-191.065" style="fill:none;stroke:#fff1fd;stroke-opacity:0.31;stroke-width:6.94px;"/><g id="Layer1"><path d="M408.641,246.475c-0,0 7.075,57.824 -95.856,40.56c0,0 -7.835,122.625 -13.915,140.051c-5.919,16.964 -73.433,0.365 -73.433,0.365c54.087,-57.693 37.558,-113.854 51.44,-167.321c18.998,-73.176 57.124,-96.668 115.92,-100.794c58.797,-4.126 109.242,30.08 135.898,84.586c26.656,54.505 33.629,132.011 54.889,249.118c19.199,105.753 -170.697,-142.796 -95.791,-157.64c31.159,-6.175 -0.896,-102.682 -53.6,-98.007c-24.371,2.162 -24.372,25.603 -25.552,9.082" style="fill:#bd2960;"/><clipPath id="_clip2"><path d="M408.641,246.475c-0,0 7.075,57.824 -95.856,40.56c0,0 -7.835,122.625 -13.915,140.051c-5.919,16.964 -73.433,0.365 -73.433,0.365c54.087,-57.693 37.558,-113.854 51.44,-167.321c18.998,-73.176 57.124,-96.668 115.92,-100.794c58.797,-4.126 109.242,30.08 135.898,84.586c26.656,54.505 33.629,132.011 54.889,249.118c19.199,105.753 -170.697,-142.796 -95.791,-157.64c31.159,-6.175 -0.896,-102.682 -53.6,-98.007c-24.371,2.162 -24.372,25.603 -25.552,9.082"/></clipPath><g clip-path="url(#_clip2)"><g id="Layer8"><path d="M524.319,227.674c0,-0 29.765,128.534 33.636,169.565c3.644,38.626 21.034,95.17 3.195,120.999c27.767,51.359 50.037,-66.924 50.037,-66.924" style="fill:#84304f;"/></g></g></g><path d="M496.958,236.808c0,-13.312 -34.081,-18.895 -47.393,-18.895c-42.229,-0 -84.362,-9.222 -126.591,-9.222c-13.312,-0 -24.104,10.792 -24.104,24.104l-0,131.17c-0,54.203 43.94,98.144 98.144,98.144l23.254,-0c54.204,-0 98.144,-43.941 98.144,-98.144c0,-17.302 3.283,-40.518 -2.734,-56.904c-3.304,-8.998 0.098,-16.664 -2.559,-24.498c-5.839,-17.216 -16.161,-32.569 -16.161,-45.755Z" style="fill:#ffcba2;"/><clipPath id="_clip3"><path d="M496.958,236.808c0,-13.312 -34.081,-18.895 -47.393,-18.895c-42.229,-0 -84.362,-9.222 -126.591,-9.222c-13.312,-0 -24.104,10.792 -24.104,24.104l-0,131.17c-0,54.203 43.94,98.144 98.144,98.144l23.254,-0c54.204,-0 98.144,-43.941 98.144,-98.144c0,-17.302 3.283,-40.518 -2.734,-56.904c-3.304,-8.998 0.098,-16.664 -2.559,-24.498c-5.839,-17.216 -16.161,-32.569 -16.161,-45.755Z"/></clipPath><g clip-path="url(#_clip3)"><path d="M520.102,323.957l-5.507,-0.388c-0,-0 2.81,58.641 -20.317,93.636c-13.42,20.305 -28.098,27.792 -41.049,33.706m-0,-0l42.8,-0l33.088,-104.098l-9.015,-22.856" style="fill:#e4a97b;"/></g><circle cx="344.481" cy="313.035" r="5.974" style="stroke:#000;stroke-width:0.75px;"/><circle cx="406.017" cy="313.25" r="5.974" style="stroke:#000;stroke-width:0.75px;"/><circle cx="409.088" cy="311.369" r="1.881" style="fill:#fff;"/><circle cx="347.764" cy="311.369" r="1.881" style="fill:#fff;"/><g id="Layer3"><path d="M379.274,198.151c-0,-0 7.91,71.995 33.056,87.668c25.147,15.672 80.108,17.703 117.823,6.368l-44.716,-83.496l-106.163,-10.54Z" style="fill:#bd2960;"/><path d="M389.642,206.436c0,-0 -37.424,87.959 -101.589,67.425l14.92,-68.791l86.669,1.366Z" style="fill:#bd2960;"/><g id="Layer9"><path d="M325.096,196.968c0,0 -19.067,10.969 -25.255,26.528" style="fill:none;stroke:#fff;stroke-width:3.39px;"/><path d="M503.557,227.908c-0,-0 12.856,22.279 11.285,40.97" style="fill:none;stroke:#fff;stroke-width:3.39px;"/><path d="M296.74,230.129c0.202,0.097 -0.202,1.354 -0.901,2.805c-0.7,1.45 -1.431,2.549 -1.633,2.452c-0.202,-0.098 0.202,-1.354 0.901,-2.805c0.699,-1.451 1.431,-2.549 1.633,-2.452Z" style="fill:none;stroke:#fff;stroke-width:3.38px;"/><path d="M496.311,222.201c-0.137,0.178 -1.283,-0.477 -2.558,-1.46c-1.275,-0.984 -2.199,-1.927 -2.062,-2.104c0.137,-0.178 1.283,0.477 2.558,1.461c1.275,0.983 2.199,1.926 2.062,2.103Z" style="fill:none;stroke:#fff;stroke-width:3.38px;"/></g></g><g id="Layer4"><path d="M348.358,512.142c4.507,15.802 -121.425,-9.208 -166.279,95.593c0,0 72.794,44.231 116.791,30.687c73.822,-22.726 179.873,-37.929 212.511,-30.437c57.994,22.405 111.139,1.693 102.642,-0.25c-0,0 1.221,-61.508 -73.159,-88.575c-52.11,-18.962 -72.961,-6.934 -72.961,-6.934" style="fill:#61b3bb;"/><clipPath id="_clip4"><path d="M348.358,512.142c4.507,15.802 -121.425,-9.208 -166.279,95.593c0,0 72.794,44.231 116.791,30.687c73.822,-22.726 179.873,-37.929 212.511,-30.437c57.994,22.405 111.139,1.693 102.642,-0.25c-0,0 1.221,-61.508 -73.159,-88.575c-52.11,-18.962 -72.961,-6.934 -72.961,-6.934"/></clipPath><g clip-path="url(#_clip4)"><path d="M493.406,508.557c110.212,70.666 53.62,110.157 -38.978,122.115c73.024,22.168 145.24,16.041 216.485,-24.054c41.036,-120.902 -10.409,-160.388 -177.507,-98.061Z" style="fill:#448d94;"/></g><path d="M469.347,448.896c0,0 -14.525,44.852 17.162,59.862c-0,0 -61.666,72.988 -88.04,77.727c-26.375,4.738 -69.021,-38.256 -71.07,-48.844c-0.866,-4.475 5.857,-11.571 8.916,-14.826c18.651,-19.844 30.576,-50.322 23.975,-70.27" style="fill:#ffcba2;"/><clipPath id="_clip5"><path d="M469.347,448.896c0,0 -14.525,44.852 17.162,59.862c-0,0 -61.666,72.988 -88.04,77.727c-26.375,4.738 -69.021,-38.256 -71.07,-48.844c-0.866,-4.475 5.857,-11.571 8.916,-14.826c18.651,-19.844 30.576,-50.322 23.975,-70.27"/></clipPath><g clip-path="url(#_clip5)"><path d="M457.955,450.223c-8.855,4.209 -19.018,7.046 -32.552,11.886c-32.242,11.531 -63.392,-6.776 -63.392,-6.776c0,-0 -2.91,19.153 -6.189,20.246c-3.279,1.093 76.412,14.455 98.271,-7.677c0.528,5.627 8.845,77.108 -54.361,102.83c-99.992,30.888 -1.68,31.794 -1.68,31.794l73.041,-42.954l15.416,-51.107l4.843,-59.569l-33.397,1.327Z" style="fill:#da9d6d;fill-opacity:0.74;"/></g></g><g id="Layer2"><path d="M320.167,285.374c1.659,7.584 4.754,-11.344 35.022,0" style="fill:none;stroke:#000;stroke-width:3.39px;"/><path d="M432.55,297.799c-9.397,0.74 -14.62,-14.367 -41.42,0.581m-17.6,48.676c0,0 -22.681,14.676 -8.672,27.351c14.009,12.675 18.012,-15.343 25.35,-2.001m-41.85,44.589c24.301,23.224 60.008,-0.021 67.38,-2.019" style="fill:none;stroke:#000;stroke-width:3.39px;"/></g><path d="M509.541,287.452c-2.319,7.027 -4.428,40.087 -4.428,40.087c9.435,0.509 21.929,-0.863 27.402,-8.22c8.219,-11.048 6.778,-33.493 -13.492,-33.943c-2.523,-0.056 -8.621,-0.533 -9.482,2.076Z" style="fill:#ffcba2;"/><clipPath id="_clip6"><path d="M509.541,287.452c-2.319,7.027 -4.428,40.087 -4.428,40.087c9.435,0.509 21.929,-0.863 27.402,-8.22c8.219,-11.048 6.778,-33.493 -13.492,-33.943c-2.523,-0.056 -8.621,-0.533 -9.482,2.076Z"/></clipPath><g clip-path="url(#_clip6)"><g id="Layer6"><path d="M521.249,327.19l-6.492,-3.721l1.355,6.651l5.137,-2.93Z" style="fill:#e4a97b;stroke:#e4a97b;stroke-width:1.57px;"/></g></g><g id="Layer5"><path d="M516.616,295.243c-0,0 14.864,-6.837 15.301,11.227" style="fill:none;stroke:#da9d6d;stroke-width:1.57px;"/></g><g id="Layer7"><path d="M457.139,449.943l-2.19,3.808l10.758,2.384l3.728,-9.23l-12.296,3.038Z" style="fill:#e4a97b;stroke:#e4a97b;stroke-width:1.57px;"/></g><defs><linearGradient id="_Linear1" x1="0" y1="0" x2="1" y2="0" gradientUnits="userSpaceOnUse" gradientTransform="matrix(513,596,-596,513,155,95)"><stop offset="0" style="stop-color:#ffdfe1;stop-opacity:1"/><stop offset="0.14" style="stop-color:#f8bbbe;stop-opacity:1"/><stop offset="0.3" style="stop-color:#f0959b;stop-opacity:1"/><stop offset="0.7" style="stop-color:#ec848a;stop-opacity:1"/><stop offset="1" style="stop-color:#da81ec;stop-opacity:1"/></linearGradient></defs></svg>