<?xml version="1.0" encoding="UTF-8" standalone="no"?>
<!DOCTYPE svg PUBLIC "-//W3C//DTD SVG 1.1//EN" "http://www.w3.org/Graphics/SVG/1.1/DTD/svg11.dtd">
<svg width="100%" height="100%" viewBox="0 0 1080 1080" version="1.1" xmlns="http://www.w3.org/2000/svg" xmlns:xlink="http://www.w3.org/1999/xlink" xml:space="preserve" xmlns:serif="http://www.serif.com/" style="fill-rule:evenodd;clip-rule:evenodd;stroke-linecap:round;stroke-linejoin:round;stroke-miterlimit:1.5;">
    <rect x="-62" y="-25" width="1756" height="1155" style="fill:rgb(119,221,119);fill-opacity:0.88;"/>
    <g transform="matrix(0.73081,0,0,1,83.2868,14.2997)">
        <ellipse cx="624.941" cy="746" rx="390.059" ry="29" style="fill-opacity:0.47;"/>
    </g>
    <g transform="matrix(0.292862,0.169084,-0.169084,0.292862,366.631,394.522)">
        <g transform="matrix(0.449554,0,0,0.449554,735.205,-136.008)">
            <path d="M593.072,575.085C593.105,591.068 593.162,594.999 593.162,594.999L564.809,594.999C564.809,594.999 571.897,624.534 564.809,630.441C557.721,636.347 529.368,636.347 522.279,630.441C515.191,624.534 522.279,594.999 522.279,594.999L486.838,594.999L486.838,481.588C486.838,481.588 562.727,414.24 593.162,462.614C593.129,477.145 593.105,490.12 593.087,501.698L519.692,538.396L593.072,575.085Z" style="fill:white;fill-opacity:0.17;"/>
        </g>
        <g transform="matrix(0.734937,0,0,0.734937,841.956,-204.129)">
            <path d="M217.67,409.46C217.665,419.717 217.669,427.843 217.677,434.257L192.878,421.857L217.67,409.46Z" style="fill:white;fill-opacity:0.17;"/>
        </g>
    </g>
    <g transform="matrix(1.12541,0,0,1.12541,-147.077,-26.4318)">
        <g>
            <g transform="matrix(0.81851,0,0,1,73.1908,0)">
                <path d="M886,697C772.723,696.258 431.523,697 404.332,697C404.818,687.992 399.648,674.449 408.559,667.206C418.149,659.411 432.281,665.479 442.428,666.671C448.715,667.41 454.062,661.922 454.803,655.991C455.067,653.874 455.053,651.706 454.779,649.59C448.941,629.287 455.522,608.069 457.831,587.962C460.16,567.683 457.733,565.15 462.497,545.137C471.031,509.292 514.054,501.481 544.855,498.415C555.683,497.338 566.574,497.044 577.428,496.272C595.018,495.021 613.898,491.437 631.104,497.795C659.196,508.174 682.753,527.484 707.304,543.9C714.148,548.476 724.924,555.023 733,557.222C768.237,566.817 805.276,563.88 841.222,566.583C856.491,567.732 872.655,570.982 885.651,579.638C895.791,586.392 899.265,597.996 900.682,609.564C903.109,629.373 902.094,650.328 897.604,669.792C895.842,677.431 892.221,690.779 886,697Z" style="fill:none;stroke:rgb(53,55,36);stroke-width:16.37px;"/>
            </g>
            <path d="M419.892,302.976C423.46,300.483 463.652,281.026 478.12,282.339C491.273,283.532 504.188,293.967 513.5,301.837C518.686,275.994 582.887,258.453 607.509,293.243C614.251,302.77 611.833,316.542 622.31,323.393C626.247,325.967 633.761,326.388 638.218,326.085C647.716,325.438 662.723,322.613 672.308,322.875C679.648,323.076 689.282,324.867 692.716,332.503C695.062,337.721 697.21,343.09 698.496,348.665C699.825,354.425 700.194,360.381 700.51,366.284C700.793,371.579 700.645,376.899 700.289,382.19C699.922,387.648 698.071,399.841 695.07,404.688C702.401,406.215 710.228,407.981 716.774,411.878C740.422,425.957 725.476,457.919 717.26,476.349C714.562,482.402 711.406,488.249 708.866,494.37C695.812,525.83 697.71,526.48 683.497,557.292C678.448,568.236 671.531,583.043 659.883,589.125C654.244,592.07 650.639,591.477 645.247,588.515C643.405,587.503 641.674,583.344 639.107,583.165C633.936,582.804 626.117,585.85 621.734,588.209C609.758,594.653 597.973,601.45 586.219,608.29C571.545,616.831 556.889,628.075 540.022,632.368C537.249,633.074 537.049,630.763 534.765,630.25C527.366,628.588 519.797,627.764 512.378,626.19C481.505,619.64 450.971,626.387 426.307,604.352C425.603,603.971 434.989,582.804 429.817,583.165C427.251,583.344 414.68,592.07 409.042,589.125C397.393,583.043 390.476,568.236 385.428,557.292C371.214,526.48 373.113,525.83 360.058,494.37C357.519,488.249 354.363,482.402 351.665,476.349C343.449,457.919 328.503,425.957 352.151,411.878C358.697,407.981 366.524,406.215 373.855,404.688C370.853,399.841 369.003,387.648 368.635,382.19C368.279,376.899 368.131,371.579 368.414,366.284C368.73,360.381 369.1,354.425 370.429,348.665C371.715,343.09 372.522,336.879 376.209,332.503C382.643,324.867 389.276,323.076 396.617,322.875C405.764,322.625 410.409,320.187 419.93,320.983C420.841,318.479 413.339,307.553 419.892,302.976ZM470.833,490.134C487.022,516.556 499.335,545.876 513.128,573.5C537.68,566.849 556.456,549.837 574.114,532.499C583.59,523.193 598.273,511.371 602.016,497.324C602.646,494.96 599.761,491.203 599.308,489.2C598.698,486.497 598.151,483.712 598.318,480.946C599.699,457.976 609.491,436.592 621.43,417.312C614.372,403.329 608.948,395.266 598.364,383.704C580.384,364.065 550.94,362.552 527.925,373.687C499.405,387.485 478.32,416.387 465.303,445.888C467.748,460.796 469.684,476.343 470.833,490.134ZM458.742,462.723C458.46,463.551 458.185,464.379 457.916,465.205C456.922,468.262 457.65,471.257 459.148,474.097C459.023,470.323 458.887,466.53 458.742,462.723Z" style="fill:none;stroke:rgb(53,55,36);stroke-width:14.96px;"/>
            <path d="M864.153,583.355C864.142,582.638 864.166,581.903 864.236,581.158C864.812,575.045 868.468,568.295 880.788,565.75C883.963,585.703 877.55,589.647 872.002,591.131C868.827,595.235 854.236,607.465 820.165,597.774C819.794,597.668 819.391,597.758 819,597.75C783.793,597.003 798.876,615.25 798.876,615.25L792,609.25C792,609.25 760.392,567.748 811.457,586.25C850.207,600.29 859.406,587.866 864.153,583.355Z" style="fill:rgb(255,203,119);"/>
            <clipPath id="_clip1">
                <path d="M864.153,583.355C864.142,582.638 864.166,581.903 864.236,581.158C864.812,575.045 868.468,568.295 880.788,565.75C883.963,585.703 877.55,589.647 872.002,591.131C868.827,595.235 854.236,607.465 820.165,597.774C819.794,597.668 819.391,597.758 819,597.75C783.793,597.003 798.876,615.25 798.876,615.25L792,609.25C792,609.25 760.392,567.748 811.457,586.25C850.207,600.29 859.406,587.866 864.153,583.355Z"/>
            </clipPath>
            <g clip-path="url(#_clip1)">
                <path d="M882.111,563.02C877.045,563.02 872.002,562.678 867.558,565.507C865.331,566.924 863.285,579.952 862.313,582.324C860.186,587.518 868.182,579.537 872.081,584.216C874.509,587.13 869.929,591.153 873.446,591.95C875.364,592.385 878.197,594.087 880.111,594.529C884.472,595.535 889.409,596.162 893.882,595.596C897.162,595.182 900.751,593.793 903.12,591.424C904.708,589.836 905.475,587.621 906.201,585.559C908.407,579.291 907.457,571.622 903.58,566.194C901.722,563.593 898.743,561.98 895.909,560.681C890.126,558.031 883.457,556.359 877.092,556.359" style="fill:none;"/>
            </g>
            <path d="M864.153,583.355C864.142,582.638 864.166,581.903 864.236,581.158C864.812,575.045 868.468,568.295 880.788,565.75C883.963,585.703 877.55,589.647 872.002,591.131C868.827,595.235 854.236,607.465 820.165,597.774C819.794,597.668 819.391,597.758 819,597.75C783.793,597.003 798.876,615.25 798.876,615.25L792,609.25C792,609.25 760.392,567.748 811.457,586.25C850.207,600.29 859.406,587.866 864.153,583.355Z" style="fill:none;stroke:rgb(53,55,36);stroke-width:14.96px;"/>
        </g>
        <g transform="matrix(0.81851,0,0,1,73.1908,0)">
            <path d="M886,697C772.723,696.258 431.523,697 404.332,697C404.818,687.992 399.648,674.449 408.559,667.206C418.149,659.411 432.281,665.479 442.428,666.671C448.715,667.41 454.062,661.922 454.803,655.991C455.067,653.874 455.053,651.706 454.779,649.59C448.941,629.287 455.522,608.069 457.831,587.962C460.16,567.683 457.733,565.15 462.497,545.137C471.031,509.292 514.054,501.481 544.855,498.415C555.683,497.338 566.574,497.044 577.428,496.272C595.018,495.021 613.898,491.437 631.104,497.795C659.196,508.174 682.753,527.484 707.304,543.9C714.148,548.476 724.924,555.023 733,557.222C768.237,566.817 805.276,563.88 841.222,566.583C856.491,567.732 872.655,570.982 885.651,579.638C895.791,586.392 899.265,597.996 900.682,609.564C903.109,629.373 902.094,650.328 897.604,669.792C895.842,677.431 892.221,690.779 886,697Z" style="fill:rgb(255,203,119);"/>
            <clipPath id="_clip2">
                <path d="M886,697C772.723,696.258 431.523,697 404.332,697C404.818,687.992 399.648,674.449 408.559,667.206C418.149,659.411 432.281,665.479 442.428,666.671C448.715,667.41 454.062,661.922 454.803,655.991C455.067,653.874 455.053,651.706 454.779,649.59C448.941,629.287 455.522,608.069 457.831,587.962C460.16,567.683 457.733,565.15 462.497,545.137C471.031,509.292 514.054,501.481 544.855,498.415C555.683,497.338 566.574,497.044 577.428,496.272C595.018,495.021 613.898,491.437 631.104,497.795C659.196,508.174 682.753,527.484 707.304,543.9C714.148,548.476 724.924,555.023 733,557.222C768.237,566.817 805.276,563.88 841.222,566.583C856.491,567.732 872.655,570.982 885.651,579.638C895.791,586.392 899.265,597.996 900.682,609.564C903.109,629.373 902.094,650.328 897.604,669.792C895.842,677.431 892.221,690.779 886,697Z"/>
            </clipPath>
            <g clip-path="url(#_clip2)">
                <g id="Layer1" transform="matrix(1.22173,0,0,1,-89.4196,0)">
                    <path d="M807.258,595.878C809.869,622.303 807.202,652.248 795.417,676.312C793.197,680.844 779.111,700.094 779.111,700.094C779.111,700.094 789.605,700.316 792.716,701.2C796.21,702.192 799.807,703.264 803.437,703.142C822.049,702.517 827.636,676.036 831.068,663.237C833.008,656.002 834.363,648.62 835.81,641.271C838.385,628.196 839.719,610.381 824.955,604.098L807.258,595.878Z" style="fill:rgb(255,171,81);"/>
                    <path d="M679.043,662.796C673.826,670.122 645.08,679.813 629.267,685.513C615.639,690.424 575.162,700.177 569.961,700.535C568.204,700.655 587.479,699.91 585.731,700.099C585.136,700.164 584.543,700.221 583.952,700.315C583.864,700.329 582.991,700.467 583.031,700.523C583.453,701.123 585.215,701.532 585.815,701.695C588.833,702.513 591.979,703.034 595.046,703.642C602.501,705.12 610.543,705.863 618.163,705.308C623.503,704.919 661.796,701.809 667.124,701.283C670.61,700.939 674.462,700.631 677.964,700.815C678.792,700.858 681.057,701.308 681.181,700.313" style="fill:rgb(255,171,81);"/>
                    <path d="M489.257,667.821C486.098,669.945 483.568,675.326 480.792,677.775C471.286,686.159 455.736,690.51 444.431,693.916C438.367,695.743 427.462,697.604 420.987,698.631C419.821,698.816 418.645,698.947 417.469,699.047C416.867,699.098 415.056,699.029 415.657,699.086C444.181,701.781 444.098,701.77 472.702,701.578C476.594,701.551 480.488,701.483 484.375,701.288C485.147,701.25 487.592,700.29 488.378,701.242" style="fill:rgb(255,171,81);"/>
                    <path d="M686.671,558.113C684.511,558.113 682.875,561.782 681.858,562.925C677.313,568.037 676.517,567.278 672.917,573.127C672.219,574.262 671.689,577.082 673.02,577.121C694.427,577.754 715.861,574.849 737.268,575.477C758.708,576.107 780.079,580.578 801.526,580.894C802.382,580.907 801.433,579.052 800.863,578.414C799.725,577.138 798.097,576.401 796.673,575.454C794.14,573.77 791.315,572.49 788.994,570.523C788.01,569.69 788.161,567.716 786.967,567.23C782.741,565.511 774.047,566.471 769.745,566.471" style="fill:rgb(255,171,81);"/>
                    <g transform="matrix(1,0,0,1,5,0.767868)">
                        <path d="M444.679,612.747C445.456,615.481 443.257,619.142 442.911,621.653C442.235,626.565 441.619,631.509 441.574,636.467C441.518,642.579 442.766,648.665 442.608,654.775C442.539,657.468 441.778,660.128 440.901,662.675C439.38,667.087 432.979,668.145 429.251,668.3C421.998,668.601 410.893,665.514 404.688,671.747C401.214,675.237 398.568,681.84 397.238,686.418C396.923,687.502 397.408,691.384 395.59,692.19C392.636,693.501 391.858,683.896 391.858,683.695C391.861,673.018 396.227,663.43 404.2,656.353C407.337,653.568 411.265,651.139 415.585,650.764C419.473,650.426 427.101,653.489 430.778,649.994C432.188,648.654 431.16,646.463 430.948,645.066C429.683,636.736 428.315,628.419 427.297,620.055C426.738,615.462 424.981,605.902 433.242,607.78C436.7,608.567 440.878,612.747 444.679,612.747Z" style="fill:rgb(255,228,160);"/>
                    </g>
                    <g transform="matrix(0.728316,0,0,0.643342,201.638,247.841)">
                        <path d="M466.885,631.611C468.24,634.452 469.083,638.563 468.715,641.716C468.384,644.544 467.71,647.336 466.868,650.056C465.886,653.224 464.986,656.497 463.258,659.328C461.652,661.957 456.823,664.157 454.01,664.715C440.755,667.341 440.749,666.386 427.234,665.545C422.078,665.224 415.573,664.456 410.473,666.037C401.882,668.701 399.497,679.224 397.238,686.418C396.871,687.588 396.952,688.865 396.615,690.044C396.397,690.806 396.071,692.82 395.59,692.19C393.993,690.101 392.832,682.031 392.762,679.647C392.337,665.044 403.473,651.94 417.81,649.526C423.149,648.627 427.433,649.155 432.679,651.01C436.144,652.235 440.142,656.663 444.359,656.123C452.505,655.081 457.172,648.103 460.802,641.41C462.179,638.871 462.119,631.611 466.885,631.611Z" style="fill:rgb(255,228,160);"/>
                    </g>
                    <g transform="matrix(0.728316,0,0,0.643342,392.638,244.352)">
                        <path d="M461.393,619.674C464.152,625.459 462.866,632.236 461.375,638.119C460.061,643.307 456.962,651.985 453.54,656.263C451.807,658.43 446.363,660.253 443.818,660.602C438.657,661.309 432.956,664.545 427.308,665.073C421.413,665.624 415.576,663.502 410.473,666.037C402.768,669.866 399.836,679.034 397.238,686.418C396.831,687.575 396.952,688.865 396.615,690.044C396.397,690.806 396.182,692.718 395.59,692.19C393.917,690.698 392.557,683.824 392.681,681.846C393.402,670.344 397.798,659.722 407.788,653.197C412.968,649.814 419.273,648.968 425.279,649.235C430.442,649.464 436.528,652.565 441.613,649.642C449.043,645.371 452.37,637.005 455.31,629.473C456.455,626.538 456.411,619.674 461.393,619.674Z" style="fill:rgb(255,228,160);"/>
                    </g>
                </g>
            </g>
        </g>
        <g transform="matrix(1,0,0,1,82.7757,2)">
            <path d="M405.388,697.064C400.237,690.3 404.571,666.571 412.256,665.25C426.603,662.784 458.276,677.634 454.779,650.59" style="fill:none;stroke:rgb(53,55,36);stroke-width:8.67px;"/>
        </g>
        <g transform="matrix(1,0,0,1,272.455,3)">
            <path d="M406.538,696.064C401.155,688.637 404.498,661.584 412.256,660.25C426.603,657.784 452.276,666.634 448.779,639.59" style="fill:none;stroke:rgb(53,55,36);stroke-width:8.67px;stroke-linejoin:miter;"/>
        </g>
        <path d="M419.892,302.976C423.46,300.483 463.652,281.026 478.12,282.339C491.273,283.532 504.188,293.967 513.5,301.837C518.686,275.994 582.887,258.453 607.509,293.243C614.251,302.77 611.833,316.542 622.31,323.393C626.247,325.967 633.761,326.388 638.218,326.085C647.716,325.438 662.723,322.613 672.308,322.875C679.648,323.076 689.282,324.867 692.716,332.503C695.062,337.721 697.21,343.09 698.496,348.665C699.825,354.425 700.194,360.381 700.51,366.284C700.793,371.579 700.645,376.899 700.289,382.19C699.922,387.648 698.071,399.841 695.07,404.688C702.401,406.215 710.228,407.981 716.774,411.878C740.422,425.957 725.476,457.919 717.26,476.349C714.562,482.402 711.406,488.249 708.866,494.37C695.812,525.83 697.71,526.48 683.497,557.292C678.448,568.236 671.531,583.043 659.883,589.125C654.244,592.07 650.639,591.477 645.247,588.515C643.405,587.503 641.674,583.344 639.107,583.165C633.936,582.804 626.117,585.85 621.734,588.209C609.758,594.653 597.973,601.45 586.219,608.29C571.545,616.831 556.889,628.075 540.022,632.368C537.249,633.074 537.049,630.763 534.765,630.25C527.366,628.588 519.797,627.764 512.378,626.19C481.505,619.64 450.971,626.387 426.307,604.352C425.603,603.971 434.989,582.804 429.817,583.165C427.251,583.344 414.68,592.07 409.042,589.125C397.393,583.043 390.476,568.236 385.428,557.292C371.214,526.48 373.113,525.83 360.058,494.37C357.519,488.249 354.363,482.402 351.665,476.349C343.449,457.919 328.503,425.957 352.151,411.878C358.697,407.981 366.524,406.215 373.855,404.688C370.853,399.841 369.003,387.648 368.635,382.19C368.279,376.899 368.131,371.579 368.414,366.284C368.73,360.381 369.1,354.425 370.429,348.665C371.715,343.09 372.476,336.84 376.209,332.503C383.643,323.867 389.276,323.076 396.617,322.875C405.764,322.625 410.409,320.187 419.93,320.983C420.841,318.479 413.339,307.553 419.892,302.976ZM470.833,490.134C487.022,516.556 500.335,542.876 514.128,570.5C538.68,563.849 556.456,549.837 574.114,532.499C583.59,523.193 598.273,511.371 602.016,497.324C602.646,494.96 599.761,491.203 599.308,489.2C598.698,486.497 598.151,483.712 598.318,480.946C599.699,457.976 609.491,436.592 621.43,417.312C614.372,403.329 608.948,395.266 598.364,383.704C580.384,364.065 550.94,362.552 527.925,373.687C499.405,387.485 478.32,416.387 465.303,445.888C467.748,460.796 469.684,476.343 470.833,490.134ZM458.742,462.723C458.46,463.551 458.185,464.379 457.916,465.205C456.922,468.262 457.65,471.257 459.148,474.097C459.023,470.323 458.887,466.53 458.742,462.723Z" style="fill:rgb(214,146,36);"/>
        <clipPath id="_clip3">
            <path d="M419.892,302.976C423.46,300.483 463.652,281.026 478.12,282.339C491.273,283.532 504.188,293.967 513.5,301.837C518.686,275.994 582.887,258.453 607.509,293.243C614.251,302.77 611.833,316.542 622.31,323.393C626.247,325.967 633.761,326.388 638.218,326.085C647.716,325.438 662.723,322.613 672.308,322.875C679.648,323.076 689.282,324.867 692.716,332.503C695.062,337.721 697.21,343.09 698.496,348.665C699.825,354.425 700.194,360.381 700.51,366.284C700.793,371.579 700.645,376.899 700.289,382.19C699.922,387.648 698.071,399.841 695.07,404.688C702.401,406.215 710.228,407.981 716.774,411.878C740.422,425.957 725.476,457.919 717.26,476.349C714.562,482.402 711.406,488.249 708.866,494.37C695.812,525.83 697.71,526.48 683.497,557.292C678.448,568.236 671.531,583.043 659.883,589.125C654.244,592.07 650.639,591.477 645.247,588.515C643.405,587.503 641.674,583.344 639.107,583.165C633.936,582.804 626.117,585.85 621.734,588.209C609.758,594.653 597.973,601.45 586.219,608.29C571.545,616.831 556.889,628.075 540.022,632.368C537.249,633.074 537.049,630.763 534.765,630.25C527.366,628.588 519.797,627.764 512.378,626.19C481.505,619.64 450.971,626.387 426.307,604.352C425.603,603.971 434.989,582.804 429.817,583.165C427.251,583.344 414.68,592.07 409.042,589.125C397.393,583.043 390.476,568.236 385.428,557.292C371.214,526.48 373.113,525.83 360.058,494.37C357.519,488.249 354.363,482.402 351.665,476.349C343.449,457.919 328.503,425.957 352.151,411.878C358.697,407.981 366.524,406.215 373.855,404.688C370.853,399.841 369.003,387.648 368.635,382.19C368.279,376.899 368.131,371.579 368.414,366.284C368.73,360.381 369.1,354.425 370.429,348.665C371.715,343.09 372.476,336.84 376.209,332.503C383.643,323.867 389.276,323.076 396.617,322.875C405.764,322.625 410.409,320.187 419.93,320.983C420.841,318.479 413.339,307.553 419.892,302.976ZM470.833,490.134C487.022,516.556 500.335,542.876 514.128,570.5C538.68,563.849 556.456,549.837 574.114,532.499C583.59,523.193 598.273,511.371 602.016,497.324C602.646,494.96 599.761,491.203 599.308,489.2C598.698,486.497 598.151,483.712 598.318,480.946C599.699,457.976 609.491,436.592 621.43,417.312C614.372,403.329 608.948,395.266 598.364,383.704C580.384,364.065 550.94,362.552 527.925,373.687C499.405,387.485 478.32,416.387 465.303,445.888C467.748,460.796 469.684,476.343 470.833,490.134ZM458.742,462.723C458.46,463.551 458.185,464.379 457.916,465.205C456.922,468.262 457.65,471.257 459.148,474.097C459.023,470.323 458.887,466.53 458.742,462.723Z"/>
        </clipPath>
        <g clip-path="url(#_clip3)">
            <g id="Layer2">
                <path d="M697.393,404.437C702.963,409.749 713.089,411.639 718.147,428.5C722.156,441.863 703.804,489.853 699.236,499.642C692.531,514.011 665.142,568.448 651.209,577.223C649.269,578.445 648.246,568.84 637.148,572.917C577.832,594.706 522.064,642.426 515.052,636.292C513.548,634.977 506.815,649.79 549.44,638.603C585.322,629.185 636.348,592.549 635.748,593.748C635.635,593.974 635.548,597.15 635.748,597.35C637.56,599.161 641.739,599.151 644.304,599.151C655.318,599.151 662.321,592.138 670.869,585.193C673.362,583.167 676.044,581.381 678.524,579.339C681.509,576.881 684.307,574.741 687.529,572.585C695.916,566.975 706.273,562.255 713.114,554.654C725.121,541.313 730.271,522.796 736.158,506.396C739.815,496.209 744.158,485.931 746.514,475.328C748.892,464.622 748.765,453.798 748.765,442.909C748.765,437.947 749.381,432.524 748.765,427.6C748.053,421.9 747.775,417.951 744.713,414.542C743.825,413.553 697.393,404.437 697.393,404.437Z" style="fill:rgb(200,117,36);"/>
                <path d="M654.489,323.31C657.428,323.31 660.469,322.84 663.302,323.625C678.482,327.832 684.919,349.837 690.427,363.045C693.82,371.182 697.24,397.016 696.092,403.537C695.846,404.939 715.571,378.171 719.014,364.543C722.397,351.152 722.666,341.117 723.106,327.402C723.328,320.467 723.634,317.348 720.273,311.034C716.744,304.404 706.699,301.494 700.443,299.703C696.625,298.61 692.769,297.185 688.797,297.185" style="fill:rgb(200,117,36);"/>
                <path d="M551.65,273.449C559.774,278.865 570.209,277.595 579.236,279.483C589.326,281.594 596.487,290.491 602.723,297.787C610.111,306.432 616.843,315.632 624.403,324.127C624.891,324.675 626.026,325.072 626.56,324.569C629.771,321.543 632.758,318.139 634.867,314.264C637.014,310.32 638.126,305.862 639.127,301.485C644.335,278.691 615.658,270.706 599.352,266.654C594.921,265.553 590.476,264.426 585.951,263.815C581.617,263.231 577.224,263.185 572.851,263.078C568.479,262.971 564.105,263.176 559.731,263.176" style="fill:rgb(200,117,36);"/>
                <path d="M638.463,375.105C640.473,372.498 641.757,369.398 643.62,366.684C645.358,364.151 647.966,360.956 651.447,360.705C653.346,360.568 666.46,370.979 667.053,375.07C668.556,385.462 659.065,391.871 655.867,400.906C653.827,406.669 651.421,423.08 648.901,429.412C646.654,435.057 639.895,449.257 637.542,454.83C636.655,456.933 627.817,475.889 625.846,489.402C624.514,498.529 625.011,507.844 623.975,517.008C622.885,526.658 612.154,551.84 608.53,555.001C596.35,565.624 579.837,571.644 563.607,570.49C558.423,570.122 559.659,561.712 558.524,559.057C556.777,554.969 554.479,557.289 552.185,553.847C547.707,547.127 554.971,541.066 557.768,535.82C561.912,528.047 571.037,506.584 575.887,499.159C592.783,473.295 614.817,450.183 626.472,421.069C631.075,409.57 634.582,397.659 638.463,385.896C639.145,383.828 639.718,381.719 640.158,379.587C640.366,378.58 640.915,375.105 638.463,375.105Z" style="fill:rgb(200,117,36);"/>
                <g transform="matrix(1,0,0,1,-5,1.69939)">
                    <path d="M370.698,402.251C369.173,402.251 364.762,401.44 363.545,402.251C360.479,404.296 355.895,405.45 353.412,408.212C350.346,411.623 344.392,412.95 341.789,416.855C338.765,421.391 334.674,427.36 333.742,432.949C333.372,435.172 334.113,437.58 333.742,439.803C332.612,446.585 332.298,454.089 333.444,460.964C334.294,466.064 336.54,472.222 338.809,476.759C340.658,480.459 340.918,484.475 342.981,488.085C344.466,490.683 346.87,492.893 348.048,495.535C348.958,497.578 351.519,499.431 353.114,500.9C354.299,501.99 355.413,503.308 356.095,504.476C356.854,505.779 359.66,506.785 360.863,507.755C363.173,509.617 362.433,512.132 364.718,514.417C366.111,515.811 383.534,557.396 384.188,559.292C396.274,594.332 435.2,592.667 432.057,583.653C431.744,582.756 422.696,585.029 415.355,582.013C410.071,579.842 405.636,574.003 402.451,570.325C392.102,558.375 386.158,535.774 377.958,514.14C365.851,482.202 353.546,450.015 353.353,438.091C353.008,416.746 370.698,402.251 370.698,402.251Z" style="fill:rgb(218,163,70);"/>
                </g>
                <path d="M419.916,320.886C419.916,320.886 401.98,317.771 397.024,318.866C391.426,320.102 385.277,321.376 380.442,324.627C368.216,332.849 365.841,350.845 365.046,364.198C364.495,373.466 366.44,382.651 367.474,391.798C367.818,394.843 368.676,397.583 370.109,400.276C370.558,401.119 371.151,401.875 371.631,402.685C371.888,403.118 372.586,404.442 372.439,403.961C371.106,399.599 375.349,352.005 384.103,338.68C393.615,324.201 420.46,321.446 419.916,320.886Z" style="fill:rgb(218,163,70);"/>
                <path d="M487.455,281.712C478.754,276.988 468.055,280.316 459.363,282.575C455.553,283.565 451.821,284.835 448.097,286.111C434.108,290.905 408.9,299.458 414.309,319.309C414.709,320.777 416.779,320.191 417.426,319.702C419.948,317.792 422.065,315.373 424.637,313.53C432.139,308.153 443.352,301.516 451.842,297.853C463.265,292.926 475.874,288.065 488.635,289.553C493.407,290.109 497.982,292.146 502.784,292.293C503.568,292.317 502.622,290.719 502.38,289.972C502.096,289.095 487.455,281.712 487.455,281.712Z" style="fill:rgb(218,163,70);"/>
                <path d="M425.489,589.087C426.008,591.464 427.789,593.353 427.573,595.822C427.38,598.027 426.474,600.139 426.35,602.349C426.055,607.631 430.914,611.117 435.246,612.837C436.616,613.38 438.066,613.698 439.458,614.182C440.019,614.377 440.517,614.761 441.1,614.873C441.422,614.935 442.038,615.011 442.064,614.685C442.137,613.774 440.474,612.313 440.053,611.74C437.996,608.941 435.715,605.97 435.123,602.429C434.275,597.363 434.226,595.933 435.045,590.857C435.333,589.072 435.949,587.351 436.246,585.568C436.348,584.955 436.592,582.061 435.051,582.177C434.311,582.232 429.591,583.501 428.917,583.811C427.981,584.241 423.112,587.81 422.254,588.381C420.967,589.237 426.761,588.209 425.489,589.087Z" style="fill:rgb(218,163,70);"/>
            </g>
        </g>
        <path d="M688,556C682.71,565.257 677.276,572.997 668.34,579.283C663.918,582.394 655.918,588.32 651,590.5" style="fill:none;stroke:rgb(53,55,36);stroke-width:6.94px;"/>
        <g transform="matrix(1.12745,0,0,1.12745,-90.1078,-107.471)">
            <path d="M554,396C590.612,396 622.745,415.332 640.739,444.336C650.413,459.929 616.974,508.473 616.974,528.157C616.974,584.452 609.408,603.991 553.113,603.991C496.818,603.991 487.478,583.565 487.478,527.27C487.478,505.449 458.867,455.951 470.555,439.357C489.022,413.141 519.525,396 554,396Z" style="fill:rgb(255,203,119);"/>
            <clipPath id="_clip4">
                <path d="M554,396C590.612,396 622.745,415.332 640.739,444.336C650.413,459.929 616.974,508.473 616.974,528.157C616.974,584.452 609.408,603.991 553.113,603.991C496.818,603.991 487.478,583.565 487.478,527.27C487.478,505.449 458.867,455.951 470.555,439.357C489.022,413.141 519.525,396 554,396Z"/>
            </clipPath>
            <g clip-path="url(#_clip4)">
                <g transform="matrix(0.886957,0,0,0.886957,79.9217,95.3217)">
                    <path d="M611.393,369.469C611.393,369.469 579.113,352.558 575.835,350.985C572.639,349.451 556.47,343.078 553.806,342.279C552.097,341.766 544.83,339.108 545.13,339C549.739,337.34 557.667,338.839 562.501,338.096C574.628,336.23 587.659,337.915 599.261,341.484C602.49,342.478 604.864,343.823 607.643,345.676C608.41,346.187 609.839,346.955 610.158,347.911C610.723,349.607 610.528,351.628 610.996,353.499C611.899,357.109 612.952,359.676 612.952,363.557C612.952,364.706 612.197,368.665 611.393,369.469Z" style="fill:rgb(255,228,160);"/>
                </g>
                <g transform="matrix(0.886957,0,0,0.886957,79.9217,95.3217)">
                    <path d="M637.507,393.301C636.738,405.946 625.471,414.484 620,424.789C615.584,433.107 612.422,442.034 608.836,450.742C601.583,468.355 599.623,471.668 597.936,490.791C596.771,503.986 599.721,518.335 594.144,530.981C587.789,545.391 582.72,553.55 571.483,564.677C568.046,568.08 563.289,569.989 559.962,573.5C559.382,574.112 561.517,574.318 562.36,574.306C564.071,574.281 565.712,573.601 567.409,573.39C575.515,572.384 583.678,571.831 591.762,570.655C596.526,569.962 601.151,568.461 605.919,567.788C615.3,566.464 630.575,568.865 634.63,556.682C637.701,547.457 638.142,531.68 639.493,522.213C642.555,500.761 648.463,478.879 646.1,456.95C644.135,438.723 638.102,411.712 637.507,393.301Z" style="fill:rgb(255,171,81);"/>
                </g>
                <g transform="matrix(0.886957,0,0,0.886957,79.9217,95.3217)">
                    <path d="M437.256,403C437.256,403 442.46,417.704 448.419,433.765C454.261,449.513 460.829,466.519 463.93,477C468.759,493.319 465.91,513.863 468.588,529.029C471.07,543.082 483,569 483,569L433,540L437.256,403Z" style="fill:rgb(255,228,160);"/>
                </g>
                <g transform="matrix(0.886957,0,0,0.886957,73.713,95.3217)">
                    <circle cx="499" cy="417" r="32" style="fill:white;"/>
                </g>
                <g transform="matrix(0.886957,0,0,0.886957,79.9217,96.9808)">
                    <path d="M579.706,496.61C579.706,496.61 585.195,498.534 571.828,509.877C565.374,515.353 544.699,530.61 542.126,535.489C540.942,537.734 542.483,562.157 542.063,569.464C541.927,571.844 540.043,574.325 540.043,574.325C540.043,574.325 538.74,576.459 537.674,575.741C532.602,572.327 531.246,564.49 531.049,559.086C530.405,541.464 536.382,523.88 549.14,511.425C553.691,506.982 562.787,501.499 568.542,498.923C570.906,497.865 573.425,497.135 575.962,496.61C577.184,496.356 580.902,496.254 579.706,496.61Z" style="fill:rgb(255,171,81);"/>
                </g>
                <g transform="matrix(0.886957,0,0,0.886957,79.9217,92.4391)">
                    <path d="M537.265,534.871L537.265,585L533.5,585L533.5,534.871L492,501.5L578.765,501.5L537.265,534.871Z" style="fill:rgb(89,46,0);stroke:rgb(89,46,0);stroke-width:4.32px;"/>
                </g>
                <g transform="matrix(0.886957,0,0,0.886957,144.67,95.3217)">
                    <circle cx="499" cy="417" r="32" style="fill:white;"/>
                </g>
                <g transform="matrix(0.464692,0,0,0.464692,284.423,271.406)">
                    <circle cx="499" cy="417" r="32" style="fill:rgb(89,46,0);"/>
                </g>
                <g transform="matrix(0.464692,0,0,0.464692,355.38,271.406)">
                    <circle cx="499" cy="417" r="32" style="fill:rgb(89,46,0);"/>
                </g>
                <g transform="matrix(0.1598,0,0,0.1598,515.295,407.207)">
                    <circle cx="499" cy="417" r="32" style="fill:white;"/>
                </g>
                <g transform="matrix(0.0766481,0,0,0.0766481,543.484,425.917)">
                    <circle cx="499" cy="417" r="32" style="fill:white;"/>
                </g>
                <g transform="matrix(0.1598,0,0,0.1598,444.338,407.207)">
                    <circle cx="499" cy="417" r="32" style="fill:white;"/>
                </g>
                <g transform="matrix(0.0766481,0,0,0.0766481,472.527,425.917)">
                    <circle cx="499" cy="417" r="32" style="fill:white;"/>
                </g>
            </g>
        </g>
        <g transform="matrix(1,0,0,1,-177.07,4)">
            <circle cx="620.5" cy="374.5" r="23.5" style="fill:rgb(255,203,119);"/>
            <clipPath id="_clip5">
                <circle cx="620.5" cy="374.5" r="23.5"/>
            </clipPath>
            <g clip-path="url(#_clip5)">
                <g transform="matrix(0.699783,0.714355,-0.714355,0.699783,569.704,-217.751)">
                    <path d="M416.899,371.494C422.062,366.584 420.703,381.334 427.019,378.179C435.593,373.897 441.403,366.088 449.471,360.992C453.259,358.599 457.421,356.846 461.518,355.035C457.672,352.714 449.446,347.745 444.957,346.7C429.856,343.185 413.17,349.041 398.867,352.245C393.585,353.428 385.572,354.499 380.892,357.673" style="fill:rgb(255,171,81);"/>
                </g>
                <g transform="matrix(1,0,0,1,177.07,-4)">
                    <path d="M424.93,362.571C424.93,362.571 419.077,375.542 425.184,387.111C431.892,399.819 436.213,401.347 436.866,402C437.782,402.916 431.708,401.381 431.352,401.47C429.703,401.882 427.838,401.638 426.155,401.638C423.759,401.638 421.33,401.771 418.946,401.47C415.804,401.073 412.741,400.232 409.726,399.29C407.396,398.563 404.966,397.994 403.02,396.441C399.658,393.757 398.642,389.189 397.823,385.208C397.354,382.93 396.866,380.51 397.153,378.167C397.65,374.109 399.278,369.984 400.505,366.097C400.996,364.545 424.61,364.172 424.93,362.571Z" style="fill:rgb(255,228,160);"/>
                </g>
            </g>
        </g>
        <g transform="matrix(1,0,0,1,13.7742,4)">
            <circle cx="620.5" cy="374.5" r="23.5" style="fill:rgb(255,203,119);"/>
            <clipPath id="_clip6">
                <circle cx="620.5" cy="374.5" r="23.5"/>
            </clipPath>
            <g clip-path="url(#_clip6)">
                <g transform="matrix(0.973908,-0.226941,0.226941,0.973908,-82.409,144.607)">
                    <path d="M641.866,354.651C644.842,357.627 645.093,361.163 646.214,365.086C649.576,376.853 650.66,388.589 645.779,400.303C643.581,405.579 641.286,411.042 638.388,415.954C637.47,417.511 653.226,415.02 658.388,408.998C661.548,405.311 662.976,400.451 664.475,395.955C669.221,381.716 672.439,361.311 660.562,349.434" style="fill:rgb(255,171,81);"/>
                </g>
                <g transform="matrix(1,0,0,1,-13.7742,-4)">
                    <path d="M642.06,355C641.092,355 630.656,357.005 625.067,359.921C618.566,363.313 612.858,369.966 612.724,369.899C611.762,369.418 612.865,362.326 612.435,361.466C611.468,359.531 615.11,359.221 615.49,356.943C615.702,355.667 619.381,358.515 619.977,357.395C620.365,356.667 620.676,356.067 621.242,355.449C625.016,351.332 630.716,349.07 635.885,347.324C640.674,345.706 642.06,355 642.06,355Z" style="fill:rgb(255,228,160);"/>
                </g>
            </g>
        </g>
        <path d="M864.153,583.355C864.142,582.638 864.166,581.903 864.236,581.158C864.812,575.045 868.468,568.295 880.788,565.75C883.963,585.703 877.55,589.647 872.002,591.131C868.793,595.278 848.966,608.534 819,597.75C785.866,585.825 798.876,615.25 798.876,615.25L792,609.25C792,609.25 761.001,566.147 811.457,586.25C849.207,601.29 859.406,587.866 864.153,583.355Z" style="fill:rgb(255,203,119);"/>
        <clipPath id="_clip7">
            <path d="M864.153,583.355C864.142,582.638 864.166,581.903 864.236,581.158C864.812,575.045 868.468,568.295 880.788,565.75C883.963,585.703 877.55,589.647 872.002,591.131C868.793,595.278 848.966,608.534 819,597.75C785.866,585.825 798.876,615.25 798.876,615.25L792,609.25C792,609.25 761.001,566.147 811.457,586.25C849.207,601.29 859.406,587.866 864.153,583.355Z"/>
        </clipPath>
        <g clip-path="url(#_clip7)">
            <g transform="matrix(1,0,0,1,6.07697,-7.84178)">
                <path d="M878.531,599.319L876.593,586.209C878.135,590.09 863.786,599.198 847.615,603.652C834.286,607.322 819.719,606.903 811.79,605.89C809.395,605.583 804.362,605.577 806.486,610.47C808.613,615.369 822.04,622.013 826.441,622.61C839.915,624.438 858.148,621.013 869.463,613.199C873.372,610.499 879.219,604.616 878.531,599.319Z" style="fill:rgb(255,171,81);"/>
            </g>
            <g transform="matrix(1,0,0,1,-1.92303,-27.2817)">
                <path d="M880.274,593.032L876.593,586.209C877.078,587.431 875.779,589.27 874.99,589.946C872.999,591.648 870.972,593.334 868.746,594.716C856.49,602.325 842.097,606.43 827.678,606.527C822.378,606.563 817.077,606.259 811.79,605.89C810.723,605.815 800.355,602.704 802.486,608.47C805.102,615.549 814.365,617.142 820.441,618.61C836.81,622.564 856.36,623.903 869.404,610.899C873.42,606.894 877.698,598.157 880.274,593.032Z" style="fill:rgb(255,228,160);"/>
            </g>
            <path d="M882.111,563.02C877.045,563.02 872.002,562.678 867.558,565.507C865.331,566.924 863.285,579.952 862.313,582.324C860.186,587.518 868.182,579.537 872.081,584.216C874.509,587.13 869.929,591.153 873.446,591.95C875.364,592.385 878.197,594.087 880.111,594.529C884.472,595.535 889.409,596.162 893.882,595.596C897.162,595.182 900.751,593.793 903.12,591.424C904.708,589.836 905.475,587.621 906.201,585.559C908.407,579.291 907.457,571.622 903.58,566.194C901.722,563.593 898.743,561.98 895.909,560.681C890.126,558.031 883.457,556.359 877.092,556.359" style="fill:rgb(214,146,36);"/>
            <clipPath id="_clip8">
                <path d="M882.111,563.02C877.045,563.02 872.002,562.678 867.558,565.507C865.331,566.924 863.285,579.952 862.313,582.324C860.186,587.518 868.182,579.537 872.081,584.216C874.509,587.13 869.929,591.153 873.446,591.95C875.364,592.385 878.197,594.087 880.111,594.529C884.472,595.535 889.409,596.162 893.882,595.596C897.162,595.182 900.751,593.793 903.12,591.424C904.708,589.836 905.475,587.621 906.201,585.559C908.407,579.291 907.457,571.622 903.58,566.194C901.722,563.593 898.743,561.98 895.909,560.681C890.126,558.031 883.457,556.359 877.092,556.359"/>
            </clipPath>
            <g clip-path="url(#_clip8)">
                <g transform="matrix(1,0,0,1,6.07697,-7.84178)">
                    <path d="M878.531,599.319L876.593,586.209C878.135,590.09 863.786,599.198 847.615,603.652C834.286,607.322 819.719,606.903 811.79,605.89C809.395,605.583 804.362,605.577 806.486,610.47C808.613,615.369 822.04,622.013 826.441,622.61C839.915,624.438 858.148,621.013 869.463,613.199C873.372,610.499 879.219,604.616 878.531,599.319Z" style="fill:rgb(200,117,36);"/>
                </g>
                <g transform="matrix(1,0,0,1,-1.92303,-27.2817)">
                    <path d="M880.274,593.032L876.593,586.209C877.078,587.431 875.779,589.27 874.99,589.946C872.999,591.648 870.972,593.334 868.746,594.716C856.49,602.325 842.097,606.43 827.678,606.527C822.378,606.563 817.077,606.259 811.79,605.89C810.723,605.815 800.355,602.704 802.486,608.47C805.102,615.549 814.365,617.142 820.441,618.61C836.81,622.564 856.36,623.903 869.404,610.899C873.42,606.894 877.698,598.157 880.274,593.032Z" style="fill:rgb(226,203,151);fill-opacity:0.3;"/>
                </g>
            </g>
        </g>
    </g>
    <g transform="matrix(0.718637,0,0,0.718637,227.173,73.463)">
        <g transform="matrix(0.449554,0,0,0.449554,735.205,-136.008)">
            <path d="M593.072,575.085C593.105,591.068 593.162,594.999 593.162,594.999L564.809,594.999C564.809,594.999 571.897,624.534 564.809,630.441C557.721,636.347 529.368,636.347 522.279,630.441C515.191,624.534 522.279,594.999 522.279,594.999L486.838,594.999L486.838,481.588C486.838,481.588 562.727,414.24 593.162,462.614C593.129,477.145 593.105,490.12 593.087,501.698L519.692,538.396L593.072,575.085Z" style="fill:rgb(53,55,36);fill-opacity:0.76;"/>
        </g>
        <g transform="matrix(0.734937,0,0,0.734937,841.956,-204.129)">
            <path d="M217.67,409.46C217.665,419.717 217.669,427.843 217.677,434.257L192.878,421.857L217.67,409.46Z" style="fill:rgb(53,55,36);fill-opacity:0.76;"/>
        </g>
    </g>
</svg>
