<?xml version="1.0" encoding="UTF-8" standalone="no"?>
<!DOCTYPE svg PUBLIC "-//W3C//DTD SVG 1.1//EN" "http://www.w3.org/Graphics/SVG/1.1/DTD/svg11.dtd">
<svg width="100%" height="100%" viewBox="0 0 1080 1080" version="1.1" xmlns="http://www.w3.org/2000/svg" xmlns:xlink="http://www.w3.org/1999/xlink" xml:space="preserve" xmlns:serif="http://www.serif.com/" style="fill-rule:evenodd;clip-rule:evenodd;stroke-linecap:round;stroke-linejoin:round;stroke-miterlimit:1.5;">
    <g transform="matrix(0.873387,0,0,0.837963,68.6177,59.0093)">
        <rect x="-82" y="-74" width="1240" height="1296" style="fill:url(#_Linear1);"/>
    </g>
    <g transform="matrix(0.823534,0,0,0.823534,88.2586,95.2919)">
        <g transform="matrix(0.694305,0,0,0.773019,193.929,169.76)">
            <rect x="363.176" y="210" width="271.21" height="537.906" style="fill:white;"/>
        </g>
        <g transform="matrix(2.39155,0,0,3.05823,-1640.17,-1357.35)">
            <path d="M863.552,604.316C863.552,596.201 863.696,580.233 859.527,576.618C854.526,572.283 846.755,572.762 846.755,566.356C846.755,559.95 853.297,556.92 859.634,556.92C860.339,556.92 900.54,556.896 928.602,556.896L943.582,556.896C955.714,556.896 956.236,568.771 956.236,576.837C956.236,609.031 956.262,671.247 956.269,688.391C956.27,691.254 949.41,692.842 949.41,692.842L866.136,692.618C866.136,692.618 863.552,691.586 863.552,689.748L863.552,604.316Z" style="fill:none;stroke:rgb(20,20,20);stroke-width:9.11px;"/>
        </g>
        <g transform="matrix(2.39155,0,0,2.30945,-1133.46,-1306.15)">
            <path d="M667.738,895.06L651.679,895.003L651.679,778.08C651.679,767.333 651.824,746.188 647.654,741.401C642.653,735.66 634.882,736.295 634.882,727.812C634.882,719.329 641.424,715.316 647.761,715.316C648.466,715.316 688.667,715.284 716.729,715.284L731.709,715.284C743.841,715.284 744.363,731.01 744.363,741.69C744.363,791.441 744.398,895.332 744.398,895.332L704.581,895.19L704.581,835.19C704.581,832.357 702.845,830.057 700.706,830.057C698.575,830.057 696.843,832.339 696.83,835.156L696.83,835.19L696.83,895.163L675.49,895.087L675.49,858.842C675.49,856.01 673.753,853.71 671.614,853.71C669.483,853.71 667.752,855.992 667.739,858.809L667.738,858.842L667.738,895.06ZM721.311,799.872C721.325,797.055 723.056,794.773 725.187,794.773C727.326,794.773 729.063,797.073 729.063,799.906L729.063,860.209C729.063,863.042 727.326,865.341 725.187,865.341C723.048,865.341 721.311,863.042 721.311,860.209L721.311,799.906L721.311,799.872ZM675.49,787.117C675.503,784.99 677.235,783.266 679.366,783.266C681.505,783.266 683.241,785.003 683.241,787.142L683.241,798.08C683.241,800.219 681.505,801.956 679.366,801.956C677.227,801.956 675.49,800.219 675.49,798.08L675.49,787.117ZM689.64,746.79C689.654,743.972 691.385,741.69 693.516,741.69C695.655,741.69 697.392,743.99 697.392,746.823L697.392,773.37C697.392,776.202 695.655,778.502 693.516,778.502C691.377,778.502 689.64,776.202 689.64,773.37L689.64,746.79ZM721.311,753.833C721.325,751.706 723.056,749.982 725.187,749.982C727.326,749.982 729.063,751.719 729.063,753.858L729.063,764.796C729.063,766.935 727.326,768.672 725.187,768.672C723.048,768.672 721.311,766.935 721.311,764.796L721.311,753.833ZM663.858,757.53C663.871,755.402 665.603,753.679 667.734,753.679C669.873,753.679 671.609,755.416 671.609,757.555L671.609,759.148C671.609,761.287 669.873,763.024 667.734,763.024C665.595,763.024 663.858,761.287 663.858,759.148L663.858,757.53Z" style="fill:rgb(111,173,221);"/>
        </g>
        <g transform="matrix(0.597987,0,0,0.597987,-29.9457,-125.517)">
            <g transform="matrix(1.2071,0,0,1.2071,-150.102,-340.009)">
                <g transform="matrix(1.00972e-17,0.239277,-0.378921,2.81608e-17,1106.05,629.772)">
                    <path d="M833,305.982C833,252.973 764.948,210 681.002,210C681.001,210 680.999,210 680.998,210C597.052,210 529,252.973 529,305.982C529,414.807 529,591.193 529,700.018C529,753.027 597.052,796 680.998,796C680.999,796 681.001,796 681.002,796C764.948,796 833,753.027 833,700.018C833,591.193 833,414.807 833,305.982Z" style="stroke:rgb(20,20,20);stroke-width:109.3px;"/>
                </g>
                <g transform="matrix(-0.130456,0.200586,-0.227445,-0.147925,1229.72,754.044)">
                    <path d="M833,344.049C833,308.497 816.986,274.401 788.481,249.262C759.976,224.123 721.314,210 681.002,210C681.001,210 680.999,210 680.998,210C640.686,210 602.024,224.123 573.519,249.262C545.014,274.401 529,308.497 529,344.049C529,439.302 529,566.698 529,661.951C529,697.503 545.014,731.599 573.519,756.738C602.024,781.877 640.686,796 680.998,796C680.999,796 681.001,796 681.002,796C721.314,796 759.976,781.877 788.481,756.738C816.986,731.599 833,697.503 833,661.951C833,566.698 833,439.302 833,344.049Z" style="stroke:rgb(20,20,20);stroke-width:135.4px;"/>
                </g>
            </g>
            <g transform="matrix(1.2071,0,0,1.2071,-138.578,-267.727)">
                <g transform="matrix(1.00972e-17,0.239277,-0.378921,2.81608e-17,1106.05,629.772)">
                    <path d="M833,305.982C833,252.973 764.948,210 681.002,210C681.001,210 680.999,210 680.998,210C597.052,210 529,252.973 529,305.982C529,414.807 529,591.193 529,700.018C529,753.027 597.052,796 680.998,796C680.999,796 681.001,796 681.002,796C764.948,796 833,753.027 833,700.018C833,591.193 833,414.807 833,305.982Z" style="stroke:rgb(20,20,20);stroke-width:109.3px;"/>
                </g>
                <g transform="matrix(-0.130456,0.200586,-0.227445,-0.147925,1229.72,754.044)">
                    <path d="M833,344.049C833,308.497 816.986,274.401 788.481,249.262C759.976,224.123 721.314,210 681.002,210C681.001,210 680.999,210 680.998,210C640.686,210 602.024,224.123 573.519,249.262C545.014,274.401 529,308.497 529,344.049C529,439.302 529,566.698 529,661.951C529,697.503 545.014,731.599 573.519,756.738C602.024,781.877 640.686,796 680.998,796C680.999,796 681.001,796 681.002,796C721.314,796 759.976,781.877 788.481,756.738C816.986,731.599 833,697.503 833,661.951C833,566.698 833,439.302 833,344.049Z" style="stroke:rgb(20,20,20);stroke-width:135.4px;"/>
                </g>
            </g>
            <g transform="matrix(1.2071,0,0,1.2071,-170.012,-178.545)">
                <g transform="matrix(1.00972e-17,0.239277,-0.378921,2.81608e-17,1145.05,615.776)">
                    <path d="M833,305.982C833,252.973 764.948,210 681.002,210C681.001,210 680.999,210 680.998,210C597.052,210 529,252.973 529,305.982C529,414.807 529,591.193 529,700.018C529,753.027 597.052,796 680.998,796C680.999,796 681.001,796 681.002,796C764.948,796 833,753.027 833,700.018C833,591.193 833,414.807 833,305.982Z" style="stroke:rgb(20,20,20);stroke-width:109.3px;"/>
                </g>
                <g transform="matrix(-0.130456,0.200586,-0.227445,-0.147925,1268.72,740.048)">
                    <path d="M833,344.049C833,308.497 816.986,274.401 788.481,249.262C759.976,224.123 721.314,210 681.002,210C681.001,210 680.999,210 680.998,210C640.686,210 602.024,224.123 573.519,249.262C545.014,274.401 529,308.497 529,344.049C529,439.302 529,566.698 529,661.951C529,697.503 545.014,731.599 573.519,756.738C602.024,781.877 640.686,796 680.998,796C680.999,796 681.001,796 681.002,796C721.314,796 759.976,781.877 788.481,756.738C816.986,731.599 833,697.503 833,661.951C833,566.698 833,439.302 833,344.049Z" style="stroke:rgb(20,20,20);stroke-width:135.4px;"/>
                </g>
            </g>
            <g transform="matrix(-0.29367,0.655168,-0.655168,-0.29367,1519.2,-23.8998)">
                <circle cx="1288" cy="548" r="248" style="stroke:rgb(20,20,20);stroke-width:58.23px;"/>
            </g>
            <g transform="matrix(-0.29367,0.655168,-0.655168,-0.29367,1119.49,274.527)">
                <path d="M833,361.996C833,321.684 816.986,283.023 788.481,254.519C759.977,226.014 721.316,210 681.004,210C681.001,210 680.999,210 680.996,210C640.684,210 602.023,226.014 573.519,254.519C545.014,283.023 529,321.684 529,361.996C529,448.776 529,557.224 529,644.004C529,684.316 545.014,722.977 573.519,751.481C602.023,779.986 640.684,796 680.996,796C680.999,796 681.001,796 681.004,796C721.316,796 759.977,779.986 788.481,751.481C816.986,722.977 833,684.316 833,644.004C833,557.224 833,448.776 833,361.996Z" style="stroke:rgb(20,20,20);stroke-width:58.23px;"/>
            </g>
            <g transform="matrix(0.218872,0.282745,-0.240275,0.185996,629.056,500.438)">
                <path d="M833,388.861C833,290.079 764.95,210 681.006,210C681.002,210 680.998,210 680.994,210C597.05,210 529,290.079 529,388.861C529,461.278 529,544.722 529,617.139C529,715.921 597.05,796 680.994,796C680.998,796 681.002,796 681.006,796C764.95,796 833,715.921 833,617.139C833,544.722 833,461.278 833,388.861Z" style="stroke:rgb(20,20,20);stroke-width:126px;"/>
            </g>
        </g>
        <g transform="matrix(0.597987,0,0,0.597987,-29.9457,-125.517)">
            <g transform="matrix(1.2071,0,0,1.2071,-150.102,-340.009)">
                <g transform="matrix(1.00972e-17,0.239277,-0.378921,2.81608e-17,1106.05,629.772)">
                    <path d="M833,305.982C833,252.973 764.948,210 681.002,210C681.001,210 680.999,210 680.998,210C597.052,210 529,252.973 529,305.982C529,414.807 529,591.193 529,700.018C529,753.027 597.052,796 680.998,796C680.999,796 681.001,796 681.002,796C764.948,796 833,753.027 833,700.018C833,591.193 833,414.807 833,305.982Z" style="fill:rgb(255,167,94);"/>
                </g>
                <g transform="matrix(-0.130456,0.200586,-0.227445,-0.147925,1229.72,754.044)">
                    <path d="M833,344.049C833,308.497 816.986,274.401 788.481,249.262C759.976,224.123 721.314,210 681.002,210C681.001,210 680.999,210 680.998,210C640.686,210 602.024,224.123 573.519,249.262C545.014,274.401 529,308.497 529,344.049C529,439.302 529,566.698 529,661.951C529,697.503 545.014,731.599 573.519,756.738C602.024,781.877 640.686,796 680.998,796C680.999,796 681.001,796 681.002,796C721.314,796 759.976,781.877 788.481,756.738C816.986,731.599 833,697.503 833,661.951C833,566.698 833,439.302 833,344.049Z" style="fill:rgb(255,167,94);"/>
                </g>
            </g>
            <g transform="matrix(1.2071,0,0,1.2071,-138.578,-267.727)">
                <g transform="matrix(1.00972e-17,0.239277,-0.378921,2.81608e-17,1106.05,629.772)">
                    <path d="M833,305.982C833,252.973 764.948,210 681.002,210C681.001,210 680.999,210 680.998,210C597.052,210 529,252.973 529,305.982C529,414.807 529,591.193 529,700.018C529,753.027 597.052,796 680.998,796C680.999,796 681.001,796 681.002,796C764.948,796 833,753.027 833,700.018C833,591.193 833,414.807 833,305.982Z" style="fill:rgb(255,180,117);stroke:rgb(20,20,20);stroke-width:109.3px;"/>
                </g>
                <g transform="matrix(-0.130456,0.200586,-0.227445,-0.147925,1229.72,754.044)">
                    <path d="M833,344.049C833,308.497 816.986,274.401 788.481,249.262C759.976,224.123 721.314,210 681.002,210C681.001,210 680.999,210 680.998,210C640.686,210 602.024,224.123 573.519,249.262C545.014,274.401 529,308.497 529,344.049C529,439.302 529,566.698 529,661.951C529,697.503 545.014,731.599 573.519,756.738C602.024,781.877 640.686,796 680.998,796C680.999,796 681.001,796 681.002,796C721.314,796 759.976,781.877 788.481,756.738C816.986,731.599 833,697.503 833,661.951C833,566.698 833,439.302 833,344.049Z" style="fill:rgb(255,180,117);stroke:rgb(20,20,20);stroke-width:135.4px;"/>
                </g>
            </g>
            <g transform="matrix(1.2071,0,0,1.2071,-138.578,-267.727)">
                <g transform="matrix(1.00972e-17,0.239277,-0.378921,2.81608e-17,1106.05,629.772)">
                    <path d="M833,305.982C833,252.973 764.948,210 681.002,210C681.001,210 680.999,210 680.998,210C597.052,210 529,252.973 529,305.982C529,414.807 529,591.193 529,700.018C529,753.027 597.052,796 680.998,796C680.999,796 681.001,796 681.002,796C764.948,796 833,753.027 833,700.018C833,591.193 833,414.807 833,305.982Z" style="fill:rgb(255,180,117);"/>
                </g>
                <g transform="matrix(-0.130456,0.200586,-0.227445,-0.147925,1229.72,754.044)">
                    <path d="M833,344.049C833,308.497 816.986,274.401 788.481,249.262C759.976,224.123 721.314,210 681.002,210C681.001,210 680.999,210 680.998,210C640.686,210 602.024,224.123 573.519,249.262C545.014,274.401 529,308.497 529,344.049C529,439.302 529,566.698 529,661.951C529,697.503 545.014,731.599 573.519,756.738C602.024,781.877 640.686,796 680.998,796C680.999,796 681.001,796 681.002,796C721.314,796 759.976,781.877 788.481,756.738C816.986,731.599 833,697.503 833,661.951C833,566.698 833,439.302 833,344.049Z" style="fill:rgb(255,180,117);"/>
                </g>
            </g>
            <g transform="matrix(1.2071,0,0,1.2071,-170.012,-178.545)">
                <g transform="matrix(1.00972e-17,0.239277,-0.378921,2.81608e-17,1145.05,615.776)">
                    <path d="M833,305.982C833,252.973 764.948,210 681.002,210C681.001,210 680.999,210 680.998,210C597.052,210 529,252.973 529,305.982C529,414.807 529,591.193 529,700.018C529,753.027 597.052,796 680.998,796C680.999,796 681.001,796 681.002,796C764.948,796 833,753.027 833,700.018C833,591.193 833,414.807 833,305.982Z" style="fill:rgb(255,195,146);stroke:rgb(20,20,20);stroke-width:109.3px;"/>
                </g>
                <g transform="matrix(-0.130456,0.200586,-0.227445,-0.147925,1268.72,740.048)">
                    <path d="M833,344.049C833,308.497 816.986,274.401 788.481,249.262C759.976,224.123 721.314,210 681.002,210C681.001,210 680.999,210 680.998,210C640.686,210 602.024,224.123 573.519,249.262C545.014,274.401 529,308.497 529,344.049C529,439.302 529,566.698 529,661.951C529,697.503 545.014,731.599 573.519,756.738C602.024,781.877 640.686,796 680.998,796C680.999,796 681.001,796 681.002,796C721.314,796 759.976,781.877 788.481,756.738C816.986,731.599 833,697.503 833,661.951C833,566.698 833,439.302 833,344.049Z" style="fill:rgb(255,195,146);stroke:rgb(20,20,20);stroke-width:135.4px;"/>
                </g>
            </g>
            <g transform="matrix(1.2071,0,0,1.2071,-170.012,-178.545)">
                <g transform="matrix(1.00972e-17,0.239277,-0.378921,2.81608e-17,1145.05,615.776)">
                    <path d="M833,305.982C833,252.973 764.948,210 681.002,210C681.001,210 680.999,210 680.998,210C597.052,210 529,252.973 529,305.982C529,414.807 529,591.193 529,700.018C529,753.027 597.052,796 680.998,796C680.999,796 681.001,796 681.002,796C764.948,796 833,753.027 833,700.018C833,591.193 833,414.807 833,305.982Z" style="fill:rgb(255,195,146);"/>
                </g>
                <g transform="matrix(-0.130456,0.200586,-0.227445,-0.147925,1268.72,740.048)">
                    <path d="M833,344.049C833,308.497 816.986,274.401 788.481,249.262C759.976,224.123 721.314,210 681.002,210C681.001,210 680.999,210 680.998,210C640.686,210 602.024,224.123 573.519,249.262C545.014,274.401 529,308.497 529,344.049C529,439.302 529,566.698 529,661.951C529,697.503 545.014,731.599 573.519,756.738C602.024,781.877 640.686,796 680.998,796C680.999,796 681.001,796 681.002,796C721.314,796 759.976,781.877 788.481,756.738C816.986,731.599 833,697.503 833,661.951C833,566.698 833,439.302 833,344.049Z" style="fill:rgb(255,195,146);"/>
                </g>
            </g>
            <g transform="matrix(-0.29367,0.655168,-0.655168,-0.29367,1519.2,-23.8998)">
                <circle cx="1288" cy="548" r="248" style="fill:rgb(255,195,146);"/>
            </g>
            <g transform="matrix(-0.29367,0.655168,-0.655168,-0.29367,1119.49,274.527)">
                <path d="M833,361.996C833,321.684 816.986,283.023 788.481,254.519C759.977,226.014 721.316,210 681.004,210C681.001,210 680.999,210 680.996,210C640.684,210 602.023,226.014 573.519,254.519C545.014,283.023 529,321.684 529,361.996C529,448.776 529,557.224 529,644.004C529,684.316 545.014,722.977 573.519,751.481C602.023,779.986 640.684,796 680.996,796C680.999,796 681.001,796 681.004,796C721.316,796 759.977,779.986 788.481,751.481C816.986,722.977 833,684.316 833,644.004C833,557.224 833,448.776 833,361.996Z" style="fill:rgb(255,195,146);"/>
            </g>
            <g transform="matrix(0.218872,0.282745,-0.240275,0.185996,629.056,500.438)">
                <path d="M833,388.861C833,290.079 764.95,210 681.006,210C681.002,210 680.998,210 680.994,210C597.05,210 529,290.079 529,388.861C529,461.278 529,544.722 529,617.139C529,715.921 597.05,796 680.994,796C680.998,796 681.002,796 681.006,796C764.95,796 833,715.921 833,617.139C833,544.722 833,461.278 833,388.861Z" style="fill:rgb(255,195,146);"/>
            </g>
        </g>
        <g transform="matrix(1.19369,0,0,1.19369,-128.864,-241.903)">
            <path d="M555.63,829.689C579.388,802.817 615.233,791.627 648.537,781.897C665.34,776.989 682.146,772.077 699.06,767.562C686.429,804.103 665.735,848.102 625.163,860.298C606.329,865.96 583.199,860.102 569,876.627C560.267,886.789 569.582,993.467 566.624,996.426C560.613,1002.44 550.665,1002.44 544.654,996.426C541.695,993.467 551.012,886.785 542.276,876.624C528.071,860.099 504.938,865.961 486.1,860.299C445.525,848.105 424.831,804.104 412.201,767.562C429.114,772.077 445.92,776.989 462.723,781.897C496.027,791.627 531.872,802.817 555.63,829.689Z" style="fill:none;stroke:rgb(20,20,20);stroke-width:20.94px;"/>
        </g>
        <g transform="matrix(1.19369,0,0,1.19369,-128.864,-241.903)">
            <path d="M555.63,829.689C579.388,802.817 615.233,791.627 648.537,781.897C665.34,776.989 682.146,772.077 699.06,767.562C686.429,804.103 665.735,848.102 625.163,860.298C606.329,865.96 583.199,860.102 569,876.627C560.267,886.789 569.582,993.467 566.624,996.426C560.613,1002.44 550.665,1002.44 544.654,996.426C541.695,993.467 551.012,886.785 542.276,876.624C528.071,860.099 504.938,865.961 486.1,860.299C445.525,848.105 424.831,804.104 412.201,767.562C429.114,772.077 445.92,776.989 462.723,781.897C496.027,791.627 531.872,802.817 555.63,829.689Z" style="fill:rgb(115,255,128);"/>
        </g>
    </g>
    <g transform="matrix(0.718637,0,0,0.718637,227.173,73.463)">
        <g transform="matrix(0.449554,0,0,0.449554,735.205,-136.008)">
            <path d="M593.072,575.085C593.105,591.068 593.162,594.999 593.162,594.999L564.809,594.999C564.809,594.999 571.897,624.534 564.809,630.441C557.721,636.347 529.368,636.347 522.279,630.441C515.191,624.534 522.279,594.999 522.279,594.999L486.838,594.999L486.838,481.588C486.838,481.588 562.727,414.24 593.162,462.614C593.129,477.145 593.105,490.12 593.087,501.698L519.692,538.396L593.072,575.085Z" style="fill:white;fill-opacity:0.76;"/>
        </g>
        <g transform="matrix(0.734937,0,0,0.734937,841.956,-204.129)">
            <path d="M217.67,409.46C217.665,419.717 217.669,427.843 217.677,434.257L192.878,421.857L217.67,409.46Z" style="fill:white;fill-opacity:0.76;"/>
        </g>
    </g>
    <defs>
        <linearGradient id="_Linear1" x1="0" y1="0" x2="1" y2="0" gradientUnits="userSpaceOnUse" gradientTransform="matrix(4.19252e-14,713.635,-684.691,4.36976e-14,539.717,56.0773)"><stop offset="0" style="stop-color:rgb(168,127,184);stop-opacity:1"/><stop offset="1" style="stop-color:rgb(187,155,200);stop-opacity:1"/></linearGradient>
    </defs>
</svg>
