<?xml version="1.0" encoding="UTF-8" standalone="no"?>
<!DOCTYPE svg PUBLIC "-//W3C//DTD SVG 1.1//EN" "http://www.w3.org/Graphics/SVG/1.1/DTD/svg11.dtd">
<svg width="100%" height="100%" viewBox="0 0 1080 1080" version="1.1" xmlns="http://www.w3.org/2000/svg" xmlns:xlink="http://www.w3.org/1999/xlink" xml:space="preserve" xmlns:serif="http://www.serif.com/" style="fill-rule:evenodd;clip-rule:evenodd;stroke-linecap:round;stroke-linejoin:round;stroke-miterlimit:1.5;">
    <rect x="-281" y="-327" width="1690" height="1566" style="fill:rgb(164,255,219);fill-opacity:0.35;"/>
    <g transform="matrix(0.718637,0,0,0.718637,227.173,73.463)">
        <g transform="matrix(0.449554,0,0,0.449554,735.205,-136.008)">
            <path d="M593.072,575.085C593.105,591.068 593.162,594.999 593.162,594.999L564.809,594.999C564.809,594.999 571.897,624.534 564.809,630.441C557.721,636.347 529.368,636.347 522.279,630.441C515.191,624.534 522.279,594.999 522.279,594.999L486.838,594.999L486.838,481.588C486.838,481.588 562.727,414.24 593.162,462.614C593.129,477.145 593.105,490.12 593.087,501.698L519.692,538.396L593.072,575.085Z" style="fill-opacity:0.76;"/>
        </g>
        <g transform="matrix(0.734937,0,0,0.734937,841.956,-204.129)">
            <path d="M217.67,409.46C217.665,419.717 217.669,427.843 217.677,434.257L192.878,421.857L217.67,409.46Z" style="fill-opacity:0.76;"/>
        </g>
    </g>
    <g transform="matrix(1.00475,0,0,1,98.2331,-5.6875)">
        <g id="Layer5">
            <ellipse cx="553.635" cy="836" rx="315.514" ry="44" style="fill-opacity:0.35;"/>
        </g>
    </g>
    <g transform="matrix(1,0,0,1,10.3652,-5.6875)">
        <path d="M304.263,508.896C316.731,508.339 412.804,542.379 424.789,548.422C428.207,530.722 438.39,514.693 453.265,501.913C434.767,481.079 423.525,453.655 423.525,423.625C423.525,358.499 476.399,305.625 541.525,305.625C606.651,305.625 659.525,358.499 659.525,423.625C659.525,453.655 648.284,481.079 629.785,501.913C643.062,513.318 652.6,527.312 656.928,542.773C667.345,535.442 744,493 744,493L754,460C754,460 765,442 774,424L772.188,470L768.188,486.735L787.462,492.5L869.149,457L819.217,499.5L782.086,517.52L753.255,507.715C741.671,517.893 672.793,559.797 659.416,565.53C658.379,584.043 649.994,601.115 636.434,615.086C674.153,643.767 698.525,689.122 698.525,740.125C698.525,826.776 626.651,849.125 540,849.125C453.349,849.125 384.525,826.776 384.525,740.125C384.525,689.122 408.898,643.767 446.616,615.086C434.262,602.354 426.205,587.052 424.085,570.433C421.757,569.731 295.61,527.28 291.434,521.017L278.428,509.708L238.121,529L279.787,489.645L281.779,430L298.517,465.233L296.346,494.8L304.263,508.896Z" style="fill:rgb(255,250,250);"/>
        <clipPath id="_clip1">
            <path d="M304.263,508.896C316.731,508.339 412.804,542.379 424.789,548.422C428.207,530.722 438.39,514.693 453.265,501.913C434.767,481.079 423.525,453.655 423.525,423.625C423.525,358.499 476.399,305.625 541.525,305.625C606.651,305.625 659.525,358.499 659.525,423.625C659.525,453.655 648.284,481.079 629.785,501.913C643.062,513.318 652.6,527.312 656.928,542.773C667.345,535.442 744,493 744,493L754,460C754,460 765,442 774,424L772.188,470L768.188,486.735L787.462,492.5L869.149,457L819.217,499.5L782.086,517.52L753.255,507.715C741.671,517.893 672.793,559.797 659.416,565.53C658.379,584.043 649.994,601.115 636.434,615.086C674.153,643.767 698.525,689.122 698.525,740.125C698.525,826.776 626.651,849.125 540,849.125C453.349,849.125 384.525,826.776 384.525,740.125C384.525,689.122 408.898,643.767 446.616,615.086C434.262,602.354 426.205,587.052 424.085,570.433C421.757,569.731 295.61,527.28 291.434,521.017L278.428,509.708L238.121,529L279.787,489.645L281.779,430L298.517,465.233L296.346,494.8L304.263,508.896Z"/>
        </clipPath>
        <g clip-path="url(#_clip1)">
            <path d="M537.032,455.641C534.196,456.074 531.499,456.34 528.885,457.609C509.848,466.853 531.259,488.404 536.439,499.891C539.126,505.849 540.849,521.04 550.601,519.186C555.655,518.225 555.407,507.828 554.121,504.517C549.33,492.181 552.734,476.764 550.42,466.816C549.466,462.714 544.917,454.423 540,456.295" style="fill:rgb(255,132,36);"/>
            <g id="Layer1">
                <path d="M425.644,547.751C425.231,551.406 424.856,555.077 424.366,558.723C424.053,561.054 423.688,563.388 423.042,565.653C421.012,572.768 413.003,570.26 409.574,565.448C404.149,557.835 412.312,545.944 421.105,545.944" style="fill:rgb(159,105,38);"/>
                <path d="M415.242,545.592C413.921,542.637 408.841,545.463 406.861,546.186C400.597,548.47 395.726,554.513 401.161,560.428C406.867,566.638 415.676,567.16 421.535,560.706C425.212,556.657 423.904,550.421 418.405,549.427" style="fill:rgb(159,105,38);"/>
                <path d="M405.204,539.2C399.684,538.283 393.469,538.573 388.501,541.4C384.632,543.602 383.561,548.694 386.186,552.372C387.982,554.887 391.786,555.04 394.567,555.239C401.061,555.704 410.804,555.636 413.52,548.067C414.384,545.658 412.934,544.159 410.97,543.124C410.247,542.743 408.298,541.569 407.872,542.599" style="fill:rgb(159,105,38);"/>
                <path d="M416.383,543.329C416.909,544.827 419.002,545.637 420.192,546.589C422.324,548.294 424.061,550.899 424.203,553.714C424.637,562.299 412.69,567.042 405.765,564.927C402.41,563.902 399.979,561.311 396.536,560.343C393.363,559.451 389.352,560.656 386.401,559.225C385.023,558.557 384.459,556.779 382.905,556.042C380.09,554.707 376.836,554.565 373.957,553.358C361.8,548.261 349.783,542.514 337.682,537.235C328.383,533.179 319.251,530.235 310.23,525.501C304.683,522.59 297.709,522.068 292.491,518.813C288.899,516.573 287.452,512.376 284.11,510.06C278.787,506.371 273.907,510.252 269.709,512.982C265.585,515.665 260.898,518.469 256.345,520.331C253.482,521.501 250.722,522.876 247.828,523.983C247.539,524.093 244.778,524.88 244.815,524.478C244.896,523.585 246.693,522.329 247.28,521.72C249.673,519.24 252.277,517.192 254.519,514.585C259.114,509.242 265.305,505.897 270.192,500.951C274.987,496.098 278.321,489.216 281.592,483.273C285.991,475.284 284.411,466.76 283.875,458.321C283.709,455.708 281.475,450.861 282.421,448.468C283.381,446.036 286.877,445.018 288.864,443.804" style="fill:rgb(159,105,38);"/>
                <path d="M798.714,393.483C761.45,389.711 726.284,415.027 704.631,443.421C696.834,453.645 691.368,465.287 684.494,476.095C676.275,489.02 668.351,500.837 663.262,515.408C656.252,535.477 650.516,562.979 664.137,581.712C669.414,588.97 677.979,594.066 685.752,598.225C691.581,601.344 697.766,603.396 704.299,604.405C722.215,607.173 737.602,602.145 754.982,598.756C794.969,590.959 831.715,572.497 864.705,548.818C877.78,539.433 891.062,529.439 900.754,516.426C914.261,498.29 916.599,481.243 914.161,459.193C913.052,449.163 912.299,438.534 903.59,432.015C880.683,414.866 846.701,416.518 820.198,420.225" style="fill:rgb(159,105,38);"/>
            </g>
            <g id="Layer2">
                <path d="M426.925,560.754C426.238,559.466 423.212,559.449 422.581,559.318C419.003,558.573 415.364,558.039 411.876,556.947C359.96,540.692 360.764,538.81 308.949,521.825C306.944,521.168 304.772,521.231 302.684,520.932C301.445,520.754 300.216,520.3 298.968,520.395C298.184,520.454 296.301,520.791 296.824,521.377C298.474,523.225 300.947,524.181 303.222,525.161C313.185,529.451 323.475,532.948 333.471,537.16C363.781,549.93 368.263,553.919 399.436,564.615C403.098,565.871 406.965,566.491 410.804,566.994C413.925,567.402 419.406,565.97 422.422,567.819C424.345,568.998 423.753,573.382 424.121,574.949C425.185,579.486 425.934,584.178 427.875,588.414C430.335,593.782 433.819,598.634 437.193,603.48C440.499,608.226 442.804,607.845 445.463,613.106C447.025,616.198 441.35,618.927 439.997,620.057C430.282,628.163 419.211,636.367 413.536,648.15C409.808,655.892 406.715,663.925 403.322,671.819C401.23,676.685 398.975,681.486 397.08,686.432C396.677,687.483 395.741,690.626 396.449,689.751C407.057,676.627 416.417,661.222 427.616,647.821C432.11,642.444 436.901,637.389 442.187,632.934C446.229,629.528 458.42,626.243 458.445,618.634C458.477,609.096 446.753,601.573 441.876,595.455C433.646,585.129 430.141,566.777 426.925,560.754Z" style="fill-opacity:0.33;"/>
                <g transform="matrix(-1,0,0,1,1079.18,0)">
                    <path d="M463.876,582.455C455.646,572.129 423.212,559.449 422.581,559.318C419.003,558.573 384.109,534.653 380.876,532.947C374.188,529.419 355.469,513.755 328.693,502.25C317.239,497.329 307.483,510.329 294.923,505.701C261.39,493.345 231.258,469.646 229.052,471.216C212.177,483.223 341.479,543.018 366.436,536.615C370.186,535.653 376.965,543.491 380.804,543.994C383.925,544.402 419.406,565.97 422.422,567.819C424.345,568.998 423.753,573.382 424.121,574.949C425.185,579.486 425.934,584.178 427.875,588.414C430.335,593.782 433.819,598.634 437.193,603.48C440.499,608.226 442.804,607.845 445.463,613.106C447.025,616.198 441.35,618.927 439.997,620.057C430.282,628.163 419.211,636.367 413.536,648.15C411.614,652.142 400.861,645.211 399.148,649.299C397.539,653.139 380.978,653.83 377.322,655.819C243.727,728.501 436.146,887.85 524.156,846.432C525.175,845.953 477.151,800.19 469.449,769.751C461.121,736.834 476.021,674.12 474.187,648.934C473.36,637.582 458.42,626.243 458.445,618.634C458.477,609.096 468.753,588.573 463.876,582.455Z" style="fill-opacity:0.33;"/>
                </g>
                <g transform="matrix(1,0,0,-1,178.83,1043.11)">
                    <path d="M458.925,547.754C457.897,545.829 447.581,543.318 447.581,543.318C447.581,543.318 451.677,557.034 453.443,562.577C459.577,581.835 456.739,605.567 441.471,620.003C434.251,626.83 424.674,630.286 415.168,632.173C387.473,637.668 387.143,634.624 359.761,641.029C355.647,641.991 351.612,643.473 347.89,645.474C346.656,646.138 345.331,647.397 345.317,648.798C345.305,649.92 346.771,650.667 347.831,651.035C354.801,653.457 355.733,651.094 362.777,653.252C388.554,661.148 412.985,671.897 439.7,676.294C448.701,677.775 461.524,679.768 470.254,674.777C476.876,670.991 474.495,662.19 476.338,656.356C478.819,648.504 482.811,641.198 485.503,633.417C491.678,615.567 492.415,594.916 482.077,578.356C475.847,568.375 464.514,558.22 458.925,547.754Z" style="fill-opacity:0.66;"/>
                </g>
                <path d="M480.037,322.936C475.41,320.623 465.187,324.791 459.569,325.727C457.505,326.071 452.455,326.112 453.057,328.518C453.709,331.126 456.322,333.326 457.709,335.496C459.623,338.493 460.689,341.733 463.291,344.334C465.547,346.59 469.476,348.147 472.129,349.916C480.431,355.451 488.429,359.687 498.644,360.615C505.497,361.238 512.686,360.615 519.576,360.615C531.235,360.615 542.908,361.044 554.464,359.22C570.959,356.615 586.55,350.3 602.377,345.265C610.97,342.53 619.814,341.182 628.426,338.752C639.455,335.64 652.038,330.458 661.453,323.867C662.099,323.415 670.205,318.198 668.896,316.889C666.238,314.231 654.153,315.817 650.754,315.959C634.432,316.639 618.271,317.354 601.911,317.354L558.651,317.354" style="fill-opacity:0.33;"/>
                <path d="M528.434,456.279C529.915,454.955 532.691,456.274 533.667,457.37C537.791,461.996 538.887,464.408 539.538,470.577C540.4,478.737 539.995,487.233 539.062,495.358C538.748,498.093 538.227,500.806 537.619,503.492C537.389,504.505 535.969,506.055 536.785,507.297C536.957,507.558 540.601,509.058 540.772,509.325C542.345,511.795 543.548,520.313 548.688,519.539C550.281,519.3 550.637,516.644 550.769,515.628C551.333,511.298 551.837,506.959 552.262,502.613C552.631,498.834 552.924,495.047 553.151,491.257C553.889,478.964 555.277,459.583 540.449,454.581L528.434,456.279Z" style="fill:rgb(113,113,113);fill-opacity:0.41;"/>
            </g>
            <g transform="matrix(-1,0,0,1,1079.18,0)">
                <g id="Layer3">
                    <path d="M463.876,582.455C455.646,572.129 423.212,559.449 422.581,559.318C419.003,558.573 384.109,534.653 380.876,532.947C374.188,529.419 355.469,513.755 328.693,502.25C317.239,497.329 307.483,510.329 294.923,505.701C261.39,493.345 231.258,469.646 229.052,471.216C212.177,483.223 341.479,543.018 366.436,536.615C370.186,535.653 376.965,543.491 380.804,543.994C383.925,544.402 419.406,565.97 422.422,567.819C424.345,568.998 423.753,573.382 424.121,574.949C425.185,579.486 425.934,584.178 427.875,588.414C430.335,593.782 433.819,598.634 437.193,603.48C440.499,608.226 442.804,607.845 445.463,613.106C447.025,616.198 441.35,618.927 439.997,620.057C430.282,628.163 419.211,636.367 413.536,648.15C411.614,652.142 400.861,645.211 399.148,649.299C397.539,653.139 380.978,653.83 377.322,655.819C243.727,728.501 436.146,887.85 524.156,846.432C525.175,845.953 477.151,800.19 469.449,769.751C461.121,736.834 476.021,674.12 474.187,648.934C473.36,637.582 458.42,626.243 458.445,618.634C458.477,609.096 468.753,588.573 463.876,582.455Z" style="fill-opacity:0.33;"/>
                </g>
            </g>
            <g transform="matrix(0.468871,0,0,0.443422,254.092,236.673)">
                <circle cx="506" cy="450" r="27"/>
            </g>
            <path d="M496.024,424.241C496.391,423.746 496.424,423.74 496.991,423.587" style="fill-opacity:0.72;"/>
            <path d="M528.342,490.999C523.527,482.215 519.601,474.212 518.681,470C517.054,462.556 525.393,453.5 534.5,453.5C543.607,453.5 551,460.893 551,470L551,529C551,529 543.985,518.385 534.725,501.916" style="fill:none;stroke:black;stroke-width:7.63px;"/>
            <g transform="matrix(0.598501,0,0,0.598501,279.978,166.888)">
                <circle cx="506" cy="450" r="27"/>
            </g>
            <g transform="matrix(0.468871,0,0,0.468871,306.751,353.043)">
                <circle cx="506" cy="450" r="27"/>
            </g>
            <g transform="matrix(0.839241,0,0,0.839241,119.344,273.887)">
                <circle cx="506" cy="450" r="27"/>
            </g>
            <g id="Layer4">
                <g transform="matrix(1,0,0,1,-3,0)">
                    <path d="M537.136,636.613C532.512,639.598 530.242,645.004 529.069,650.154C528.732,651.637 528.586,653.343 529.091,654.821C529.387,655.691 530.384,656.72 531.321,655.978C535.456,652.701 535.987,646.699 539.311,642.752C541.079,640.654 544.675,640.125 547.077,639.68C548.002,639.508 550.14,639.561 551.011,639.056C551.454,638.799 550.917,637.783 550.74,637.646C549.741,636.87 548.705,636.12 547.571,635.559C544.266,633.922 540.148,634.754 537.136,636.613Z" style="fill:white;fill-opacity:0.82;"/>
                </g>
                <g transform="matrix(0.553959,0,0,0.553959,242.85,202.707)">
                    <path d="M537.136,636.613C532.512,639.598 530.242,645.004 529.069,650.154C528.732,651.637 528.586,653.343 529.091,654.821C529.387,655.691 530.384,656.72 531.321,655.978C535.456,652.701 535.987,646.699 539.311,642.752C541.079,640.654 544.675,640.125 547.077,639.68C548.002,639.508 550.14,639.561 551.011,639.056C551.454,638.799 550.917,637.783 550.74,637.646C549.741,636.87 548.705,636.12 547.571,635.559C544.266,633.922 540.148,634.754 537.136,636.613Z" style="fill:white;fill-opacity:0.82;"/>
                </g>
                <g transform="matrix(0.553959,0,0,0.553959,189.85,75.7071)">
                    <path d="M537.136,636.613C532.512,639.598 530.242,645.004 529.069,650.154C528.732,651.637 528.586,653.343 529.091,654.821C529.387,655.691 530.384,656.72 531.321,655.978C535.456,652.701 535.987,646.699 539.311,642.752C541.079,640.654 544.675,640.125 547.077,639.68C548.002,639.508 550.14,639.561 551.011,639.056C551.454,638.799 550.917,637.783 550.74,637.646C549.741,636.87 548.705,636.12 547.571,635.559C544.266,633.922 540.148,634.754 537.136,636.613Z" style="fill:white;fill-opacity:0.82;"/>
                </g>
                <g transform="matrix(0.910792,0,0,0.832377,88.5684,-104.945)">
                    <path d="M537.136,636.613C532.512,639.598 530.242,645.004 529.069,650.154C528.732,651.637 528.586,653.343 529.091,654.821C529.387,655.691 530.384,656.72 531.321,655.978C535.456,652.701 535.987,646.699 539.311,642.752C541.079,640.654 544.675,640.125 547.077,639.68C548.002,639.508 550.14,639.561 551.011,639.056C551.454,638.799 550.917,637.783 550.74,637.646C549.741,636.87 548.705,636.12 547.571,635.559C544.266,633.922 540.148,634.754 537.136,636.613Z" style="fill:white;fill-opacity:0.82;"/>
                </g>
                <g transform="matrix(0.910792,0,0,0.832377,-201.432,-72.9446)">
                    <path d="M531.646,617.789C527.022,620.774 530.242,645.004 529.069,650.154C528.732,651.637 528.586,653.343 529.091,654.821C529.387,655.691 504.034,705.977 504.971,705.234C509.106,701.958 525.007,701.963 528.332,698.016C530.099,695.917 531.234,708.996 532.804,706.957C537.469,700.9 532.834,701.025 533.928,692.743C536.542,672.94 550.397,639.412 551.011,639.056C551.454,638.799 550.917,637.783 550.74,637.646C549.741,636.87 548.705,636.12 547.571,635.559C544.266,633.922 534.658,615.93 531.646,617.789Z" style="fill:white;fill-opacity:0.82;"/>
                </g>
                <g transform="matrix(0.910792,0,0,0.832377,283.568,-102.945)">
                    <path d="M531.646,617.789C527.022,620.774 530.242,645.004 529.069,650.154C528.732,651.637 528.586,653.343 529.091,654.821C529.387,655.691 504.034,705.977 504.971,705.234C509.106,701.958 522.811,686.345 526.136,682.398C527.904,680.299 539.185,707.402 541.588,706.957C541.86,706.906 537.226,698.622 538.319,690.34C540.934,670.537 550.397,639.412 551.011,639.056C551.454,638.799 550.917,637.783 550.74,637.646C549.741,636.87 548.705,636.12 547.571,635.559C544.266,633.922 534.658,615.93 531.646,617.789Z" style="fill:white;fill-opacity:0.82;"/>
                </g>
                <g transform="matrix(0.910792,0,0,0.832377,373.568,-102.945)">
                    <path d="M531.646,617.789C527.022,620.774 530.242,645.004 529.069,650.154C528.732,651.637 528.586,653.343 529.091,654.821C529.387,655.691 504.034,705.977 504.971,705.234C509.106,701.958 525.007,701.963 528.332,698.016C530.099,695.917 539.185,707.402 541.588,706.957C541.86,706.906 537.226,698.622 538.319,690.34C540.934,670.537 550.397,639.412 551.011,639.056C551.454,638.799 550.917,637.783 550.74,637.646C549.741,636.87 548.705,636.12 547.571,635.559C544.266,633.922 534.658,615.93 531.646,617.789Z" style="fill:white;fill-opacity:0.82;"/>
                </g>
                <path d="M539.967,658.232C539.982,658.198 539.998,658.163 540.013,658.129" style="fill:white;fill-opacity:0.66;"/>
            </g>
        </g>
        <path d="M428.296,456.921C428.039,456.048 427.793,455.17 427.556,454.289" style="fill:none;stroke:black;stroke-width:9.02px;"/>
        <path d="M424.614,439.706C423.896,434.447 423.525,429.079 423.525,423.625C423.525,358.499 476.399,305.625 541.525,305.625C606.651,305.625 659.525,358.499 659.525,423.625C659.525,453.655 648.284,481.079 629.785,501.913C643.062,513.318 652.6,527.312 656.928,542.773C667.345,535.442 744,493 744,493L754,460C754,460 765,442 774,424L772.188,470L768.188,486.735L787.462,492.5L869.149,457L819.217,499.5L782.086,517.52L753.255,507.715C741.671,517.893 672.793,559.797 659.416,565.53C658.379,584.043 649.994,601.115 636.434,615.086C674.153,643.767 698.525,689.122 698.525,740.125C698.525,754.699 696.492,767.454 692.697,778.59" style="fill:none;stroke:black;stroke-width:9.02px;"/>
        <path d="M678.459,804.754C651.194,838.755 599.025,849.125 540,849.125C464.812,849.125 403.046,832.298 388.02,771.235" style="fill:none;stroke:black;stroke-width:9.02px;"/>
        <g transform="matrix(1,0,0,1,-1,-3)">
            <path d="M385.918,760.395C385.874,760.088 386.123,761.805 385.918,760.395Z" style="fill:none;stroke:black;stroke-width:9.02px;"/>
        </g>
        <path d="M384.525,740.125C384.525,689.122 408.898,643.767 446.616,615.086C434.262,602.354 426.205,587.052 424.085,570.433C421.757,569.731 295.61,527.28 291.434,521.017L278.428,509.708L238.121,529L279.787,489.645L281.779,430L298.517,465.233L296.346,494.8L304.263,508.896C310.382,508.623 336.641,516.683 363.213,525.677" style="fill:none;stroke:black;stroke-width:9.02px;"/>
        <path d="M374.295,529.475C397.889,537.657 419.507,545.758 424.789,548.422C428.207,530.722 438.39,514.693 453.265,501.913C450.02,498.258 446.997,494.399 444.22,490.36" style="fill:none;stroke:black;stroke-width:9.02px;"/>
        <path d="M439.067,482.164C436.764,478.145 434.69,473.977 432.864,469.679" style="fill:none;stroke:black;stroke-width:9.02px;"/>
        <path d="M465.1,307.898C458.813,298.715 455.25,269.24 455.25,258.125C455.25,221.837 493.225,211.375 540,211.375C586.775,211.375 624.75,221.837 624.75,258.125C624.75,269.24 621.187,298.715 614.9,307.898C656.611,319.433 684.5,307.309 684.5,331.125C684.5,367.413 619.752,396.875 540,396.875C460.248,396.875 395.5,367.413 395.5,331.125C395.5,307.309 423.389,319.433 465.1,307.898Z" style="fill:rgb(82,70,50);"/>
        <clipPath id="_clip2">
            <path d="M465.1,307.898C458.813,298.715 455.25,269.24 455.25,258.125C455.25,221.837 493.225,211.375 540,211.375C586.775,211.375 624.75,221.837 624.75,258.125C624.75,269.24 621.187,298.715 614.9,307.898C656.611,319.433 684.5,307.309 684.5,331.125C684.5,367.413 619.752,396.875 540,396.875C460.248,396.875 395.5,367.413 395.5,331.125C395.5,307.309 423.389,319.433 465.1,307.898Z"/>
        </clipPath>
        <g clip-path="url(#_clip2)">
            <path d="M620.718,311.206C615.312,313.245 604.547,320.747 599.259,322.991C582.779,329.986 563.506,330.296 546.066,329.727C525.122,329.045 504.241,318.39 483.293,325.727C482.403,326.039 483.081,327.862 483.758,328.518C486.563,331.235 489.815,333.529 493.256,335.376C501.76,339.94 517.713,345.627 527.019,348.056C565.579,358.119 577.618,360.551 617.191,365.286C629.852,366.8 644.91,367.147 657.552,365.073C670.67,362.921 678.508,350.779 683.132,339.482C684.093,337.136 685.434,334.778 685.461,332.243C685.525,326.259 682.044,321.182 678.219,317.053C664.021,301.728 638.327,304.565 620.718,311.206Z" style="fill-opacity:0.65;"/>
            <g transform="matrix(0.385166,-0.825342,0.754284,0.352005,-286.467,554.362)">
                <path d="M537.136,636.613C527.122,643.078 528.314,644.323 520.645,653.13C520.232,653.604 519.347,653.641 519.105,654.222C517.108,659.014 516.678,664.427 515.958,669.482C514.92,676.761 514.059,684.068 512.84,691.319C512.549,693.049 511.809,694.678 511.432,696.392C511.243,697.25 511.216,699.061 512.086,698.944C515.966,698.425 516.008,692.349 516.805,689.959C521.749,675.116 526.773,658.629 536.103,645.716C539.801,640.599 547.143,638.903 552.775,641.496C554.586,642.329 556.124,643.66 557.838,644.678C558.164,644.872 560.345,646.254 560.695,644.717C561.372,641.744 560.015,638.54 558.56,636.095C557.045,633.55 555.186,631.224 553.594,628.726C552.771,627.436 552.273,625.937 551.32,624.74C549.218,622.099 545.683,624.562 544.191,626.396C541.784,629.356 540.67,634.431 537.136,636.613Z" style="fill:white;fill-opacity:0.82;"/>
            </g>
            <g transform="matrix(0.843191,0.34434,-0.314694,0.770597,241.583,-457.921)">
                <path d="M537.136,636.613C531.164,640.468 522.691,647.924 519.105,654.222C516.987,657.94 515.491,668.859 514.966,672.93C514.176,679.05 513.747,685.215 512.84,691.319C512.592,692.984 511.868,694.545 511.507,696.19C511.444,696.479 510.654,699.239 512.38,699.01C516.601,698.449 515.96,692.616 516.805,689.959C521.929,673.845 529.798,662.447 542.366,650.541C564.954,629.141 595.348,619.397 619.14,599.67C619.634,599.261 618.175,598.67 617.537,598.608C615.848,598.445 614.13,598.702 612.464,599.025C608.779,599.74 602.871,602.295 598.934,601.901C592.674,601.274 586.534,588.545 579.621,593.729C572.021,599.428 566.425,608.868 560.159,615.744C558.412,617.661 555.946,618.857 554.295,620.857C552.821,622.642 554.704,626.604 552.611,627.594C552.097,627.837 550.317,621.354 547.527,623.89C547.346,624.053 537.363,636.472 537.136,636.613Z" style="fill:white;fill-opacity:0.82;"/>
            </g>
        </g>
        <path d="M624.277,267.309C623.116,280.833 619.853,300.663 614.9,307.898C656.611,319.433 684.5,307.309 684.5,331.125C684.5,366.126 624.266,394.775 548.432,396.765" style="fill:none;stroke:black;stroke-width:9.02px;"/>
        <path d="M529.708,396.765C523.594,397.236 505.899,396.116 500.777,394.42" style="fill:none;stroke:black;stroke-width:9.02px;"/>
        <path d="M489.017,392.659C488.23,392.524 487.445,392.385 486.664,392.244" style="fill:none;stroke:black;stroke-width:9.02px;"/>
        <path d="M476.151,390.115C428.385,379.381 395.5,356.987 395.5,331.125C395.5,307.309 423.389,319.433 465.1,307.898C458.813,298.715 455.25,269.24 455.25,258.125C455.25,221.837 493.225,211.375 540,211.375C580.249,211.375 613.983,219.121 622.612,244.404" style="fill:none;stroke:black;stroke-width:9.02px;"/>
    </g>
</svg>
